{"glyphs":{"0":{"ha":903,"x_min":63,"x_max":840,"o":"m 63 169 l 63 803 l 232 972 l 671 972 l 840 803 l 840 169 l 671 0 l 232 0 l 63 169 m 296 761 l 296 211 l 607 211 l 607 761 l 296 761 z "},"1":{"ha":597,"x_min":63,"x_max":535,"o":"m 63 -6 l 63 176 l 188 183 l 188 742 l 68 729 l 68 917 l 421 972 l 421 183 l 535 176 l 535 -6 l 299 6 l 63 -6 z "},"2":{"ha":875,"x_min":63,"x_max":813,"o":"m 813 203 l 813 0 l 63 0 l 63 521 l 579 590 l 579 769 l 68 769 l 68 972 l 643 972 l 813 803 l 813 428 l 296 358 l 296 203 l 813 203 z "},"3":{"ha":864,"x_min":42,"x_max":825,"o":"m 664 0 l 42 0 l 42 194 l 585 194 l 585 403 l 125 403 l 125 589 l 557 589 l 557 778 l 56 778 l 56 972 l 636 972 l 797 811 l 797 576 l 710 508 l 825 417 l 825 161 l 664 0 z "},"4":{"ha":889,"x_min":56,"x_max":822,"o":"m 56 250 l 92 972 l 322 972 l 289 461 l 589 461 l 589 972 l 822 972 l 822 0 l 589 0 l 589 250 l 56 250 z "},"5":{"ha":875,"x_min":63,"x_max":813,"o":"m 813 769 l 296 769 l 296 611 l 813 565 l 813 169 l 643 0 l 68 0 l 68 203 l 579 203 l 579 399 l 63 443 l 63 972 l 813 972 l 813 769 z "},"6":{"ha":903,"x_min":63,"x_max":840,"o":"m 224 0 l 63 161 l 63 811 l 224 972 l 789 972 l 789 769 l 296 769 l 296 619 l 739 619 l 840 518 l 840 161 l 679 0 l 224 0 m 296 194 l 607 194 l 607 458 l 296 458 l 296 194 z "},"7":{"ha":828,"x_min":43,"x_max":785,"o":"m 113 0 l 551 640 l 551 778 l 267 778 l 267 622 l 43 622 l 43 972 l 785 972 l 785 606 l 392 0 l 113 0 z "},"8":{"ha":914,"x_min":44,"x_max":869,"o":"m 322 579 l 592 579 l 592 786 l 322 786 l 322 579 m 303 186 l 624 186 l 624 418 l 303 418 l 303 186 m 214 0 l 44 169 l 44 408 l 168 508 l 72 585 l 72 803 l 242 972 l 672 972 l 842 803 l 842 585 l 746 508 l 869 408 l 869 169 l 700 0 l 214 0 z "},"9":{"ha":903,"x_min":63,"x_max":840,"o":"m 679 972 l 840 811 l 840 161 l 679 0 l 114 0 l 114 203 l 607 203 l 607 353 l 164 353 l 63 454 l 63 811 l 224 972 l 679 972 m 607 778 l 296 778 l 296 514 l 607 514 l 607 778 z "}," ":{"ha":361,"x_min":0,"x_max":0,"o":""},"A":{"ha":911,"x_min":15,"x_max":896,"o":"m 15 0 l 229 972 l 682 972 l 896 0 l 649 0 l 608 208 l 303 208 l 263 0 l 15 0 m 332 376 l 579 376 l 499 788 l 413 788 l 332 376 z "},"B":{"ha":906,"x_min":67,"x_max":867,"o":"m 300 579 l 601 579 l 601 786 l 300 786 l 300 579 m 300 186 l 625 186 l 625 418 l 300 418 l 300 186 m 839 811 l 839 582 l 757 514 l 867 422 l 867 161 l 706 0 l 67 0 l 67 972 l 678 972 l 839 811 z "},"C":{"ha":772,"x_min":63,"x_max":735,"o":"m 63 169 l 63 803 l 232 972 l 721 972 l 721 760 l 304 760 l 304 213 l 735 213 l 735 0 l 232 0 l 63 169 z "},"D":{"ha":882,"x_min":67,"x_max":819,"o":"m 300 203 l 586 203 l 586 769 l 300 769 l 300 203 m 67 0 l 67 972 l 650 972 l 819 803 l 819 169 l 650 0 l 67 0 z "},"E":{"ha":806,"x_min":67,"x_max":764,"o":"m 67 0 l 67 972 l 750 972 l 750 778 l 300 778 l 300 589 l 681 589 l 681 403 l 300 403 l 300 194 l 764 194 l 764 0 l 67 0 z "},"F":{"ha":775,"x_min":67,"x_max":733,"o":"m 67 0 l 67 972 l 733 972 l 733 761 l 300 761 l 300 506 l 706 506 l 706 303 l 300 303 l 300 0 l 67 0 z "},"G":{"ha":894,"x_min":63,"x_max":832,"o":"m 63 169 l 63 803 l 232 972 l 774 972 l 774 769 l 296 769 l 296 203 l 626 203 l 626 403 l 424 403 l 424 588 l 832 588 l 832 0 l 232 0 l 63 169 z "},"H":{"ha":914,"x_min":67,"x_max":847,"o":"m 67 0 l 67 972 l 300 972 l 300 606 l 614 606 l 614 972 l 847 972 l 847 0 l 614 0 l 614 394 l 300 394 l 300 0 l 67 0 z "},"I":{"ha":597,"x_min":63,"x_max":535,"o":"m 63 -6 l 63 176 l 182 183 l 182 789 l 63 796 l 63 978 l 299 967 l 535 978 l 535 796 l 415 789 l 415 183 l 535 176 l 535 -6 l 299 6 l 63 -6 z "},"J":{"ha":833,"x_min":35,"x_max":771,"o":"m 35 175 l 35 458 l 268 458 l 268 211 l 538 211 l 538 769 l 79 769 l 79 972 l 771 972 l 771 175 l 596 0 l 210 0 l 35 175 z "},"K":{"ha":908,"x_min":67,"x_max":906,"o":"m 67 0 l 67 972 l 300 972 l 300 594 l 439 594 l 626 972 l 885 972 l 643 514 l 906 0 l 644 0 l 450 392 l 300 392 l 300 0 l 67 0 z "},"L":{"ha":804,"x_min":67,"x_max":767,"o":"m 67 0 l 67 972 l 300 972 l 300 194 l 561 194 l 561 389 l 767 389 l 767 0 l 67 0 z "},"M":{"ha":1083,"x_min":67,"x_max":1017,"o":"m 67 0 l 67 972 l 347 972 l 542 558 l 736 972 l 1017 972 l 1017 0 l 788 0 l 788 675 l 592 272 l 492 272 l 296 675 l 296 0 l 67 0 z "},"N":{"ha":944,"x_min":67,"x_max":878,"o":"m 67 0 l 67 972 l 288 972 l 661 354 l 661 972 l 878 972 l 878 0 l 657 0 l 283 618 l 283 0 l 67 0 z "},"O":{"ha":944,"x_min":63,"x_max":882,"o":"m 63 169 l 63 803 l 232 972 l 713 972 l 882 803 l 882 169 l 713 0 l 232 0 l 63 169 m 304 769 l 304 203 l 640 203 l 640 769 l 304 769 z "},"P":{"ha":869,"x_min":67,"x_max":831,"o":"m 300 394 l 597 394 l 597 786 l 300 786 l 300 394 m 831 803 l 831 378 l 661 208 l 300 208 l 300 0 l 67 0 l 67 972 l 661 972 l 831 803 z "},"Q":{"ha":944,"x_min":63,"x_max":913,"o":"m 63 169 l 63 803 l 232 972 l 713 972 l 882 803 l 882 206 l 640 44 l 640 769 l 304 769 l 304 190 l 913 82 l 913 -133 l 232 0 l 63 169 z "},"R":{"ha":911,"x_min":67,"x_max":908,"o":"m 300 461 l 619 461 l 619 786 l 300 786 l 300 461 m 853 803 l 853 451 l 740 339 l 908 0 l 647 0 l 524 275 l 300 275 l 300 0 l 67 0 l 67 972 l 683 972 l 853 803 z "},"S":{"ha":889,"x_min":63,"x_max":826,"o":"m 76 0 l 76 203 l 593 203 l 593 385 l 63 431 l 63 811 l 224 972 l 813 972 l 813 769 l 296 769 l 296 601 l 826 556 l 826 161 l 665 0 l 76 0 z "},"T":{"ha":794,"x_min":28,"x_max":767,"o":"m 281 0 l 281 769 l 28 769 l 28 972 l 767 972 l 767 769 l 514 769 l 514 0 l 281 0 z "},"U":{"ha":903,"x_min":67,"x_max":836,"o":"m 67 169 l 67 972 l 300 972 l 300 211 l 603 211 l 603 972 l 836 972 l 836 169 l 667 0 l 236 0 l 67 169 z "},"V":{"ha":911,"x_min":15,"x_max":896,"o":"m 229 0 l 15 972 l 269 972 l 413 211 l 499 211 l 643 972 l 896 972 l 682 0 l 229 0 z "},"W":{"ha":1186,"x_min":11,"x_max":1175,"o":"m 167 0 l 11 972 l 261 972 l 360 244 l 404 244 l 507 819 l 679 819 l 782 244 l 826 244 l 925 972 l 1175 972 l 1019 0 l 688 0 l 593 518 l 499 0 l 167 0 z "},"X":{"ha":917,"x_min":11,"x_max":906,"o":"m 11 0 l 228 514 l 32 972 l 282 972 l 418 606 l 499 606 l 635 972 l 885 972 l 689 514 l 906 0 l 653 0 l 508 394 l 408 394 l 264 0 l 11 0 z "},"Y":{"ha":889,"x_min":18,"x_max":871,"o":"m 328 0 l 328 292 l 210 292 l 18 972 l 267 972 l 385 493 l 504 493 l 622 972 l 871 972 l 679 292 l 561 292 l 561 0 l 328 0 z "},"Z":{"ha":782,"x_min":44,"x_max":738,"o":"m 44 0 l 44 172 l 471 778 l 49 778 l 49 972 l 733 972 l 733 800 l 307 194 l 738 194 l 738 0 l 44 0 z "},"a":{"ha":833,"x_min":53,"x_max":767,"o":"m 53 167 l 53 444 l 533 458 l 533 583 l 81 583 l 81 778 l 600 778 l 767 611 l 767 0 l 219 0 l 53 167 m 286 317 l 286 186 l 533 186 l 533 344 l 286 317 z "},"b":{"ha":861,"x_min":67,"x_max":806,"o":"m 67 0 l 67 972 l 300 972 l 300 778 l 631 778 l 806 603 l 806 175 l 631 0 l 67 0 m 300 194 l 572 194 l 572 583 l 300 583 l 300 194 z "},"c":{"ha":736,"x_min":56,"x_max":703,"o":"m 56 158 l 56 619 l 214 778 l 703 778 l 703 567 l 289 567 l 289 211 l 703 211 l 703 0 l 214 0 l 56 158 z "},"d":{"ha":861,"x_min":56,"x_max":794,"o":"m 794 972 l 794 0 l 231 0 l 56 175 l 56 603 l 231 778 l 561 778 l 561 972 l 794 972 m 289 194 l 561 194 l 561 583 l 289 583 l 289 194 z "},"e":{"ha":819,"x_min":56,"x_max":764,"o":"m 56 158 l 56 619 l 214 778 l 764 778 l 764 339 l 289 339 l 289 194 l 736 194 l 736 0 l 214 0 l 56 158 m 289 453 l 567 467 l 567 600 l 289 600 l 289 453 z "},"f":{"ha":603,"x_min":67,"x_max":575,"o":"m 67 0 l 67 814 l 225 972 l 575 972 l 575 769 l 300 769 l 300 597 l 575 597 l 575 403 l 300 403 l 300 0 l 67 0 z "},"g":{"ha":847,"x_min":56,"x_max":781,"o":"m 100 -194 l 100 0 l 547 0 l 547 111 l 214 111 l 56 269 l 56 619 l 219 778 l 781 778 l 781 -6 l 592 -194 l 100 -194 m 289 583 l 289 297 l 547 297 l 547 583 l 289 583 z "},"h":{"ha":861,"x_min":67,"x_max":794,"o":"m 67 0 l 67 972 l 300 972 l 300 778 l 628 778 l 794 611 l 794 0 l 561 0 l 561 583 l 300 583 l 300 0 l 67 0 z "},"i":{"ha":367,"x_min":67,"x_max":300,"o":"m 67 0 l 67 778 l 300 778 l 300 0 l 67 0 m 67 850 l 67 1003 l 300 1003 l 300 850 l 67 850 z "},"j":{"ha":367,"x_min":67,"x_max":300,"o":"m 67 -194 l 67 778 l 300 778 l 300 -194 l 67 -194 m 67 850 l 67 1003 l 300 1003 l 300 850 l 67 850 z "},"k":{"ha":850,"x_min":67,"x_max":844,"o":"m 67 0 l 67 972 l 300 972 l 300 501 l 433 501 l 569 778 l 831 778 l 625 418 l 844 0 l 581 0 l 440 307 l 300 307 l 300 0 l 67 0 z "},"l":{"ha":367,"x_min":67,"x_max":300,"o":"m 67 0 l 67 972 l 300 972 l 300 0 l 67 0 z "},"m":{"ha":1278,"x_min":67,"x_max":1211,"o":"m 67 778 l 1039 778 l 1211 606 l 1211 0 l 982 0 l 982 588 l 751 588 l 751 0 l 526 0 l 526 588 l 296 588 l 296 0 l 67 0 l 67 778 z "},"n":{"ha":861,"x_min":67,"x_max":794,"o":"m 67 0 l 67 778 l 628 778 l 794 611 l 794 0 l 561 0 l 561 575 l 300 575 l 300 0 l 67 0 z "},"o":{"ha":833,"x_min":56,"x_max":778,"o":"m 56 158 l 56 619 l 214 778 l 619 778 l 778 619 l 778 158 l 619 0 l 214 0 l 56 158 m 289 186 l 544 186 l 544 592 l 289 592 l 289 186 z "},"p":{"ha":861,"x_min":67,"x_max":806,"o":"m 67 -194 l 67 778 l 631 778 l 806 603 l 806 175 l 631 0 l 300 0 l 300 -194 l 67 -194 m 572 583 l 300 583 l 300 194 l 572 194 l 572 583 z "},"q":{"ha":861,"x_min":56,"x_max":794,"o":"m 794 778 l 794 -194 l 561 -194 l 561 0 l 231 0 l 56 175 l 56 603 l 231 778 l 794 778 m 561 583 l 289 583 l 289 194 l 561 194 l 561 583 z "},"r":{"ha":653,"x_min":67,"x_max":625,"o":"m 67 0 l 67 611 l 233 778 l 625 778 l 625 567 l 300 567 l 300 0 l 67 0 z "},"s":{"ha":817,"x_min":56,"x_max":761,"o":"m 56 0 l 56 186 l 528 186 l 528 328 l 56 328 l 56 619 l 214 778 l 761 778 l 761 592 l 289 592 l 289 456 l 761 456 l 761 154 l 607 0 l 56 0 z "},"t":{"ha":597,"x_min":67,"x_max":569,"o":"m 67 903 l 300 972 l 300 750 l 569 750 l 569 556 l 300 556 l 300 194 l 569 194 l 569 0 l 233 0 l 67 167 l 67 903 z "},"u":{"ha":861,"x_min":67,"x_max":794,"o":"m 794 778 l 794 0 l 233 0 l 67 167 l 67 778 l 300 778 l 300 203 l 561 203 l 561 778 l 794 778 z "},"v":{"ha":806,"x_min":10,"x_max":796,"o":"m 185 0 l 10 778 l 249 778 l 354 194 l 454 194 l 561 778 l 796 778 l 621 0 l 185 0 z "},"w":{"ha":1167,"x_min":35,"x_max":1132,"o":"m 151 0 l 35 778 l 271 778 l 343 194 l 381 194 l 475 700 l 692 700 l 786 194 l 824 194 l 896 778 l 1132 778 l 1015 0 l 678 0 l 583 465 l 489 0 l 151 0 z "},"x":{"ha":875,"x_min":22,"x_max":853,"o":"m 22 0 l 211 410 l 36 778 l 296 778 l 400 493 l 475 493 l 579 778 l 839 778 l 664 410 l 853 0 l 590 0 l 485 299 l 390 299 l 285 0 l 22 0 z "},"y":{"ha":833,"x_min":10,"x_max":824,"o":"m 56 -194 l 56 0 l 403 0 l 432 111 l 192 111 l 10 778 l 249 778 l 365 297 l 474 297 l 586 778 l 824 778 l 568 -194 l 56 -194 z "},"z":{"ha":736,"x_min":33,"x_max":703,"o":"m 33 0 l 33 167 l 413 583 l 38 583 l 38 778 l 700 778 l 700 611 l 321 194 l 703 194 l 703 0 l 33 0 z "},"Á":{"ha":911,"x_min":15,"x_max":896,"o":"m 15 0 l 229 972 l 682 972 l 896 0 l 649 0 l 608 208 l 303 208 l 263 0 l 15 0 m 332 376 l 579 376 l 499 788 l 413 788 l 332 376 m 275 1050 l 275 1167 l 719 1206 l 719 1050 l 275 1050 z "},"á":{"ha":833,"x_min":53,"x_max":767,"o":"m 53 167 l 53 444 l 533 458 l 533 583 l 81 583 l 81 778 l 600 778 l 767 611 l 767 0 l 219 0 l 53 167 m 286 317 l 286 186 l 533 186 l 533 344 l 286 317 m 211 856 l 211 972 l 656 1011 l 656 856 l 211 856 z "},"À":{"ha":911,"x_min":15,"x_max":896,"o":"m 15 0 l 229 972 l 682 972 l 896 0 l 649 0 l 608 208 l 303 208 l 263 0 l 15 0 m 332 376 l 579 376 l 499 788 l 413 788 l 332 376 m 636 1050 l 192 1050 l 192 1206 l 636 1167 l 636 1050 z "},"à":{"ha":833,"x_min":53,"x_max":767,"o":"m 53 167 l 53 444 l 533 458 l 533 583 l 81 583 l 81 778 l 600 778 l 767 611 l 767 0 l 219 0 l 53 167 m 286 317 l 286 186 l 533 186 l 533 344 l 286 317 m 572 856 l 128 856 l 128 1011 l 572 972 l 572 856 z "},"Ă":{"ha":911,"x_min":15,"x_max":896,"o":"m 15 0 l 229 972 l 682 972 l 896 0 l 649 0 l 608 208 l 303 208 l 263 0 l 15 0 m 332 376 l 579 376 l 499 788 l 413 788 l 332 376 m 557 1228 l 750 1228 l 628 1036 l 283 1036 l 161 1228 l 354 1228 l 372 1147 l 539 1147 l 557 1228 z "},"ă":{"ha":833,"x_min":53,"x_max":767,"o":"m 53 167 l 53 444 l 533 458 l 533 583 l 81 583 l 81 778 l 600 778 l 767 611 l 767 0 l 219 0 l 53 167 m 286 317 l 286 186 l 533 186 l 533 344 l 286 317 m 493 1033 l 686 1033 l 564 842 l 219 842 l 97 1033 l 290 1033 l 308 953 l 475 953 l 493 1033 z "},"Â":{"ha":911,"x_min":15,"x_max":896,"o":"m 15 0 l 229 972 l 682 972 l 896 0 l 649 0 l 608 208 l 303 208 l 263 0 l 15 0 m 332 376 l 579 376 l 499 788 l 413 788 l 332 376 m 192 1028 l 192 1172 l 456 1261 l 719 1172 l 719 1028 l 456 1117 l 192 1028 z "},"â":{"ha":833,"x_min":53,"x_max":767,"o":"m 53 167 l 53 444 l 533 458 l 533 583 l 81 583 l 81 778 l 600 778 l 767 611 l 767 0 l 219 0 l 53 167 m 286 317 l 286 186 l 533 186 l 533 344 l 286 317 m 128 833 l 128 978 l 392 1067 l 656 978 l 656 833 l 392 922 l 128 833 z "},"Ǎ":{"ha":911,"x_min":15,"x_max":896,"o":"m 15 0 l 229 972 l 682 972 l 896 0 l 649 0 l 608 208 l 303 208 l 263 0 l 15 0 m 332 376 l 579 376 l 499 788 l 413 788 l 332 376 m 719 1261 l 719 1117 l 456 1028 l 192 1117 l 192 1261 l 456 1172 l 719 1261 z "},"ǎ":{"ha":833,"x_min":53,"x_max":767,"o":"m 53 167 l 53 444 l 533 458 l 533 583 l 81 583 l 81 778 l 600 778 l 767 611 l 767 0 l 219 0 l 53 167 m 286 317 l 286 186 l 533 186 l 533 344 l 286 317 m 656 1067 l 656 922 l 392 833 l 128 922 l 128 1067 l 392 978 l 656 1067 z "},"Å":{"ha":911,"x_min":15,"x_max":896,"o":"m 15 0 l 229 972 l 682 972 l 896 0 l 649 0 l 608 208 l 303 208 l 263 0 l 15 0 m 332 376 l 579 376 l 499 788 l 413 788 l 332 376 m 268 1085 l 268 1221 l 365 1300 l 546 1300 l 643 1221 l 643 1085 l 546 1006 l 365 1006 l 268 1085 m 385 1108 l 526 1108 l 526 1197 l 385 1197 l 385 1108 z "},"å":{"ha":833,"x_min":53,"x_max":767,"o":"m 53 167 l 53 444 l 533 458 l 533 583 l 81 583 l 81 778 l 600 778 l 767 611 l 767 0 l 219 0 l 53 167 m 286 317 l 286 186 l 533 186 l 533 344 l 286 317 m 204 890 l 204 1026 l 301 1106 l 482 1106 l 579 1026 l 579 890 l 482 811 l 301 811 l 204 890 m 321 914 l 463 914 l 463 1003 l 321 1003 l 321 914 z "},"Ǻ":{"ha":911,"x_min":15,"x_max":896,"o":"m 15 0 l 229 972 l 682 972 l 896 0 l 649 0 l 608 208 l 303 208 l 263 0 l 15 0 m 332 376 l 579 376 l 499 788 l 413 788 l 332 376 m 268 1085 l 268 1221 l 365 1300 l 546 1300 l 643 1221 l 643 1085 l 546 1006 l 365 1006 l 268 1085 m 385 1108 l 526 1108 l 526 1197 l 385 1197 l 385 1108 m 676 1222 l 628 1258 l 658 1361 l 800 1361 l 676 1222 z "},"ǻ":{"ha":833,"x_min":53,"x_max":767,"o":"m 53 167 l 53 444 l 533 458 l 533 583 l 81 583 l 81 778 l 600 778 l 767 611 l 767 0 l 219 0 l 53 167 m 286 317 l 286 186 l 533 186 l 533 344 l 286 317 m 204 890 l 204 1026 l 301 1106 l 482 1106 l 579 1026 l 579 890 l 482 811 l 301 811 l 204 890 m 321 914 l 463 914 l 463 1003 l 321 1003 l 321 914 m 613 1028 l 564 1064 l 594 1167 l 736 1167 l 613 1028 z "},"Ä":{"ha":911,"x_min":15,"x_max":896,"o":"m 15 0 l 229 972 l 682 972 l 896 0 l 649 0 l 608 208 l 303 208 l 263 0 l 15 0 m 332 376 l 579 376 l 499 788 l 413 788 l 332 376 m 178 1044 l 178 1197 l 394 1197 l 394 1044 l 178 1044 m 517 1044 l 517 1197 l 733 1197 l 733 1044 l 517 1044 z "},"ä":{"ha":833,"x_min":53,"x_max":767,"o":"m 53 167 l 53 444 l 533 458 l 533 583 l 81 583 l 81 778 l 600 778 l 767 611 l 767 0 l 219 0 l 53 167 m 286 317 l 286 186 l 533 186 l 533 344 l 286 317 m 114 850 l 114 1003 l 331 1003 l 331 850 l 114 850 m 453 850 l 453 1003 l 669 1003 l 669 850 l 453 850 z "},"Ǟ":{"ha":911,"x_min":15,"x_max":896,"o":"m 15 0 l 229 972 l 682 972 l 896 0 l 649 0 l 608 208 l 303 208 l 263 0 l 15 0 m 332 376 l 579 376 l 499 788 l 413 788 l 332 376 m 178 1044 l 178 1197 l 394 1197 l 394 1044 l 178 1044 m 517 1044 l 517 1197 l 733 1197 l 733 1044 l 517 1044 m 219 1256 l 219 1353 l 692 1353 l 692 1256 l 219 1256 z "},"ǟ":{"ha":833,"x_min":53,"x_max":767,"o":"m 53 167 l 53 444 l 533 458 l 533 583 l 81 583 l 81 778 l 600 778 l 767 611 l 767 0 l 219 0 l 53 167 m 286 317 l 286 186 l 533 186 l 533 344 l 286 317 m 114 850 l 114 1003 l 331 1003 l 331 850 l 114 850 m 453 850 l 453 1003 l 669 1003 l 669 850 l 453 850 m 156 1061 l 156 1158 l 628 1158 l 628 1061 l 156 1061 z "},"Ã":{"ha":911,"x_min":15,"x_max":896,"o":"m 15 0 l 229 972 l 682 972 l 896 0 l 649 0 l 608 208 l 303 208 l 263 0 l 15 0 m 332 376 l 579 376 l 499 788 l 413 788 l 332 376 m 192 1014 l 164 1146 l 303 1235 l 586 1168 l 719 1236 l 747 1104 l 608 1015 l 325 1082 l 192 1014 z "},"ã":{"ha":833,"x_min":53,"x_max":767,"o":"m 53 167 l 53 444 l 533 458 l 533 583 l 81 583 l 81 778 l 600 778 l 767 611 l 767 0 l 219 0 l 53 167 m 286 317 l 286 186 l 533 186 l 533 344 l 286 317 m 128 819 l 100 951 l 239 1040 l 522 974 l 656 1042 l 683 910 l 544 821 l 261 888 l 128 819 z "},"Ą":{"ha":911,"x_min":15,"x_max":896,"o":"m 15 0 l 229 972 l 682 972 l 896 0 l 649 0 l 608 208 l 303 208 l 263 0 l 15 0 m 332 376 l 579 376 l 499 788 l 413 788 l 332 376 m 871 -67 l 815 -278 l 603 -278 l 706 -67 l 871 -67 z "},"ą":{"ha":833,"x_min":53,"x_max":767,"o":"m 53 167 l 53 444 l 533 458 l 533 583 l 81 583 l 81 778 l 600 778 l 767 611 l 767 0 l 219 0 l 53 167 m 286 317 l 286 186 l 533 186 l 533 344 l 286 317 m 743 -67 l 688 -278 l 475 -278 l 578 -67 l 743 -67 z "},"Ā":{"ha":911,"x_min":15,"x_max":896,"o":"m 15 0 l 229 972 l 682 972 l 896 0 l 649 0 l 608 208 l 303 208 l 263 0 l 15 0 m 332 376 l 579 376 l 499 788 l 413 788 l 332 376 m 219 1058 l 219 1208 l 692 1208 l 692 1058 l 219 1058 z "},"ā":{"ha":833,"x_min":53,"x_max":767,"o":"m 53 167 l 53 444 l 533 458 l 533 583 l 81 583 l 81 778 l 600 778 l 767 611 l 767 0 l 219 0 l 53 167 m 286 317 l 286 186 l 533 186 l 533 344 l 286 317 m 156 864 l 156 1014 l 628 1014 l 628 864 l 156 864 z "},"Ȁ":{"ha":911,"x_min":15,"x_max":896,"o":"m 15 0 l 229 972 l 682 972 l 896 0 l 649 0 l 608 208 l 303 208 l 263 0 l 15 0 m 332 376 l 579 376 l 499 788 l 413 788 l 332 376 m 596 1208 l 651 1025 l 510 1025 l 407 1208 l 596 1208 m 350 1208 l 433 1025 l 289 1025 l 161 1208 l 350 1208 z "},"ȁ":{"ha":833,"x_min":53,"x_max":767,"o":"m 53 167 l 53 444 l 533 458 l 533 583 l 81 583 l 81 778 l 600 778 l 767 611 l 767 0 l 219 0 l 53 167 m 286 317 l 286 186 l 533 186 l 533 344 l 286 317 m 532 1014 l 588 831 l 446 831 l 343 1014 l 532 1014 m 286 1014 l 369 831 l 225 831 l 97 1014 l 286 1014 z "},"Ȃ":{"ha":911,"x_min":15,"x_max":896,"o":"m 15 0 l 229 972 l 682 972 l 896 0 l 649 0 l 608 208 l 303 208 l 263 0 l 15 0 m 332 376 l 579 376 l 499 788 l 413 788 l 332 376 m 354 1026 l 161 1026 l 283 1218 l 628 1218 l 750 1026 l 557 1026 l 539 1107 l 372 1107 l 354 1026 z "},"ȃ":{"ha":833,"x_min":53,"x_max":767,"o":"m 53 167 l 53 444 l 533 458 l 533 583 l 81 583 l 81 778 l 600 778 l 767 611 l 767 0 l 219 0 l 53 167 m 286 317 l 286 186 l 533 186 l 533 344 l 286 317 m 290 832 l 97 832 l 219 1024 l 564 1024 l 686 832 l 493 832 l 475 913 l 308 913 l 290 832 z "},"Æ":{"ha":1226,"x_min":15,"x_max":1185,"o":"m 15 0 l 247 972 l 1171 972 l 1171 778 l 782 778 l 782 589 l 1101 589 l 1101 403 l 782 403 l 782 194 l 1185 194 l 1185 0 l 557 0 l 557 208 l 307 208 l 263 0 l 15 0 m 336 376 l 558 376 l 558 788 l 425 788 l 336 376 z "},"æ":{"ha":1264,"x_min":53,"x_max":1208,"o":"m 53 167 l 53 444 l 517 458 l 517 583 l 81 583 l 81 778 l 528 778 l 633 672 l 739 778 l 1208 778 l 1208 339 l 750 339 l 750 186 l 1181 186 l 1181 0 l 219 0 l 53 167 m 750 453 l 1008 467 l 1008 600 l 750 600 l 750 453 m 286 317 l 286 178 l 517 178 l 517 344 l 286 317 z "},"Ǽ":{"ha":1226,"x_min":15,"x_max":1185,"o":"m 15 0 l 247 972 l 1171 972 l 1171 778 l 782 778 l 782 589 l 1101 589 l 1101 403 l 782 403 l 782 194 l 1185 194 l 1185 0 l 557 0 l 557 208 l 307 208 l 263 0 l 15 0 m 336 376 l 558 376 l 558 788 l 425 788 l 336 376 m 533 1050 l 533 1167 l 978 1206 l 978 1050 l 533 1050 z "},"ǽ":{"ha":1264,"x_min":53,"x_max":1208,"o":"m 53 167 l 53 444 l 517 458 l 517 583 l 81 583 l 81 778 l 528 778 l 633 672 l 739 778 l 1208 778 l 1208 339 l 750 339 l 750 186 l 1181 186 l 1181 0 l 219 0 l 53 167 m 750 453 l 1008 467 l 1008 600 l 750 600 l 750 453 m 286 317 l 286 178 l 517 178 l 517 344 l 286 317 m 451 856 l 451 972 l 896 1011 l 896 856 l 451 856 z "},"Ḃ":{"ha":906,"x_min":67,"x_max":867,"o":"m 300 579 l 601 579 l 601 786 l 300 786 l 300 579 m 300 186 l 625 186 l 625 418 l 300 418 l 300 186 m 839 811 l 839 582 l 757 514 l 867 422 l 867 161 l 706 0 l 67 0 l 67 972 l 678 972 l 839 811 m 296 1044 l 296 1197 l 529 1197 l 529 1044 l 296 1044 z "},"ḃ":{"ha":861,"x_min":67,"x_max":806,"o":"m 67 0 l 67 972 l 300 972 l 300 778 l 631 778 l 806 603 l 806 175 l 631 0 l 67 0 m 300 194 l 572 194 l 572 583 l 300 583 l 300 194 m 256 1044 l 256 1197 l 489 1197 l 489 1044 l 256 1044 z "},"Ɓ":{"ha":1132,"x_min":14,"x_max":1093,"o":"m 211 786 l 211 600 l 14 600 l 14 822 l 164 972 l 904 972 l 1065 811 l 1065 582 l 983 514 l 1093 422 l 1093 161 l 932 0 l 301 0 l 301 786 l 211 786 m 535 579 l 828 579 l 828 786 l 535 786 l 535 579 m 535 186 l 851 186 l 851 418 l 535 418 l 535 186 z "},"ɓ":{"ha":861,"x_min":67,"x_max":806,"o":"m 300 194 l 572 194 l 572 542 l 300 542 l 300 194 m 67 0 l 67 814 l 225 972 l 442 972 l 442 794 l 300 794 l 300 711 l 631 711 l 806 536 l 806 175 l 631 0 l 67 0 z "},"Ć":{"ha":772,"x_min":63,"x_max":735,"o":"m 63 169 l 63 803 l 232 972 l 721 972 l 721 760 l 304 760 l 304 213 l 735 213 l 735 0 l 232 0 l 63 169 m 276 1050 l 276 1167 l 721 1206 l 721 1050 l 276 1050 z "},"ć":{"ha":736,"x_min":56,"x_max":708,"o":"m 56 158 l 56 619 l 214 778 l 703 778 l 703 567 l 289 567 l 289 211 l 703 211 l 703 0 l 214 0 l 56 158 m 264 856 l 264 972 l 708 1011 l 708 856 l 264 856 z "},"Ĉ":{"ha":772,"x_min":63,"x_max":735,"o":"m 63 169 l 63 803 l 232 972 l 721 972 l 721 760 l 304 760 l 304 213 l 735 213 l 735 0 l 232 0 l 63 169 m 193 1028 l 193 1172 l 457 1261 l 721 1172 l 721 1028 l 457 1117 l 193 1028 z "},"ĉ":{"ha":736,"x_min":56,"x_max":708,"o":"m 56 158 l 56 619 l 214 778 l 703 778 l 703 567 l 289 567 l 289 211 l 703 211 l 703 0 l 214 0 l 56 158 m 181 833 l 181 978 l 444 1067 l 708 978 l 708 833 l 444 922 l 181 833 z "},"Č":{"ha":772,"x_min":63,"x_max":735,"o":"m 63 169 l 63 803 l 232 972 l 721 972 l 721 760 l 304 760 l 304 213 l 735 213 l 735 0 l 232 0 l 63 169 m 721 1261 l 721 1117 l 457 1028 l 193 1117 l 193 1261 l 457 1172 l 721 1261 z "},"č":{"ha":736,"x_min":56,"x_max":708,"o":"m 56 158 l 56 619 l 214 778 l 703 778 l 703 567 l 289 567 l 289 211 l 703 211 l 703 0 l 214 0 l 56 158 m 708 1067 l 708 922 l 444 833 l 181 922 l 181 1067 l 444 978 l 708 1067 z "},"Ċ":{"ha":772,"x_min":63,"x_max":735,"o":"m 63 169 l 63 803 l 232 972 l 721 972 l 721 760 l 304 760 l 304 213 l 735 213 l 735 0 l 232 0 l 63 169 m 340 1044 l 340 1197 l 574 1197 l 574 1044 l 340 1044 z "},"ċ":{"ha":736,"x_min":56,"x_max":703,"o":"m 56 158 l 56 619 l 214 778 l 703 778 l 703 567 l 289 567 l 289 211 l 703 211 l 703 0 l 214 0 l 56 158 m 328 850 l 328 1003 l 561 1003 l 561 850 l 328 850 z "},"Ç":{"ha":772,"x_min":63,"x_max":735,"o":"m 63 169 l 63 803 l 232 972 l 721 972 l 721 760 l 304 760 l 304 213 l 735 213 l 735 0 l 232 0 l 63 169 m 307 -278 l 374 -75 l 586 -75 l 472 -278 l 307 -278 z "},"ç":{"ha":736,"x_min":56,"x_max":703,"o":"m 56 158 l 56 619 l 214 778 l 703 778 l 703 567 l 289 567 l 289 211 l 703 211 l 703 0 l 214 0 l 56 158 m 294 -278 l 361 -75 l 574 -75 l 460 -278 l 294 -278 z "},"Ď":{"ha":882,"x_min":67,"x_max":819,"o":"m 300 203 l 586 203 l 586 769 l 300 769 l 300 203 m 67 0 l 67 972 l 650 972 l 819 803 l 819 169 l 650 0 l 67 0 m 672 1261 l 672 1117 l 408 1028 l 144 1117 l 144 1261 l 408 1172 l 672 1261 z "},"ď":{"ha":947,"x_min":56,"x_max":947,"o":"m 794 972 l 794 0 l 231 0 l 56 175 l 56 603 l 231 778 l 561 778 l 561 972 l 794 972 m 289 194 l 561 194 l 561 583 l 289 583 l 289 194 m 861 650 l 861 972 l 947 972 l 947 650 l 861 650 z "},"Ḋ":{"ha":882,"x_min":67,"x_max":819,"o":"m 300 203 l 586 203 l 586 769 l 300 769 l 300 203 m 67 0 l 67 972 l 650 972 l 819 803 l 819 169 l 650 0 l 67 0 m 292 1044 l 292 1197 l 525 1197 l 525 1044 l 292 1044 z "},"ḋ":{"ha":861,"x_min":56,"x_max":794,"o":"m 794 972 l 794 0 l 231 0 l 56 175 l 56 603 l 231 778 l 561 778 l 561 972 l 794 972 m 289 194 l 561 194 l 561 583 l 289 583 l 289 194 m 372 1044 l 372 1197 l 606 1197 l 606 1044 l 372 1044 z "},"Ḑ":{"ha":882,"x_min":67,"x_max":819,"o":"m 300 203 l 586 203 l 586 769 l 300 769 l 300 203 m 67 0 l 67 972 l 650 972 l 819 803 l 819 169 l 650 0 l 67 0 m 258 -278 l 325 -75 l 538 -75 l 424 -278 l 258 -278 z "},"ḑ":{"ha":861,"x_min":56,"x_max":794,"o":"m 794 972 l 794 0 l 231 0 l 56 175 l 56 603 l 231 778 l 561 778 l 561 972 l 794 972 m 289 194 l 561 194 l 561 583 l 289 583 l 289 194 m 339 -278 l 406 -75 l 618 -75 l 504 -278 l 339 -278 z "},"Đ":{"ha":890,"x_min":14,"x_max":828,"o":"m 14 406 l 14 567 l 461 567 l 461 406 l 14 406 m 308 203 l 594 203 l 594 769 l 308 769 l 308 203 m 75 0 l 75 972 l 658 972 l 828 803 l 828 169 l 658 0 l 75 0 z "},"đ":{"ha":861,"x_min":56,"x_max":794,"o":"m 794 972 l 794 0 l 231 0 l 56 175 l 56 517 l 231 692 l 561 692 l 561 972 l 794 972 m 289 194 l 561 194 l 561 497 l 289 497 l 289 194 m 254 775 l 254 878 l 782 878 l 782 775 l 254 775 z "},"Ḍ":{"ha":882,"x_min":67,"x_max":819,"o":"m 300 203 l 586 203 l 586 769 l 300 769 l 300 203 m 67 0 l 67 972 l 650 972 l 819 803 l 819 169 l 650 0 l 67 0 m 292 -247 l 292 -94 l 525 -94 l 525 -247 l 292 -247 z "},"ḍ":{"ha":861,"x_min":56,"x_max":794,"o":"m 794 972 l 794 0 l 231 0 l 56 175 l 56 603 l 231 778 l 561 778 l 561 972 l 794 972 m 289 194 l 561 194 l 561 583 l 289 583 l 289 194 m 372 -247 l 372 -94 l 606 -94 l 606 -247 l 372 -247 z "},"Ð":{"ha":890,"x_min":14,"x_max":828,"o":"m 14 406 l 14 567 l 461 567 l 461 406 l 14 406 m 308 203 l 594 203 l 594 769 l 308 769 l 308 203 m 75 0 l 75 972 l 658 972 l 828 803 l 828 169 l 658 0 l 75 0 z "},"ð":{"ha":861,"x_min":56,"x_max":806,"o":"m 222 0 l 639 0 l 806 167 l 806 628 l 447 972 l 153 972 l 513 635 l 56 531 l 56 167 l 222 0 m 572 514 l 572 194 l 289 194 l 289 442 l 572 514 m 125 683 l 744 847 l 744 972 l 125 808 l 125 683 z "},"Ɖ":{"ha":890,"x_min":14,"x_max":828,"o":"m 14 406 l 14 567 l 461 567 l 461 406 l 14 406 m 308 203 l 594 203 l 594 769 l 308 769 l 308 203 m 75 0 l 75 972 l 658 972 l 828 803 l 828 169 l 658 0 l 75 0 z "},"ɖ":{"ha":861,"x_min":56,"x_max":867,"o":"m 794 8 l 867 8 l 867 -194 l 686 -194 l 561 -69 l 561 0 l 231 0 l 56 175 l 56 603 l 231 778 l 561 778 l 561 972 l 794 972 l 794 8 m 289 583 l 289 194 l 561 194 l 561 583 l 289 583 z "},"Ɗ":{"ha":1117,"x_min":14,"x_max":1054,"o":"m 211 786 l 211 600 l 14 600 l 14 822 l 164 972 l 885 972 l 1054 803 l 1054 169 l 885 0 l 301 0 l 301 786 l 211 786 m 535 203 l 821 203 l 821 769 l 535 769 l 535 203 z "},"ɗ":{"ha":861,"x_min":56,"x_max":878,"o":"m 289 194 l 561 194 l 561 583 l 289 583 l 289 194 m 56 175 l 56 603 l 231 778 l 561 778 l 561 861 l 672 972 l 878 972 l 878 794 l 794 794 l 794 0 l 231 0 l 56 175 z "},"É":{"ha":806,"x_min":67,"x_max":764,"o":"m 67 0 l 67 972 l 750 972 l 750 778 l 300 778 l 300 589 l 681 589 l 681 403 l 300 403 l 300 194 l 764 194 l 764 0 l 67 0 m 235 1050 l 235 1167 l 679 1206 l 679 1050 l 235 1050 z "},"é":{"ha":819,"x_min":56,"x_max":764,"o":"m 56 158 l 56 619 l 214 778 l 764 778 l 764 339 l 289 339 l 289 194 l 736 194 l 736 0 l 214 0 l 56 158 m 289 453 l 567 467 l 567 600 l 289 600 l 289 453 m 250 856 l 250 972 l 694 1011 l 694 856 l 250 856 z "},"È":{"ha":806,"x_min":67,"x_max":764,"o":"m 67 0 l 67 972 l 750 972 l 750 778 l 300 778 l 300 589 l 681 589 l 681 403 l 300 403 l 300 194 l 764 194 l 764 0 l 67 0 m 596 1050 l 151 1050 l 151 1206 l 596 1167 l 596 1050 z "},"è":{"ha":819,"x_min":56,"x_max":764,"o":"m 56 158 l 56 619 l 214 778 l 764 778 l 764 339 l 289 339 l 289 194 l 736 194 l 736 0 l 214 0 l 56 158 m 289 453 l 567 467 l 567 600 l 289 600 l 289 453 m 611 856 l 167 856 l 167 1011 l 611 972 l 611 856 z "},"Ĕ":{"ha":806,"x_min":67,"x_max":764,"o":"m 67 0 l 67 972 l 750 972 l 750 778 l 300 778 l 300 589 l 681 589 l 681 403 l 300 403 l 300 194 l 764 194 l 764 0 l 67 0 m 517 1228 l 710 1228 l 588 1036 l 243 1036 l 121 1228 l 314 1228 l 332 1147 l 499 1147 l 517 1228 z "},"ĕ":{"ha":819,"x_min":56,"x_max":764,"o":"m 56 158 l 56 619 l 214 778 l 764 778 l 764 339 l 289 339 l 289 194 l 736 194 l 736 0 l 214 0 l 56 158 m 289 453 l 567 467 l 567 600 l 289 600 l 289 453 m 532 1033 l 725 1033 l 603 842 l 258 842 l 136 1033 l 329 1033 l 347 953 l 514 953 l 532 1033 z "},"Ê":{"ha":806,"x_min":67,"x_max":764,"o":"m 67 0 l 67 972 l 750 972 l 750 778 l 300 778 l 300 589 l 681 589 l 681 403 l 300 403 l 300 194 l 764 194 l 764 0 l 67 0 m 151 1028 l 151 1172 l 415 1261 l 679 1172 l 679 1028 l 415 1117 l 151 1028 z "},"ê":{"ha":819,"x_min":56,"x_max":764,"o":"m 56 158 l 56 619 l 214 778 l 764 778 l 764 339 l 289 339 l 289 194 l 736 194 l 736 0 l 214 0 l 56 158 m 289 453 l 567 467 l 567 600 l 289 600 l 289 453 m 167 833 l 167 978 l 431 1067 l 694 978 l 694 833 l 431 922 l 167 833 z "},"Ě":{"ha":806,"x_min":67,"x_max":764,"o":"m 67 0 l 67 972 l 750 972 l 750 778 l 300 778 l 300 589 l 681 589 l 681 403 l 300 403 l 300 194 l 764 194 l 764 0 l 67 0 m 679 1261 l 679 1117 l 415 1028 l 151 1117 l 151 1261 l 415 1172 l 679 1261 z "},"ě":{"ha":819,"x_min":56,"x_max":764,"o":"m 56 158 l 56 619 l 214 778 l 764 778 l 764 339 l 289 339 l 289 194 l 736 194 l 736 0 l 214 0 l 56 158 m 289 453 l 567 467 l 567 600 l 289 600 l 289 453 m 694 1067 l 694 922 l 431 833 l 167 922 l 167 1067 l 431 978 l 694 1067 z "},"Ë":{"ha":806,"x_min":67,"x_max":764,"o":"m 67 0 l 67 972 l 750 972 l 750 778 l 300 778 l 300 589 l 681 589 l 681 403 l 300 403 l 300 194 l 764 194 l 764 0 l 67 0 m 138 1044 l 138 1197 l 354 1197 l 354 1044 l 138 1044 m 476 1044 l 476 1197 l 693 1197 l 693 1044 l 476 1044 z "},"ë":{"ha":819,"x_min":56,"x_max":764,"o":"m 56 158 l 56 619 l 214 778 l 764 778 l 764 339 l 289 339 l 289 194 l 736 194 l 736 0 l 214 0 l 56 158 m 289 453 l 567 467 l 567 600 l 289 600 l 289 453 m 153 850 l 153 1003 l 369 1003 l 369 850 l 153 850 m 492 850 l 492 1003 l 708 1003 l 708 850 l 492 850 z "},"Ė":{"ha":806,"x_min":67,"x_max":764,"o":"m 67 0 l 67 972 l 750 972 l 750 778 l 300 778 l 300 589 l 681 589 l 681 403 l 300 403 l 300 194 l 764 194 l 764 0 l 67 0 m 299 1044 l 299 1197 l 532 1197 l 532 1044 l 299 1044 z "},"ė":{"ha":819,"x_min":56,"x_max":764,"o":"m 56 158 l 56 619 l 214 778 l 764 778 l 764 339 l 289 339 l 289 194 l 736 194 l 736 0 l 214 0 l 56 158 m 289 453 l 567 467 l 567 600 l 289 600 l 289 453 m 314 850 l 314 1003 l 547 1003 l 547 850 l 314 850 z "},"Ę":{"ha":806,"x_min":67,"x_max":764,"o":"m 67 0 l 67 972 l 750 972 l 750 778 l 300 778 l 300 589 l 681 589 l 681 403 l 300 403 l 300 194 l 764 194 l 764 0 l 67 0 m 690 -67 l 635 -278 l 422 -278 l 525 -67 l 690 -67 z "},"ę":{"ha":819,"x_min":56,"x_max":764,"o":"m 56 158 l 56 619 l 214 778 l 764 778 l 764 339 l 289 339 l 289 194 l 736 194 l 736 0 l 214 0 l 56 158 m 289 453 l 567 467 l 567 600 l 289 600 l 289 453 m 701 -67 l 646 -278 l 433 -278 l 536 -67 l 701 -67 z "},"Ē":{"ha":806,"x_min":67,"x_max":764,"o":"m 67 0 l 67 972 l 750 972 l 750 778 l 300 778 l 300 589 l 681 589 l 681 403 l 300 403 l 300 194 l 764 194 l 764 0 l 67 0 m 179 1058 l 179 1208 l 651 1208 l 651 1058 l 179 1058 z "},"ē":{"ha":819,"x_min":56,"x_max":764,"o":"m 56 158 l 56 619 l 214 778 l 764 778 l 764 339 l 289 339 l 289 194 l 736 194 l 736 0 l 214 0 l 56 158 m 289 453 l 567 467 l 567 600 l 289 600 l 289 453 m 194 864 l 194 1014 l 667 1014 l 667 864 l 194 864 z "},"Ȅ":{"ha":806,"x_min":67,"x_max":764,"o":"m 67 0 l 67 972 l 750 972 l 750 778 l 300 778 l 300 589 l 681 589 l 681 403 l 300 403 l 300 194 l 764 194 l 764 0 l 67 0 m 556 1208 l 611 1025 l 469 1025 l 367 1208 l 556 1208 m 310 1208 l 393 1025 l 249 1025 l 121 1208 l 310 1208 z "},"ȅ":{"ha":819,"x_min":56,"x_max":764,"o":"m 56 158 l 56 619 l 214 778 l 764 778 l 764 339 l 289 339 l 289 194 l 736 194 l 736 0 l 214 0 l 56 158 m 289 453 l 567 467 l 567 600 l 289 600 l 289 453 m 571 1014 l 626 831 l 485 831 l 382 1014 l 571 1014 m 325 1014 l 408 831 l 264 831 l 136 1014 l 325 1014 z "},"Ȇ":{"ha":806,"x_min":67,"x_max":764,"o":"m 67 0 l 67 972 l 750 972 l 750 778 l 300 778 l 300 589 l 681 589 l 681 403 l 300 403 l 300 194 l 764 194 l 764 0 l 67 0 m 314 1026 l 121 1026 l 243 1218 l 588 1218 l 710 1026 l 517 1026 l 499 1107 l 332 1107 l 314 1026 z "},"ȇ":{"ha":819,"x_min":56,"x_max":764,"o":"m 56 158 l 56 619 l 214 778 l 764 778 l 764 339 l 289 339 l 289 194 l 736 194 l 736 0 l 214 0 l 56 158 m 289 453 l 567 467 l 567 600 l 289 600 l 289 453 m 329 832 l 136 832 l 258 1024 l 603 1024 l 725 832 l 532 832 l 514 913 l 347 913 l 329 832 z "},"Ə":{"ha":903,"x_min":63,"x_max":840,"o":"m 840 811 l 840 161 l 679 0 l 224 0 l 63 161 l 63 594 l 607 594 l 607 778 l 90 778 l 90 972 l 679 972 l 840 811 m 607 447 l 296 433 l 296 194 l 607 194 l 607 447 z "},"ə":{"ha":819,"x_min":56,"x_max":764,"o":"m 764 617 l 764 161 l 603 0 l 217 0 l 56 161 l 56 439 l 531 439 l 531 583 l 83 583 l 83 778 l 603 778 l 764 617 m 531 325 l 264 311 l 264 178 l 531 178 l 531 325 z "},"Ɛ":{"ha":864,"x_min":39,"x_max":822,"o":"m 200 0 l 39 161 l 39 417 l 154 508 l 67 576 l 67 811 l 228 972 l 808 972 l 808 778 l 307 778 l 307 589 l 739 589 l 739 403 l 279 403 l 279 194 l 822 194 l 822 0 l 200 0 z "},"ɛ":{"ha":811,"x_min":47,"x_max":767,"o":"m 183 0 l 47 136 l 47 317 l 163 408 l 75 476 l 75 650 l 203 778 l 753 778 l 753 600 l 318 600 l 318 468 l 706 468 l 706 315 l 290 315 l 290 178 l 767 178 l 767 0 l 183 0 z "},"Ḟ":{"ha":775,"x_min":67,"x_max":733,"o":"m 67 0 l 67 972 l 733 972 l 733 761 l 300 761 l 300 506 l 706 506 l 706 303 l 300 303 l 300 0 l 67 0 m 271 1044 l 271 1197 l 504 1197 l 504 1044 l 271 1044 z "},"ḟ":{"ha":603,"x_min":67,"x_max":575,"o":"m 67 0 l 67 814 l 225 972 l 575 972 l 575 769 l 300 769 l 300 597 l 575 597 l 575 403 l 300 403 l 300 0 l 67 0 m 200 1044 l 200 1197 l 433 1197 l 433 1044 l 200 1044 z "},"Ƒ":{"ha":775,"x_min":-6,"x_max":733,"o":"m -6 0 l -6 203 l 67 203 l 67 972 l 733 972 l 733 761 l 300 761 l 300 522 l 706 522 l 706 319 l 300 319 l 300 136 l 164 0 l -6 0 z "},"ƒ":{"ha":603,"x_min":-11,"x_max":575,"o":"m -11 -194 l -11 8 l 61 8 l 61 814 l 219 972 l 575 972 l 575 769 l 294 769 l 294 567 l 575 567 l 575 372 l 294 372 l 294 -36 l 136 -194 l -11 -194 z "},"Ǵ":{"ha":894,"x_min":63,"x_max":832,"o":"m 63 169 l 63 803 l 232 972 l 774 972 l 774 769 l 296 769 l 296 203 l 626 203 l 626 403 l 424 403 l 424 588 l 832 588 l 832 0 l 232 0 l 63 169 m 292 1050 l 292 1167 l 736 1206 l 736 1050 l 292 1050 z "},"ǵ":{"ha":847,"x_min":56,"x_max":781,"o":"m 100 -194 l 100 0 l 547 0 l 547 111 l 214 111 l 56 269 l 56 619 l 219 778 l 781 778 l 781 -6 l 592 -194 l 100 -194 m 289 583 l 289 297 l 547 297 l 547 583 l 289 583 m 261 856 l 261 972 l 706 1011 l 706 856 l 261 856 z "},"Ğ":{"ha":894,"x_min":63,"x_max":832,"o":"m 63 169 l 63 803 l 232 972 l 774 972 l 774 769 l 296 769 l 296 203 l 626 203 l 626 403 l 424 403 l 424 588 l 832 588 l 832 0 l 232 0 l 63 169 m 574 1228 l 767 1228 l 644 1036 l 300 1036 l 178 1228 l 371 1228 l 389 1147 l 556 1147 l 574 1228 z "},"ğ":{"ha":847,"x_min":56,"x_max":781,"o":"m 100 -194 l 100 0 l 547 0 l 547 111 l 214 111 l 56 269 l 56 619 l 219 778 l 781 778 l 781 -6 l 592 -194 l 100 -194 m 289 583 l 289 297 l 547 297 l 547 583 l 289 583 m 543 1033 l 736 1033 l 614 842 l 269 842 l 147 1033 l 340 1033 l 358 953 l 525 953 l 543 1033 z "},"Ĝ":{"ha":894,"x_min":63,"x_max":832,"o":"m 63 169 l 63 803 l 232 972 l 774 972 l 774 769 l 296 769 l 296 203 l 626 203 l 626 403 l 424 403 l 424 588 l 832 588 l 832 0 l 232 0 l 63 169 m 208 1028 l 208 1172 l 472 1261 l 736 1172 l 736 1028 l 472 1117 l 208 1028 z "},"ĝ":{"ha":847,"x_min":56,"x_max":781,"o":"m 100 -194 l 100 0 l 547 0 l 547 111 l 214 111 l 56 269 l 56 619 l 219 778 l 781 778 l 781 -6 l 592 -194 l 100 -194 m 289 583 l 289 297 l 547 297 l 547 583 l 289 583 m 178 833 l 178 978 l 442 1067 l 706 978 l 706 833 l 442 922 l 178 833 z "},"Ǧ":{"ha":894,"x_min":63,"x_max":832,"o":"m 63 169 l 63 803 l 232 972 l 774 972 l 774 769 l 296 769 l 296 203 l 626 203 l 626 403 l 424 403 l 424 588 l 832 588 l 832 0 l 232 0 l 63 169 m 736 1261 l 736 1117 l 472 1028 l 208 1117 l 208 1261 l 472 1172 l 736 1261 z "},"ǧ":{"ha":847,"x_min":56,"x_max":781,"o":"m 100 -194 l 100 0 l 547 0 l 547 111 l 214 111 l 56 269 l 56 619 l 219 778 l 781 778 l 781 -6 l 592 -194 l 100 -194 m 289 583 l 289 297 l 547 297 l 547 583 l 289 583 m 706 1067 l 706 922 l 442 833 l 178 922 l 178 1067 l 442 978 l 706 1067 z "},"Ġ":{"ha":894,"x_min":63,"x_max":832,"o":"m 63 169 l 63 803 l 232 972 l 774 972 l 774 769 l 296 769 l 296 203 l 626 203 l 626 403 l 424 403 l 424 588 l 832 588 l 832 0 l 232 0 l 63 169 m 356 1044 l 356 1197 l 589 1197 l 589 1044 l 356 1044 z "},"ġ":{"ha":847,"x_min":56,"x_max":781,"o":"m 100 -194 l 100 0 l 547 0 l 547 111 l 214 111 l 56 269 l 56 619 l 219 778 l 781 778 l 781 -6 l 592 -194 l 100 -194 m 289 583 l 289 297 l 547 297 l 547 583 l 289 583 m 325 850 l 325 1003 l 558 1003 l 558 850 l 325 850 z "},"Ģ":{"ha":894,"x_min":63,"x_max":832,"o":"m 63 169 l 63 803 l 232 972 l 774 972 l 774 769 l 296 769 l 296 203 l 626 203 l 626 403 l 424 403 l 424 588 l 832 588 l 832 0 l 232 0 l 63 169 m 322 -278 l 389 -75 l 601 -75 l 488 -278 l 322 -278 z "},"ģ":{"ha":847,"x_min":56,"x_max":781,"o":"m 100 -194 l 100 0 l 547 0 l 547 111 l 214 111 l 56 269 l 56 619 l 219 778 l 781 778 l 781 -6 l 592 -194 l 100 -194 m 289 583 l 289 297 l 547 297 l 547 583 l 289 583 m 589 1047 l 522 844 l 310 844 l 424 1047 l 589 1047 z "},"Ǥ":{"ha":889,"x_min":63,"x_max":876,"o":"m 63 169 l 63 803 l 232 972 l 763 972 l 763 761 l 296 761 l 296 203 l 618 203 l 618 443 l 415 443 l 415 588 l 826 588 l 826 0 l 232 0 l 63 169 m 415 286 l 415 392 l 876 392 l 876 286 l 415 286 z "},"ǥ":{"ha":847,"x_min":56,"x_max":840,"o":"m 100 -194 l 100 -8 l 547 -8 l 547 203 l 158 203 l 56 306 l 56 619 l 219 778 l 781 778 l 781 -6 l 592 -194 l 100 -194 m 289 583 l 289 333 l 547 333 l 547 583 l 289 583 m 144 50 l 144 147 l 840 147 l 840 50 l 144 50 z "},"Ɠ":{"ha":889,"x_min":63,"x_max":856,"o":"m 232 0 l 63 169 l 63 803 l 232 972 l 557 972 l 557 1058 l 676 1178 l 856 1178 l 856 975 l 763 975 l 763 761 l 296 761 l 296 211 l 618 211 l 618 401 l 424 401 l 424 588 l 826 588 l 826 0 l 232 0 z "},"ɠ":{"ha":847,"x_min":56,"x_max":856,"o":"m 289 297 l 547 297 l 547 583 l 289 583 l 289 297 m 100 -194 l 100 0 l 547 0 l 547 111 l 214 111 l 56 269 l 56 619 l 219 778 l 547 778 l 547 861 l 658 972 l 856 972 l 856 794 l 772 794 l 772 -6 l 583 -194 l 100 -194 z "},"Ɣ":{"ha":872,"x_min":7,"x_max":865,"o":"m 235 0 l 76 158 l 76 396 l 268 589 l 7 972 l 283 972 l 429 692 l 443 692 l 589 972 l 865 972 l 604 589 l 796 396 l 796 158 l 638 0 l 235 0 m 301 194 l 571 194 l 571 354 l 436 486 l 301 354 l 301 194 z "},"ɣ":{"ha":844,"x_min":4,"x_max":840,"o":"m 249 -194 l 90 -36 l 90 200 l 256 394 l 4 778 l 279 778 l 415 497 l 429 497 l 565 778 l 840 778 l 589 394 l 754 200 l 754 -36 l 596 -194 l 249 -194 m 315 0 l 529 0 l 529 164 l 422 292 l 315 164 l 315 0 z "},"Ĥ":{"ha":914,"x_min":67,"x_max":847,"o":"m 67 0 l 67 972 l 300 972 l 300 606 l 614 606 l 614 972 l 847 972 l 847 0 l 614 0 l 614 394 l 300 394 l 300 0 l 67 0 m 193 1028 l 193 1172 l 457 1261 l 721 1172 l 721 1028 l 457 1117 l 193 1028 z "},"ĥ":{"ha":861,"x_min":67,"x_max":794,"o":"m 67 0 l 67 972 l 300 972 l 300 778 l 628 778 l 794 611 l 794 0 l 561 0 l 561 583 l 300 583 l 300 0 l 67 0 m 86 1028 l 86 1172 l 350 1261 l 614 1172 l 614 1028 l 350 1117 l 86 1028 z "},"Ȟ":{"ha":914,"x_min":67,"x_max":847,"o":"m 67 0 l 67 972 l 300 972 l 300 606 l 614 606 l 614 972 l 847 972 l 847 0 l 614 0 l 614 394 l 300 394 l 300 0 l 67 0 m 721 1261 l 721 1117 l 457 1028 l 193 1117 l 193 1261 l 457 1172 l 721 1261 z "},"ȟ":{"ha":861,"x_min":67,"x_max":794,"o":"m 67 0 l 67 972 l 300 972 l 300 778 l 628 778 l 794 611 l 794 0 l 561 0 l 561 583 l 300 583 l 300 0 l 67 0 m 614 1261 l 614 1117 l 350 1028 l 86 1117 l 86 1261 l 350 1172 l 614 1261 z "},"Ħ":{"ha":903,"x_min":7,"x_max":896,"o":"m 7 739 l 7 844 l 896 844 l 896 739 l 7 739 m 67 0 l 67 972 l 300 972 l 300 606 l 614 606 l 614 972 l 847 972 l 847 0 l 614 0 l 614 394 l 300 394 l 300 0 l 67 0 z "},"ħ":{"ha":861,"x_min":67,"x_max":794,"o":"m 67 0 l 67 972 l 300 972 l 300 692 l 628 692 l 794 525 l 794 0 l 561 0 l 561 497 l 300 497 l 300 0 l 67 0 m 79 775 l 79 878 l 607 878 l 607 775 l 79 775 z "},"Ḥ":{"ha":914,"x_min":67,"x_max":847,"o":"m 67 0 l 67 972 l 300 972 l 300 606 l 614 606 l 614 972 l 847 972 l 847 0 l 614 0 l 614 394 l 300 394 l 300 0 l 67 0 m 340 -247 l 340 -94 l 574 -94 l 574 -247 l 340 -247 z "},"ḥ":{"ha":861,"x_min":67,"x_max":794,"o":"m 67 0 l 67 972 l 300 972 l 300 778 l 628 778 l 794 611 l 794 0 l 561 0 l 561 583 l 300 583 l 300 0 l 67 0 m 314 -247 l 314 -94 l 547 -94 l 547 -247 l 314 -247 z "},"Í":{"ha":597,"x_min":63,"x_max":563,"o":"m 63 -6 l 63 176 l 182 183 l 182 789 l 63 796 l 63 978 l 299 967 l 535 978 l 535 796 l 415 789 l 415 183 l 535 176 l 535 -6 l 299 6 l 63 -6 m 118 1050 l 118 1167 l 563 1206 l 563 1050 l 118 1050 z "},"í":{"ha":367,"x_min":58,"x_max":356,"o":"m 67 0 l 67 778 l 300 778 l 300 0 l 67 0 m 58 831 l 58 949 l 356 1011 l 356 856 l 58 831 z "},"Ì":{"ha":597,"x_min":35,"x_max":535,"o":"m 63 -6 l 63 176 l 182 183 l 182 789 l 63 796 l 63 978 l 299 967 l 535 978 l 535 796 l 415 789 l 415 183 l 535 176 l 535 -6 l 299 6 l 63 -6 m 479 1050 l 35 1050 l 35 1206 l 479 1167 l 479 1050 z "},"ì":{"ha":367,"x_min":11,"x_max":308,"o":"m 67 0 l 67 778 l 300 778 l 300 0 l 67 0 m 308 831 l 11 856 l 11 1011 l 308 949 l 308 831 z "},"Ĭ":{"ha":597,"x_min":4,"x_max":593,"o":"m 63 -6 l 63 176 l 182 183 l 182 789 l 63 796 l 63 978 l 299 967 l 535 978 l 535 796 l 415 789 l 415 183 l 535 176 l 535 -6 l 299 6 l 63 -6 m 400 1228 l 593 1228 l 471 1036 l 126 1036 l 4 1228 l 197 1228 l 215 1147 l 382 1147 l 400 1228 z "},"ĭ":{"ha":367,"x_min":-111,"x_max":478,"o":"m 67 0 l 67 778 l 300 778 l 300 0 l 67 0 m 285 1033 l 478 1033 l 356 842 l 11 842 l -111 1033 l 82 1033 l 100 953 l 267 953 l 285 1033 z "},"Î":{"ha":597,"x_min":35,"x_max":563,"o":"m 63 -6 l 63 176 l 182 183 l 182 789 l 63 796 l 63 978 l 299 967 l 535 978 l 535 796 l 415 789 l 415 183 l 535 176 l 535 -6 l 299 6 l 63 -6 m 35 1028 l 35 1172 l 299 1261 l 563 1172 l 563 1028 l 299 1117 l 35 1028 z "},"î":{"ha":367,"x_min":-81,"x_max":447,"o":"m 67 0 l 67 778 l 300 778 l 300 0 l 67 0 m -81 833 l -81 978 l 183 1067 l 447 978 l 447 833 l 183 922 l -81 833 z "},"Ǐ":{"ha":597,"x_min":35,"x_max":563,"o":"m 63 -6 l 63 176 l 182 183 l 182 789 l 63 796 l 63 978 l 299 967 l 535 978 l 535 796 l 415 789 l 415 183 l 535 176 l 535 -6 l 299 6 l 63 -6 m 563 1261 l 563 1117 l 299 1028 l 35 1117 l 35 1261 l 299 1172 l 563 1261 z "},"ǐ":{"ha":367,"x_min":-81,"x_max":447,"o":"m 67 0 l 67 778 l 300 778 l 300 0 l 67 0 m 447 1067 l 447 922 l 183 833 l -81 922 l -81 1067 l 183 978 l 447 1067 z "},"Ï":{"ha":597,"x_min":21,"x_max":576,"o":"m 63 -6 l 63 176 l 182 183 l 182 789 l 63 796 l 63 978 l 299 967 l 535 978 l 535 796 l 415 789 l 415 183 l 535 176 l 535 -6 l 299 6 l 63 -6 m 21 1044 l 21 1197 l 238 1197 l 238 1044 l 21 1044 m 360 1044 l 360 1197 l 576 1197 l 576 1044 l 360 1044 z "},"ï":{"ha":367,"x_min":-19,"x_max":386,"o":"m 67 0 l 67 778 l 300 778 l 300 0 l 67 0 m -19 850 l -19 1003 l 147 1003 l 147 850 l -19 850 m 219 850 l 219 1003 l 386 1003 l 386 850 l 219 850 z "},"Ĩ":{"ha":597,"x_min":7,"x_max":590,"o":"m 63 -6 l 63 176 l 182 183 l 182 789 l 63 796 l 63 978 l 299 967 l 535 978 l 535 796 l 415 789 l 415 183 l 535 176 l 535 -6 l 299 6 l 63 -6 m 35 1014 l 7 1146 l 146 1235 l 429 1168 l 563 1236 l 590 1104 l 451 1015 l 168 1082 l 35 1014 z "},"ĩ":{"ha":367,"x_min":-17,"x_max":389,"o":"m 67 0 l 67 778 l 300 778 l 300 0 l 67 0 m -17 814 l -17 953 l 89 1035 l 286 968 l 389 1036 l 389 897 l 283 815 l 86 882 l -17 814 z "},"İ":{"ha":597,"x_min":63,"x_max":535,"o":"m 63 -6 l 63 176 l 182 183 l 182 789 l 63 796 l 63 978 l 299 967 l 535 978 l 535 796 l 415 789 l 415 183 l 535 176 l 535 -6 l 299 6 l 63 -6 m 182 1044 l 182 1197 l 415 1197 l 415 1044 l 182 1044 z "},"ı":{"ha":367,"x_min":67,"x_max":300,"o":"m 67 0 l 67 778 l 300 778 l 300 0 l 67 0 z "},"Į":{"ha":597,"x_min":63,"x_max":535,"o":"m 63 -6 l 63 176 l 182 183 l 182 789 l 63 796 l 63 978 l 299 967 l 535 978 l 535 796 l 415 789 l 415 183 l 535 176 l 535 -6 l 299 6 l 63 -6 m 406 -67 l 350 -278 l 138 -278 l 240 -67 l 406 -67 z "},"į":{"ha":367,"x_min":22,"x_max":300,"o":"m 67 0 l 67 778 l 300 778 l 300 0 l 67 0 m 67 850 l 67 1003 l 300 1003 l 300 850 l 67 850 m 290 -67 l 235 -278 l 22 -278 l 125 -67 l 290 -67 z "},"Ī":{"ha":597,"x_min":63,"x_max":535,"o":"m 63 -6 l 63 176 l 182 183 l 182 789 l 63 796 l 63 978 l 299 967 l 535 978 l 535 796 l 415 789 l 415 183 l 535 176 l 535 -6 l 299 6 l 63 -6 m 63 1058 l 63 1208 l 535 1208 l 535 1058 l 63 1058 z "},"ī":{"ha":367,"x_min":-11,"x_max":378,"o":"m -11 864 l -11 1014 l 378 1014 l 378 864 l -11 864 m 67 0 l 67 778 l 300 778 l 300 0 l 67 0 z "},"Ȉ":{"ha":597,"x_min":4,"x_max":535,"o":"m 63 -6 l 63 176 l 182 183 l 182 789 l 63 796 l 63 978 l 299 967 l 535 978 l 535 796 l 415 789 l 415 183 l 535 176 l 535 -6 l 299 6 l 63 -6 m 439 1208 l 494 1025 l 353 1025 l 250 1208 l 439 1208 m 193 1208 l 276 1025 l 132 1025 l 4 1208 l 193 1208 z "},"ȉ":{"ha":367,"x_min":-111,"x_max":379,"o":"m 67 0 l 67 778 l 300 778 l 300 0 l 67 0 m 324 1014 l 379 831 l 238 831 l 135 1014 l 324 1014 m 78 1014 l 161 831 l 17 831 l -111 1014 l 78 1014 z "},"Ȋ":{"ha":597,"x_min":4,"x_max":593,"o":"m 63 -6 l 63 176 l 182 183 l 182 789 l 63 796 l 63 978 l 299 967 l 535 978 l 535 796 l 415 789 l 415 183 l 535 176 l 535 -6 l 299 6 l 63 -6 m 197 1026 l 4 1026 l 126 1218 l 471 1218 l 593 1026 l 400 1026 l 382 1107 l 215 1107 l 197 1026 z "},"ȋ":{"ha":367,"x_min":-111,"x_max":478,"o":"m 67 0 l 67 778 l 300 778 l 300 0 l 67 0 m 82 832 l -111 832 l 11 1024 l 356 1024 l 478 832 l 285 832 l 267 913 l 100 913 l 82 832 z "},"Ĳ":{"ha":1300,"x_min":63,"x_max":1238,"o":"m 63 -6 l 63 176 l 157 183 l 157 789 l 63 796 l 63 978 l 274 967 l 485 978 l 485 796 l 390 789 l 390 183 l 485 176 l 485 -6 l 274 6 l 63 -6 m 554 167 l 554 458 l 779 458 l 779 211 l 1004 211 l 1004 769 l 588 769 l 588 972 l 1238 972 l 1238 175 l 1063 0 l 721 0 l 554 167 z "},"ĳ":{"ha":733,"x_min":67,"x_max":667,"o":"m 67 0 l 67 778 l 300 778 l 300 0 l 67 0 m 67 850 l 67 1003 l 300 1003 l 300 850 l 67 850 m 433 -194 l 433 778 l 667 778 l 667 -194 l 433 -194 m 433 850 l 433 1003 l 667 1003 l 667 850 l 433 850 z "},"Ɨ":{"ha":597,"x_min":63,"x_max":535,"o":"m 63 -6 l 63 176 l 182 183 l 182 789 l 63 796 l 63 978 l 299 967 l 535 978 l 535 796 l 415 789 l 415 183 l 535 176 l 535 -6 l 299 6 l 63 -6 m 76 418 l 76 554 l 521 554 l 521 418 l 76 418 z "},"ɨ":{"ha":367,"x_min":14,"x_max":353,"o":"m 14 353 l 14 486 l 353 486 l 353 353 l 14 353 m 67 0 l 67 778 l 300 778 l 300 0 l 67 0 m 67 850 l 67 1003 l 300 1003 l 300 850 l 67 850 z "},"Ĵ":{"ha":833,"x_min":35,"x_max":771,"o":"m 35 175 l 35 458 l 268 458 l 268 211 l 538 211 l 538 769 l 79 769 l 79 972 l 771 972 l 771 175 l 596 0 l 210 0 l 35 175 m 147 1028 l 147 1172 l 411 1261 l 675 1172 l 675 1028 l 411 1117 l 147 1028 z "},"ĵ":{"ha":367,"x_min":-81,"x_max":447,"o":"m 67 -194 l 67 778 l 300 778 l 300 -194 l 67 -194 m -81 833 l -81 978 l 183 1067 l 447 978 l 447 833 l 183 922 l -81 833 z "},"ȷ":{"ha":367,"x_min":67,"x_max":300,"o":"m 67 -194 l 67 778 l 300 778 l 300 -194 l 67 -194 z "},"Ǩ":{"ha":908,"x_min":67,"x_max":906,"o":"m 67 0 l 67 972 l 300 972 l 300 594 l 439 594 l 626 972 l 885 972 l 643 514 l 906 0 l 644 0 l 450 392 l 300 392 l 300 0 l 67 0 m 710 1261 l 710 1117 l 446 1028 l 182 1117 l 182 1261 l 446 1172 l 710 1261 z "},"ǩ":{"ha":850,"x_min":67,"x_max":844,"o":"m 67 0 l 67 972 l 300 972 l 300 501 l 433 501 l 569 778 l 831 778 l 625 418 l 844 0 l 581 0 l 440 307 l 300 307 l 300 0 l 67 0 m 636 1261 l 636 1117 l 372 1028 l 108 1117 l 108 1261 l 372 1172 l 636 1261 z "},"Ķ":{"ha":908,"x_min":67,"x_max":906,"o":"m 67 0 l 67 972 l 300 972 l 300 594 l 439 594 l 626 972 l 885 972 l 643 514 l 906 0 l 644 0 l 450 392 l 300 392 l 300 0 l 67 0 m 296 -278 l 363 -75 l 575 -75 l 461 -278 l 296 -278 z "},"ķ":{"ha":850,"x_min":67,"x_max":844,"o":"m 67 0 l 67 972 l 300 972 l 300 501 l 433 501 l 569 778 l 831 778 l 625 418 l 844 0 l 581 0 l 440 307 l 300 307 l 300 0 l 67 0 m 271 -278 l 338 -75 l 550 -75 l 436 -278 l 271 -278 z "},"Ƙ":{"ha":906,"x_min":67,"x_max":903,"o":"m 67 0 l 67 972 l 300 972 l 300 594 l 467 594 l 565 883 l 654 972 l 903 972 l 903 769 l 760 769 l 672 522 l 903 0 l 639 0 l 474 392 l 300 392 l 300 0 l 67 0 z "},"ƙ":{"ha":861,"x_min":67,"x_max":856,"o":"m 67 0 l 67 814 l 225 972 l 442 972 l 442 794 l 300 794 l 300 501 l 440 501 l 585 778 l 846 778 l 636 418 l 856 0 l 592 0 l 451 307 l 300 307 l 300 0 l 67 0 z "},"Ĺ":{"ha":804,"x_min":67,"x_max":767,"o":"m 67 0 l 67 972 l 300 972 l 300 194 l 561 194 l 561 389 l 767 389 l 767 0 l 67 0 m 67 1050 l 67 1167 l 511 1206 l 511 1050 l 67 1050 z "},"ĺ":{"ha":367,"x_min":58,"x_max":356,"o":"m 67 0 l 67 972 l 300 972 l 300 0 l 67 0 m 58 1025 l 58 1143 l 356 1206 l 356 1050 l 58 1025 z "},"Ľ":{"ha":817,"x_min":67,"x_max":767,"o":"m 67 0 l 67 972 l 300 972 l 300 194 l 561 194 l 561 389 l 767 389 l 767 0 l 67 0 m 414 650 l 414 972 l 500 972 l 500 650 l 414 650 z "},"ľ":{"ha":453,"x_min":67,"x_max":453,"o":"m 67 0 l 67 972 l 300 972 l 300 0 l 67 0 m 367 650 l 367 972 l 453 972 l 453 650 l 367 650 z "},"Ļ":{"ha":804,"x_min":67,"x_max":767,"o":"m 67 0 l 67 972 l 300 972 l 300 194 l 561 194 l 561 389 l 767 389 l 767 0 l 67 0 m 271 -278 l 338 -75 l 550 -75 l 436 -278 l 271 -278 z "},"ļ":{"ha":367,"x_min":33,"x_max":313,"o":"m 67 0 l 67 972 l 300 972 l 300 0 l 67 0 m 33 -278 l 100 -75 l 313 -75 l 199 -278 l 33 -278 z "},"Ł":{"ha":804,"x_min":67,"x_max":767,"o":"m 174 372 l 174 567 l 640 767 l 640 572 l 174 372 m 67 0 l 67 972 l 300 972 l 300 194 l 561 194 l 561 389 l 767 389 l 767 0 l 67 0 z "},"ł":{"ha":456,"x_min":18,"x_max":438,"o":"m 18 272 l 18 488 l 438 719 l 438 504 l 18 272 m 111 0 l 111 972 l 344 972 l 344 0 l 111 0 z "},"Ḷ":{"ha":804,"x_min":67,"x_max":767,"o":"m 67 0 l 67 972 l 300 972 l 300 194 l 561 194 l 561 389 l 767 389 l 767 0 l 67 0 m 304 -247 l 304 -94 l 538 -94 l 538 -247 l 304 -247 z "},"ḷ":{"ha":367,"x_min":67,"x_max":300,"o":"m 67 0 l 67 972 l 300 972 l 300 0 l 67 0 m 67 -247 l 67 -94 l 300 -94 l 300 -247 l 67 -247 z "},"Ḻ":{"ha":804,"x_min":67,"x_max":767,"o":"m 67 0 l 67 972 l 300 972 l 300 194 l 561 194 l 561 389 l 767 389 l 767 0 l 67 0 m 185 -236 l 185 -86 l 657 -86 l 657 -236 l 185 -236 z "},"ḻ":{"ha":367,"x_min":-53,"x_max":419,"o":"m 67 0 l 67 972 l 300 972 l 300 0 l 67 0 m -53 -236 l -53 -86 l 419 -86 l 419 -236 l -53 -236 z "},"Ŀ":{"ha":804,"x_min":67,"x_max":767,"o":"m 67 0 l 67 972 l 300 972 l 300 194 l 561 194 l 561 389 l 767 389 l 767 0 l 67 0 m 485 514 l 485 731 l 693 731 l 693 514 l 485 514 z "},"ŀ":{"ha":506,"x_min":67,"x_max":508,"o":"m 67 0 l 67 972 l 300 972 l 300 0 l 67 0 m 364 389 l 364 606 l 508 606 l 508 389 l 364 389 z "},"Ḿ":{"ha":1083,"x_min":67,"x_max":1017,"o":"m 67 0 l 67 972 l 347 972 l 542 558 l 736 972 l 1017 972 l 1017 0 l 788 0 l 788 675 l 592 272 l 492 272 l 296 675 l 296 0 l 67 0 m 361 1050 l 361 1167 l 806 1206 l 806 1050 l 361 1050 z "},"ḿ":{"ha":1278,"x_min":67,"x_max":1211,"o":"m 67 778 l 1039 778 l 1211 606 l 1211 0 l 982 0 l 982 588 l 751 588 l 751 0 l 526 0 l 526 588 l 296 588 l 296 0 l 67 0 l 67 778 m 458 856 l 458 972 l 903 1011 l 903 856 l 458 856 z "},"Ṁ":{"ha":1083,"x_min":67,"x_max":1017,"o":"m 67 0 l 67 972 l 347 972 l 542 558 l 736 972 l 1017 972 l 1017 0 l 788 0 l 788 675 l 592 272 l 492 272 l 296 675 l 296 0 l 67 0 m 425 1044 l 425 1197 l 658 1197 l 658 1044 l 425 1044 z "},"ṁ":{"ha":1278,"x_min":67,"x_max":1211,"o":"m 67 778 l 1039 778 l 1211 606 l 1211 0 l 982 0 l 982 588 l 751 588 l 751 0 l 526 0 l 526 588 l 296 588 l 296 0 l 67 0 l 67 778 m 522 850 l 522 1003 l 756 1003 l 756 850 l 522 850 z "},"Ń":{"ha":944,"x_min":67,"x_max":878,"o":"m 67 0 l 67 972 l 288 972 l 661 354 l 661 972 l 878 972 l 878 0 l 657 0 l 283 618 l 283 0 l 67 0 m 292 1050 l 292 1167 l 736 1206 l 736 1050 l 292 1050 z "},"ń":{"ha":861,"x_min":67,"x_max":794,"o":"m 67 0 l 67 778 l 628 778 l 794 611 l 794 0 l 561 0 l 561 575 l 300 575 l 300 0 l 67 0 m 250 856 l 250 972 l 694 1011 l 694 856 l 250 856 z "},"Ǹ":{"ha":944,"x_min":67,"x_max":878,"o":"m 67 0 l 67 972 l 288 972 l 661 354 l 661 972 l 878 972 l 878 0 l 657 0 l 283 618 l 283 0 l 67 0 m 653 1050 l 208 1050 l 208 1206 l 653 1167 l 653 1050 z "},"ǹ":{"ha":861,"x_min":67,"x_max":794,"o":"m 67 0 l 67 778 l 628 778 l 794 611 l 794 0 l 561 0 l 561 575 l 300 575 l 300 0 l 67 0 m 611 856 l 167 856 l 167 1011 l 611 972 l 611 856 z "},"Ň":{"ha":944,"x_min":67,"x_max":878,"o":"m 67 0 l 67 972 l 288 972 l 661 354 l 661 972 l 878 972 l 878 0 l 657 0 l 283 618 l 283 0 l 67 0 m 736 1261 l 736 1117 l 472 1028 l 208 1117 l 208 1261 l 472 1172 l 736 1261 z "},"ň":{"ha":861,"x_min":67,"x_max":794,"o":"m 67 0 l 67 778 l 628 778 l 794 611 l 794 0 l 561 0 l 561 575 l 300 575 l 300 0 l 67 0 m 694 1067 l 694 922 l 431 833 l 167 922 l 167 1067 l 431 978 l 694 1067 z "},"Ñ":{"ha":944,"x_min":67,"x_max":878,"o":"m 67 0 l 67 972 l 288 972 l 661 354 l 661 972 l 878 972 l 878 0 l 657 0 l 283 618 l 283 0 l 67 0 m 208 1014 l 181 1146 l 319 1235 l 603 1168 l 736 1236 l 764 1104 l 625 1015 l 342 1082 l 208 1014 z "},"ñ":{"ha":861,"x_min":67,"x_max":794,"o":"m 67 0 l 67 778 l 628 778 l 794 611 l 794 0 l 561 0 l 561 575 l 300 575 l 300 0 l 67 0 m 167 819 l 139 951 l 278 1040 l 561 974 l 694 1042 l 722 910 l 583 821 l 300 888 l 167 819 z "},"Ṅ":{"ha":944,"x_min":67,"x_max":878,"o":"m 67 0 l 67 972 l 288 972 l 661 354 l 661 972 l 878 972 l 878 0 l 657 0 l 283 618 l 283 0 l 67 0 m 356 1044 l 356 1197 l 589 1197 l 589 1044 l 356 1044 z "},"ṅ":{"ha":861,"x_min":67,"x_max":794,"o":"m 67 0 l 67 778 l 628 778 l 794 611 l 794 0 l 561 0 l 561 575 l 300 575 l 300 0 l 67 0 m 314 850 l 314 1003 l 547 1003 l 547 850 l 314 850 z "},"Ņ":{"ha":944,"x_min":67,"x_max":878,"o":"m 67 0 l 67 972 l 288 972 l 661 354 l 661 972 l 878 972 l 878 0 l 657 0 l 283 618 l 283 0 l 67 0 m 322 -278 l 389 -75 l 601 -75 l 488 -278 l 322 -278 z "},"ņ":{"ha":861,"x_min":67,"x_max":794,"o":"m 67 0 l 67 778 l 628 778 l 794 611 l 794 0 l 561 0 l 561 575 l 300 575 l 300 0 l 67 0 m 281 -278 l 347 -75 l 560 -75 l 446 -278 l 281 -278 z "},"Ṉ":{"ha":944,"x_min":67,"x_max":878,"o":"m 67 0 l 67 972 l 288 972 l 661 354 l 661 972 l 878 972 l 878 0 l 657 0 l 283 618 l 283 0 l 67 0 m 236 -236 l 236 -86 l 708 -86 l 708 -236 l 236 -236 z "},"ṉ":{"ha":861,"x_min":67,"x_max":794,"o":"m 67 0 l 67 778 l 628 778 l 794 611 l 794 0 l 561 0 l 561 575 l 300 575 l 300 0 l 67 0 m 194 -236 l 194 -86 l 667 -86 l 667 -236 l 194 -236 z "},"Ɲ":{"ha":944,"x_min":-6,"x_max":878,"o":"m -6 0 l -6 203 l 67 203 l 67 972 l 288 972 l 661 354 l 661 972 l 878 972 l 878 0 l 657 0 l 283 618 l 283 119 l 164 0 l -6 0 z "},"ɲ":{"ha":861,"x_min":-6,"x_max":794,"o":"m -6 -194 l -6 8 l 67 8 l 67 778 l 628 778 l 794 611 l 794 0 l 561 0 l 561 575 l 300 575 l 300 -36 l 142 -194 l -6 -194 z "},"Ŋ":{"ha":944,"x_min":67,"x_max":878,"o":"m 67 0 l 67 972 l 286 972 l 661 369 l 661 972 l 878 972 l 878 -61 l 728 -211 l 547 -211 l 547 -42 l 664 -42 l 664 4 l 283 618 l 283 0 l 67 0 z "},"ŋ":{"ha":861,"x_min":67,"x_max":794,"o":"m 67 0 l 67 778 l 628 778 l 794 611 l 794 -72 l 644 -222 l 464 -222 l 464 -53 l 561 -53 l 561 575 l 300 575 l 300 0 l 67 0 z "},"Ó":{"ha":944,"x_min":63,"x_max":882,"o":"m 63 169 l 63 803 l 232 972 l 713 972 l 882 803 l 882 169 l 713 0 l 232 0 l 63 169 m 304 769 l 304 203 l 640 203 l 640 769 l 304 769 m 292 1050 l 292 1167 l 736 1206 l 736 1050 l 292 1050 z "},"ó":{"ha":833,"x_min":56,"x_max":778,"o":"m 56 158 l 56 619 l 214 778 l 619 778 l 778 619 l 778 158 l 619 0 l 214 0 l 56 158 m 289 186 l 544 186 l 544 592 l 289 592 l 289 186 m 236 856 l 236 972 l 681 1011 l 681 856 l 236 856 z "},"Ò":{"ha":944,"x_min":63,"x_max":882,"o":"m 63 169 l 63 803 l 232 972 l 713 972 l 882 803 l 882 169 l 713 0 l 232 0 l 63 169 m 304 769 l 304 203 l 640 203 l 640 769 l 304 769 m 653 1050 l 208 1050 l 208 1206 l 653 1167 l 653 1050 z "},"ò":{"ha":833,"x_min":56,"x_max":778,"o":"m 56 158 l 56 619 l 214 778 l 619 778 l 778 619 l 778 158 l 619 0 l 214 0 l 56 158 m 289 186 l 544 186 l 544 592 l 289 592 l 289 186 m 597 856 l 153 856 l 153 1011 l 597 972 l 597 856 z "},"Ŏ":{"ha":944,"x_min":63,"x_max":882,"o":"m 63 169 l 63 803 l 232 972 l 713 972 l 882 803 l 882 169 l 713 0 l 232 0 l 63 169 m 304 769 l 304 203 l 640 203 l 640 769 l 304 769 m 574 1228 l 767 1228 l 644 1036 l 300 1036 l 178 1228 l 371 1228 l 389 1147 l 556 1147 l 574 1228 z "},"ŏ":{"ha":833,"x_min":56,"x_max":778,"o":"m 56 158 l 56 619 l 214 778 l 619 778 l 778 619 l 778 158 l 619 0 l 214 0 l 56 158 m 289 186 l 544 186 l 544 592 l 289 592 l 289 186 m 518 1033 l 711 1033 l 589 842 l 244 842 l 122 1033 l 315 1033 l 333 953 l 500 953 l 518 1033 z "},"Ô":{"ha":944,"x_min":63,"x_max":882,"o":"m 63 169 l 63 803 l 232 972 l 713 972 l 882 803 l 882 169 l 713 0 l 232 0 l 63 169 m 304 769 l 304 203 l 640 203 l 640 769 l 304 769 m 208 1028 l 208 1172 l 472 1261 l 736 1172 l 736 1028 l 472 1117 l 208 1028 z "},"ô":{"ha":833,"x_min":56,"x_max":778,"o":"m 56 158 l 56 619 l 214 778 l 619 778 l 778 619 l 778 158 l 619 0 l 214 0 l 56 158 m 289 186 l 544 186 l 544 592 l 289 592 l 289 186 m 153 833 l 153 978 l 417 1067 l 681 978 l 681 833 l 417 922 l 153 833 z "},"Ǒ":{"ha":944,"x_min":63,"x_max":882,"o":"m 63 169 l 63 803 l 232 972 l 713 972 l 882 803 l 882 169 l 713 0 l 232 0 l 63 169 m 304 769 l 304 203 l 640 203 l 640 769 l 304 769 m 736 1261 l 736 1117 l 472 1028 l 208 1117 l 208 1261 l 472 1172 l 736 1261 z "},"ǒ":{"ha":833,"x_min":56,"x_max":778,"o":"m 56 158 l 56 619 l 214 778 l 619 778 l 778 619 l 778 158 l 619 0 l 214 0 l 56 158 m 289 186 l 544 186 l 544 592 l 289 592 l 289 186 m 681 1067 l 681 922 l 417 833 l 153 922 l 153 1067 l 417 978 l 681 1067 z "},"Ö":{"ha":944,"x_min":63,"x_max":882,"o":"m 63 169 l 63 803 l 232 972 l 713 972 l 882 803 l 882 169 l 713 0 l 232 0 l 63 169 m 304 769 l 304 203 l 640 203 l 640 769 l 304 769 m 194 1044 l 194 1197 l 411 1197 l 411 1044 l 194 1044 m 533 1044 l 533 1197 l 750 1197 l 750 1044 l 533 1044 z "},"ö":{"ha":833,"x_min":56,"x_max":778,"o":"m 56 158 l 56 619 l 214 778 l 619 778 l 778 619 l 778 158 l 619 0 l 214 0 l 56 158 m 289 186 l 544 186 l 544 592 l 289 592 l 289 186 m 139 850 l 139 1003 l 356 1003 l 356 850 l 139 850 m 478 850 l 478 1003 l 694 1003 l 694 850 l 478 850 z "},"Ȫ":{"ha":944,"x_min":63,"x_max":882,"o":"m 63 169 l 63 803 l 232 972 l 713 972 l 882 803 l 882 169 l 713 0 l 232 0 l 63 169 m 304 769 l 304 203 l 640 203 l 640 769 l 304 769 m 194 1044 l 194 1197 l 411 1197 l 411 1044 l 194 1044 m 533 1044 l 533 1197 l 750 1197 l 750 1044 l 533 1044 m 236 1256 l 236 1353 l 708 1353 l 708 1256 l 236 1256 z "},"ȫ":{"ha":833,"x_min":56,"x_max":778,"o":"m 56 158 l 56 619 l 214 778 l 619 778 l 778 619 l 778 158 l 619 0 l 214 0 l 56 158 m 289 186 l 544 186 l 544 592 l 289 592 l 289 186 m 139 850 l 139 1003 l 356 1003 l 356 850 l 139 850 m 478 850 l 478 1003 l 694 1003 l 694 850 l 478 850 m 181 1061 l 181 1158 l 653 1158 l 653 1061 l 181 1061 z "},"Ő":{"ha":944,"x_min":63,"x_max":882,"o":"m 63 169 l 63 803 l 232 972 l 713 972 l 882 803 l 882 169 l 713 0 l 232 0 l 63 169 m 304 769 l 304 203 l 640 203 l 640 769 l 304 769 m 276 1025 l 332 1208 l 521 1208 l 418 1025 l 276 1025 m 494 1025 l 578 1208 l 767 1208 l 639 1025 l 494 1025 z "},"ő":{"ha":833,"x_min":56,"x_max":778,"o":"m 56 158 l 56 619 l 214 778 l 619 778 l 778 619 l 778 158 l 619 0 l 214 0 l 56 158 m 289 186 l 544 186 l 544 592 l 289 592 l 289 186 m 221 831 l 276 1014 l 465 1014 l 363 831 l 221 831 m 439 831 l 522 1014 l 711 1014 l 583 831 l 439 831 z "},"Õ":{"ha":944,"x_min":63,"x_max":882,"o":"m 63 169 l 63 803 l 232 972 l 713 972 l 882 803 l 882 169 l 713 0 l 232 0 l 63 169 m 304 769 l 304 203 l 640 203 l 640 769 l 304 769 m 208 1014 l 181 1146 l 319 1235 l 603 1168 l 736 1236 l 764 1104 l 625 1015 l 342 1082 l 208 1014 z "},"õ":{"ha":833,"x_min":56,"x_max":778,"o":"m 56 158 l 56 619 l 214 778 l 619 778 l 778 619 l 778 158 l 619 0 l 214 0 l 56 158 m 289 186 l 544 186 l 544 592 l 289 592 l 289 186 m 153 819 l 125 951 l 264 1040 l 547 974 l 681 1042 l 708 910 l 569 821 l 286 888 l 153 819 z "},"Ȭ":{"ha":944,"x_min":63,"x_max":882,"o":"m 63 169 l 63 803 l 232 972 l 713 972 l 882 803 l 882 169 l 713 0 l 232 0 l 63 169 m 304 769 l 304 203 l 640 203 l 640 769 l 304 769 m 208 1014 l 181 1146 l 319 1235 l 603 1168 l 736 1236 l 764 1104 l 625 1015 l 342 1082 l 208 1014 m 236 1267 l 236 1364 l 708 1364 l 708 1267 l 236 1267 z "},"ȭ":{"ha":833,"x_min":56,"x_max":778,"o":"m 56 158 l 56 619 l 214 778 l 619 778 l 778 619 l 778 158 l 619 0 l 214 0 l 56 158 m 289 186 l 544 186 l 544 592 l 289 592 l 289 186 m 153 819 l 125 951 l 264 1040 l 547 974 l 681 1042 l 708 910 l 569 821 l 286 888 l 153 819 m 181 1072 l 181 1169 l 653 1169 l 653 1072 l 181 1072 z "},"Ȯ":{"ha":944,"x_min":63,"x_max":882,"o":"m 63 169 l 63 803 l 232 972 l 713 972 l 882 803 l 882 169 l 713 0 l 232 0 l 63 169 m 304 769 l 304 203 l 640 203 l 640 769 l 304 769 m 356 1044 l 356 1197 l 589 1197 l 589 1044 l 356 1044 z "},"ȯ":{"ha":833,"x_min":56,"x_max":778,"o":"m 56 158 l 56 619 l 214 778 l 619 778 l 778 619 l 778 158 l 619 0 l 214 0 l 56 158 m 289 186 l 544 186 l 544 592 l 289 592 l 289 186 m 300 850 l 300 1003 l 533 1003 l 533 850 l 300 850 z "},"Ȱ":{"ha":944,"x_min":63,"x_max":882,"o":"m 63 169 l 63 803 l 232 972 l 713 972 l 882 803 l 882 169 l 713 0 l 232 0 l 63 169 m 304 769 l 304 203 l 640 203 l 640 769 l 304 769 m 356 1044 l 356 1197 l 589 1197 l 589 1044 l 356 1044 m 236 1256 l 236 1353 l 708 1353 l 708 1256 l 236 1256 z "},"ȱ":{"ha":833,"x_min":56,"x_max":778,"o":"m 56 158 l 56 619 l 214 778 l 619 778 l 778 619 l 778 158 l 619 0 l 214 0 l 56 158 m 289 186 l 544 186 l 544 592 l 289 592 l 289 186 m 300 850 l 300 1003 l 533 1003 l 533 850 l 300 850 m 181 1061 l 181 1158 l 653 1158 l 653 1061 l 181 1061 z "},"Ø":{"ha":944,"x_min":53,"x_max":892,"o":"m 63 181 l 63 803 l 232 972 l 701 972 l 882 792 l 882 169 l 713 0 l 243 0 l 63 181 m 294 771 l 294 201 l 650 201 l 650 771 l 294 771 m 53 0 l 789 972 l 892 972 l 156 0 l 53 0 z "},"ø":{"ha":833,"x_min":42,"x_max":792,"o":"m 56 164 l 56 619 l 214 778 l 614 778 l 778 614 l 778 158 l 619 0 l 219 0 l 56 164 m 282 176 l 551 176 l 551 601 l 282 601 l 282 176 m 42 0 l 688 778 l 792 778 l 146 0 l 42 0 z "},"Ǿ":{"ha":944,"x_min":53,"x_max":892,"o":"m 63 181 l 63 803 l 232 972 l 701 972 l 882 792 l 882 169 l 713 0 l 243 0 l 63 181 m 294 771 l 294 201 l 650 201 l 650 771 l 294 771 m 53 0 l 789 972 l 892 972 l 156 0 l 53 0 m 292 1050 l 292 1167 l 736 1206 l 736 1050 l 292 1050 z "},"ǿ":{"ha":833,"x_min":42,"x_max":792,"o":"m 56 164 l 56 619 l 214 778 l 614 778 l 778 614 l 778 158 l 619 0 l 219 0 l 56 164 m 282 176 l 551 176 l 551 601 l 282 601 l 282 176 m 42 0 l 688 778 l 792 778 l 146 0 l 42 0 m 236 856 l 236 972 l 681 1011 l 681 856 l 236 856 z "},"Ǫ":{"ha":944,"x_min":63,"x_max":882,"o":"m 63 169 l 63 803 l 232 972 l 713 972 l 882 803 l 882 169 l 713 0 l 232 0 l 63 169 m 304 769 l 304 203 l 640 203 l 640 769 l 304 769 m 579 -67 l 524 -278 l 311 -278 l 414 -67 l 579 -67 z "},"ǫ":{"ha":833,"x_min":56,"x_max":778,"o":"m 56 158 l 56 619 l 214 778 l 619 778 l 778 619 l 778 158 l 619 0 l 214 0 l 56 158 m 289 186 l 544 186 l 544 592 l 289 592 l 289 186 m 524 -67 l 468 -278 l 256 -278 l 358 -67 l 524 -67 z "},"Ō":{"ha":944,"x_min":63,"x_max":882,"o":"m 63 169 l 63 803 l 232 972 l 713 972 l 882 803 l 882 169 l 713 0 l 232 0 l 63 169 m 304 769 l 304 203 l 640 203 l 640 769 l 304 769 m 236 1058 l 236 1208 l 708 1208 l 708 1058 l 236 1058 z "},"ō":{"ha":833,"x_min":56,"x_max":778,"o":"m 56 158 l 56 619 l 214 778 l 619 778 l 778 619 l 778 158 l 619 0 l 214 0 l 56 158 m 289 186 l 544 186 l 544 592 l 289 592 l 289 186 m 181 864 l 181 1014 l 653 1014 l 653 864 l 181 864 z "},"Ȍ":{"ha":944,"x_min":63,"x_max":882,"o":"m 63 169 l 63 803 l 232 972 l 713 972 l 882 803 l 882 169 l 713 0 l 232 0 l 63 169 m 304 769 l 304 203 l 640 203 l 640 769 l 304 769 m 613 1208 l 668 1025 l 526 1025 l 424 1208 l 613 1208 m 367 1208 l 450 1025 l 306 1025 l 178 1208 l 367 1208 z "},"ȍ":{"ha":833,"x_min":56,"x_max":778,"o":"m 56 158 l 56 619 l 214 778 l 619 778 l 778 619 l 778 158 l 619 0 l 214 0 l 56 158 m 289 186 l 544 186 l 544 592 l 289 592 l 289 186 m 557 1014 l 613 831 l 471 831 l 368 1014 l 557 1014 m 311 1014 l 394 831 l 250 831 l 122 1014 l 311 1014 z "},"Ȏ":{"ha":944,"x_min":63,"x_max":882,"o":"m 63 169 l 63 803 l 232 972 l 713 972 l 882 803 l 882 169 l 713 0 l 232 0 l 63 169 m 304 769 l 304 203 l 640 203 l 640 769 l 304 769 m 371 1026 l 178 1026 l 300 1218 l 644 1218 l 767 1026 l 574 1026 l 556 1107 l 389 1107 l 371 1026 z "},"ȏ":{"ha":833,"x_min":56,"x_max":778,"o":"m 56 158 l 56 619 l 214 778 l 619 778 l 778 619 l 778 158 l 619 0 l 214 0 l 56 158 m 289 186 l 544 186 l 544 592 l 289 592 l 289 186 m 315 832 l 122 832 l 244 1024 l 589 1024 l 711 832 l 518 832 l 500 913 l 333 913 l 315 832 z "},"Œ":{"ha":1274,"x_min":63,"x_max":1232,"o":"m 63 169 l 63 803 l 232 972 l 1218 972 l 1218 778 l 813 778 l 813 589 l 1149 589 l 1149 403 l 813 403 l 813 194 l 1232 194 l 1232 0 l 232 0 l 63 169 m 296 761 l 296 211 l 579 211 l 579 761 l 296 761 z "},"œ":{"ha":1275,"x_min":56,"x_max":1219,"o":"m 56 167 l 56 611 l 222 778 l 569 778 l 644 703 l 719 778 l 1219 778 l 1219 339 l 761 339 l 761 194 l 1192 194 l 1192 0 l 719 0 l 644 75 l 569 0 l 222 0 l 56 167 m 289 186 l 528 186 l 528 592 l 289 592 l 289 186 m 761 453 l 1019 467 l 1019 600 l 761 600 l 761 453 z "},"Ɔ":{"ha":772,"x_min":38,"x_max":710,"o":"m 710 803 l 710 169 l 540 0 l 51 0 l 51 213 l 468 213 l 468 760 l 38 760 l 38 972 l 540 972 l 710 803 z "},"ɔ":{"ha":736,"x_min":56,"x_max":703,"o":"m 703 619 l 703 158 l 544 0 l 56 0 l 56 211 l 469 211 l 469 567 l 56 567 l 56 778 l 544 778 l 703 619 z "},"Ṗ":{"ha":869,"x_min":67,"x_max":831,"o":"m 300 394 l 597 394 l 597 786 l 300 786 l 300 394 m 831 803 l 831 378 l 661 208 l 300 208 l 300 0 l 67 0 l 67 972 l 661 972 l 831 803 m 283 1044 l 283 1197 l 517 1197 l 517 1044 l 283 1044 z "},"ṗ":{"ha":861,"x_min":67,"x_max":806,"o":"m 67 -194 l 67 778 l 631 778 l 806 603 l 806 175 l 631 0 l 300 0 l 300 -194 l 67 -194 m 572 583 l 300 583 l 300 194 l 572 194 l 572 583 m 283 850 l 283 1003 l 517 1003 l 517 850 l 283 850 z "},"ĸ":{"ha":861,"x_min":67,"x_max":856,"o":"m 67 0 l 67 778 l 300 778 l 300 501 l 440 501 l 585 778 l 846 778 l 636 418 l 856 0 l 592 0 l 451 307 l 300 307 l 300 0 l 67 0 z "},"Ŕ":{"ha":911,"x_min":67,"x_max":908,"o":"m 300 461 l 619 461 l 619 786 l 300 786 l 300 461 m 853 803 l 853 451 l 740 339 l 908 0 l 647 0 l 524 275 l 300 275 l 300 0 l 67 0 l 67 972 l 683 972 l 853 803 m 247 1050 l 247 1167 l 692 1206 l 692 1050 l 247 1050 z "},"ŕ":{"ha":653,"x_min":67,"x_max":625,"o":"m 67 0 l 67 611 l 233 778 l 625 778 l 625 567 l 300 567 l 300 0 l 67 0 m 172 856 l 172 972 l 617 1011 l 617 856 l 172 856 z "},"Ř":{"ha":911,"x_min":67,"x_max":908,"o":"m 300 461 l 619 461 l 619 786 l 300 786 l 300 461 m 853 803 l 853 451 l 740 339 l 908 0 l 647 0 l 524 275 l 300 275 l 300 0 l 67 0 l 67 972 l 683 972 l 853 803 m 692 1261 l 692 1117 l 428 1028 l 164 1117 l 164 1261 l 428 1172 l 692 1261 z "},"ř":{"ha":653,"x_min":67,"x_max":625,"o":"m 67 0 l 67 611 l 233 778 l 625 778 l 625 567 l 300 567 l 300 0 l 67 0 m 617 1067 l 617 922 l 353 833 l 89 922 l 89 1067 l 353 978 l 617 1067 z "},"Ŗ":{"ha":911,"x_min":67,"x_max":908,"o":"m 300 461 l 619 461 l 619 786 l 300 786 l 300 461 m 853 803 l 853 451 l 740 339 l 908 0 l 647 0 l 524 275 l 300 275 l 300 0 l 67 0 l 67 972 l 683 972 l 853 803 m 303 -278 l 369 -75 l 582 -75 l 468 -278 l 303 -278 z "},"ŗ":{"ha":653,"x_min":33,"x_max":625,"o":"m 67 0 l 67 611 l 233 778 l 625 778 l 625 567 l 300 567 l 300 0 l 67 0 m 33 -278 l 100 -75 l 313 -75 l 199 -278 l 33 -278 z "},"Ȑ":{"ha":911,"x_min":67,"x_max":908,"o":"m 300 461 l 619 461 l 619 786 l 300 786 l 300 461 m 853 803 l 853 451 l 740 339 l 908 0 l 647 0 l 524 275 l 300 275 l 300 0 l 67 0 l 67 972 l 683 972 l 853 803 m 568 1208 l 624 1025 l 482 1025 l 379 1208 l 568 1208 m 322 1208 l 406 1025 l 261 1025 l 133 1208 l 322 1208 z "},"ȑ":{"ha":653,"x_min":58,"x_max":625,"o":"m 67 0 l 67 611 l 233 778 l 625 778 l 625 567 l 300 567 l 300 0 l 67 0 m 493 1014 l 549 831 l 407 831 l 304 1014 l 493 1014 m 247 1014 l 331 831 l 186 831 l 58 1014 l 247 1014 z "},"Ȓ":{"ha":911,"x_min":67,"x_max":908,"o":"m 300 461 l 619 461 l 619 786 l 300 786 l 300 461 m 853 803 l 853 451 l 740 339 l 908 0 l 647 0 l 524 275 l 300 275 l 300 0 l 67 0 l 67 972 l 683 972 l 853 803 m 326 1026 l 133 1026 l 256 1218 l 600 1218 l 722 1026 l 529 1026 l 511 1107 l 344 1107 l 326 1026 z "},"ȓ":{"ha":653,"x_min":58,"x_max":647,"o":"m 67 0 l 67 611 l 233 778 l 625 778 l 625 567 l 300 567 l 300 0 l 67 0 m 251 832 l 58 832 l 181 1024 l 525 1024 l 647 832 l 454 832 l 436 913 l 269 913 l 251 832 z "},"Ṛ":{"ha":911,"x_min":67,"x_max":908,"o":"m 300 461 l 619 461 l 619 786 l 300 786 l 300 461 m 853 803 l 853 451 l 740 339 l 908 0 l 647 0 l 524 275 l 300 275 l 300 0 l 67 0 l 67 972 l 683 972 l 853 803 m 336 -247 l 336 -94 l 569 -94 l 569 -247 l 336 -247 z "},"ṛ":{"ha":653,"x_min":67,"x_max":625,"o":"m 67 0 l 67 611 l 233 778 l 625 778 l 625 567 l 300 567 l 300 0 l 67 0 m 67 -247 l 67 -94 l 300 -94 l 300 -247 l 67 -247 z "},"Ś":{"ha":889,"x_min":63,"x_max":826,"o":"m 76 0 l 76 203 l 593 203 l 593 385 l 63 431 l 63 811 l 224 972 l 813 972 l 813 769 l 296 769 l 296 601 l 826 556 l 826 161 l 665 0 l 76 0 m 289 1050 l 289 1167 l 733 1206 l 733 1050 l 289 1050 z "},"ś":{"ha":817,"x_min":56,"x_max":761,"o":"m 56 0 l 56 186 l 528 186 l 528 328 l 56 328 l 56 619 l 214 778 l 761 778 l 761 592 l 289 592 l 289 456 l 761 456 l 761 154 l 607 0 l 56 0 m 256 856 l 256 972 l 700 1011 l 700 856 l 256 856 z "},"Ŝ":{"ha":889,"x_min":63,"x_max":826,"o":"m 76 0 l 76 203 l 593 203 l 593 385 l 63 431 l 63 811 l 224 972 l 813 972 l 813 769 l 296 769 l 296 601 l 826 556 l 826 161 l 665 0 l 76 0 m 206 1028 l 206 1172 l 469 1261 l 733 1172 l 733 1028 l 469 1117 l 206 1028 z "},"ŝ":{"ha":817,"x_min":56,"x_max":761,"o":"m 56 0 l 56 186 l 528 186 l 528 328 l 56 328 l 56 619 l 214 778 l 761 778 l 761 592 l 289 592 l 289 456 l 761 456 l 761 154 l 607 0 l 56 0 m 172 833 l 172 978 l 436 1067 l 700 978 l 700 833 l 436 922 l 172 833 z "},"Š":{"ha":889,"x_min":63,"x_max":826,"o":"m 76 0 l 76 203 l 593 203 l 593 385 l 63 431 l 63 811 l 224 972 l 813 972 l 813 769 l 296 769 l 296 601 l 826 556 l 826 161 l 665 0 l 76 0 m 733 1261 l 733 1117 l 469 1028 l 206 1117 l 206 1261 l 469 1172 l 733 1261 z "},"š":{"ha":817,"x_min":56,"x_max":761,"o":"m 56 0 l 56 186 l 528 186 l 528 328 l 56 328 l 56 619 l 214 778 l 761 778 l 761 592 l 289 592 l 289 456 l 761 456 l 761 154 l 607 0 l 56 0 m 700 1067 l 700 922 l 436 833 l 172 922 l 172 1067 l 436 978 l 700 1067 z "},"Ṡ":{"ha":889,"x_min":63,"x_max":826,"o":"m 76 0 l 76 203 l 593 203 l 593 385 l 63 431 l 63 811 l 224 972 l 813 972 l 813 769 l 296 769 l 296 601 l 826 556 l 826 161 l 665 0 l 76 0 m 353 1044 l 353 1197 l 586 1197 l 586 1044 l 353 1044 z "},"ṡ":{"ha":817,"x_min":56,"x_max":761,"o":"m 56 0 l 56 186 l 528 186 l 528 328 l 56 328 l 56 619 l 214 778 l 761 778 l 761 592 l 289 592 l 289 456 l 761 456 l 761 154 l 607 0 l 56 0 m 319 850 l 319 1003 l 553 1003 l 553 850 l 319 850 z "},"Ş":{"ha":889,"x_min":63,"x_max":826,"o":"m 76 0 l 76 203 l 593 203 l 593 385 l 63 431 l 63 811 l 224 972 l 813 972 l 813 769 l 296 769 l 296 601 l 826 556 l 826 161 l 665 0 l 76 0 m 269 -278 l 336 -75 l 549 -75 l 435 -278 l 269 -278 z "},"ş":{"ha":817,"x_min":56,"x_max":761,"o":"m 56 0 l 56 186 l 528 186 l 528 328 l 56 328 l 56 619 l 214 778 l 761 778 l 761 592 l 289 592 l 289 456 l 761 456 l 761 154 l 607 0 l 56 0 m 231 -278 l 297 -75 l 510 -75 l 396 -278 l 231 -278 z "},"Ṣ":{"ha":889,"x_min":63,"x_max":826,"o":"m 76 0 l 76 203 l 593 203 l 593 385 l 63 431 l 63 811 l 224 972 l 813 972 l 813 769 l 296 769 l 296 601 l 826 556 l 826 161 l 665 0 l 76 0 m 303 -247 l 303 -94 l 536 -94 l 536 -247 l 303 -247 z "},"ṣ":{"ha":817,"x_min":56,"x_max":761,"o":"m 56 0 l 56 186 l 528 186 l 528 328 l 56 328 l 56 619 l 214 778 l 761 778 l 761 592 l 289 592 l 289 456 l 761 456 l 761 154 l 607 0 l 56 0 m 264 -247 l 264 -94 l 497 -94 l 497 -247 l 264 -247 z "},"Ș":{"ha":889,"x_min":63,"x_max":826,"o":"m 76 0 l 76 203 l 593 203 l 593 385 l 63 431 l 63 811 l 224 972 l 813 972 l 813 769 l 296 769 l 296 601 l 826 556 l 826 161 l 665 0 l 76 0 m 269 -278 l 336 -75 l 549 -75 l 435 -278 l 269 -278 z "},"ș":{"ha":817,"x_min":56,"x_max":761,"o":"m 56 0 l 56 186 l 528 186 l 528 328 l 56 328 l 56 619 l 214 778 l 761 778 l 761 592 l 289 592 l 289 456 l 761 456 l 761 154 l 607 0 l 56 0 m 231 -278 l 297 -75 l 510 -75 l 396 -278 l 231 -278 z "},"ſ":{"ha":608,"x_min":67,"x_max":581,"o":"m 67 0 l 67 814 l 225 972 l 581 972 l 581 769 l 300 769 l 300 0 l 67 0 z "},"ẞ":{"ha":972,"x_min":67,"x_max":933,"o":"m 899 972 l 899 610 l 817 536 l 933 446 l 933 175 l 758 0 l 422 0 l 422 203 l 700 203 l 700 424 l 475 424 l 475 585 l 669 585 l 669 778 l 300 778 l 300 0 l 67 0 l 67 806 l 233 972 l 899 972 z "},"ß":{"ha":875,"x_min":67,"x_max":836,"o":"m 806 797 l 806 601 l 713 519 l 836 419 l 836 158 l 678 0 l 419 0 l 419 186 l 603 186 l 603 424 l 425 424 l 425 585 l 576 585 l 576 786 l 300 786 l 300 0 l 67 0 l 67 797 l 242 972 l 631 972 l 806 797 z "},"Ť":{"ha":794,"x_min":28,"x_max":767,"o":"m 281 0 l 281 769 l 28 769 l 28 972 l 767 972 l 767 769 l 514 769 l 514 0 l 281 0 m 661 1261 l 661 1117 l 397 1028 l 133 1117 l 133 1261 l 397 1172 l 661 1261 z "},"ť":{"ha":597,"x_min":67,"x_max":569,"o":"m 483 806 l 483 1069 l 569 1069 l 569 806 l 483 806 m 67 903 l 300 972 l 300 750 l 569 750 l 569 556 l 300 556 l 300 194 l 569 194 l 569 0 l 233 0 l 67 167 l 67 903 z "},"Ṫ":{"ha":794,"x_min":28,"x_max":767,"o":"m 281 0 l 281 769 l 28 769 l 28 972 l 767 972 l 767 769 l 514 769 l 514 0 l 281 0 m 281 1044 l 281 1197 l 514 1197 l 514 1044 l 281 1044 z "},"ṫ":{"ha":597,"x_min":67,"x_max":569,"o":"m 67 903 l 300 972 l 300 750 l 569 750 l 569 556 l 300 556 l 300 194 l 569 194 l 569 0 l 233 0 l 67 167 l 67 903 m 236 1044 l 236 1197 l 469 1197 l 469 1044 l 236 1044 z "},"Ţ":{"ha":794,"x_min":28,"x_max":767,"o":"m 281 0 l 281 769 l 28 769 l 28 972 l 767 972 l 767 769 l 514 769 l 514 0 l 281 0 m 247 -278 l 314 -75 l 526 -75 l 413 -278 l 247 -278 z "},"ţ":{"ha":597,"x_min":67,"x_max":569,"o":"m 67 903 l 300 972 l 300 750 l 569 750 l 569 556 l 300 556 l 300 194 l 569 194 l 569 0 l 233 0 l 67 167 l 67 903 m 194 -278 l 261 -75 l 474 -75 l 360 -278 l 194 -278 z "},"Ṭ":{"ha":794,"x_min":28,"x_max":767,"o":"m 281 0 l 281 769 l 28 769 l 28 972 l 767 972 l 767 769 l 514 769 l 514 0 l 281 0 m 281 -247 l 281 -94 l 514 -94 l 514 -247 l 281 -247 z "},"ṭ":{"ha":597,"x_min":67,"x_max":569,"o":"m 67 903 l 300 972 l 300 750 l 569 750 l 569 556 l 300 556 l 300 194 l 569 194 l 569 0 l 233 0 l 67 167 l 67 903 m 228 -247 l 228 -94 l 461 -94 l 461 -247 l 228 -247 z "},"Ț":{"ha":794,"x_min":28,"x_max":767,"o":"m 281 0 l 281 769 l 28 769 l 28 972 l 767 972 l 767 769 l 514 769 l 514 0 l 281 0 m 247 -278 l 314 -75 l 526 -75 l 413 -278 l 247 -278 z "},"ț":{"ha":597,"x_min":67,"x_max":569,"o":"m 67 903 l 300 972 l 300 750 l 569 750 l 569 556 l 300 556 l 300 194 l 569 194 l 569 0 l 233 0 l 67 167 l 67 903 m 194 -278 l 261 -75 l 474 -75 l 360 -278 l 194 -278 z "},"Ŧ":{"ha":778,"x_min":19,"x_max":758,"o":"m 94 353 l 94 519 l 683 519 l 683 353 l 94 353 m 272 0 l 272 769 l 19 769 l 19 972 l 758 972 l 758 769 l 506 769 l 506 0 l 272 0 z "},"ŧ":{"ha":597,"x_min":13,"x_max":569,"o":"m 67 903 l 300 972 l 300 750 l 569 750 l 569 564 l 300 564 l 300 194 l 569 194 l 569 0 l 233 0 l 67 167 l 67 903 m 13 358 l 13 464 l 569 464 l 569 358 l 13 358 z "},"Ú":{"ha":903,"x_min":67,"x_max":836,"o":"m 67 169 l 67 972 l 300 972 l 300 211 l 603 211 l 603 972 l 836 972 l 836 169 l 667 0 l 236 0 l 67 169 m 271 1050 l 271 1167 l 715 1206 l 715 1050 l 271 1050 z "},"ú":{"ha":861,"x_min":67,"x_max":794,"o":"m 794 778 l 794 0 l 233 0 l 67 167 l 67 778 l 300 778 l 300 203 l 561 203 l 561 778 l 794 778 m 250 856 l 250 972 l 694 1011 l 694 856 l 250 856 z "},"Ù":{"ha":903,"x_min":67,"x_max":836,"o":"m 67 169 l 67 972 l 300 972 l 300 211 l 603 211 l 603 972 l 836 972 l 836 169 l 667 0 l 236 0 l 67 169 m 632 1050 l 188 1050 l 188 1206 l 632 1167 l 632 1050 z "},"ù":{"ha":861,"x_min":67,"x_max":794,"o":"m 794 778 l 794 0 l 233 0 l 67 167 l 67 778 l 300 778 l 300 203 l 561 203 l 561 778 l 794 778 m 611 856 l 167 856 l 167 1011 l 611 972 l 611 856 z "},"Ŭ":{"ha":903,"x_min":67,"x_max":836,"o":"m 67 169 l 67 972 l 300 972 l 300 211 l 603 211 l 603 972 l 836 972 l 836 169 l 667 0 l 236 0 l 67 169 m 553 1228 l 746 1228 l 624 1036 l 279 1036 l 157 1228 l 350 1228 l 368 1147 l 535 1147 l 553 1228 z "},"ŭ":{"ha":861,"x_min":67,"x_max":794,"o":"m 794 778 l 794 0 l 233 0 l 67 167 l 67 778 l 300 778 l 300 203 l 561 203 l 561 778 l 794 778 m 532 1033 l 725 1033 l 603 842 l 258 842 l 136 1033 l 329 1033 l 347 953 l 514 953 l 532 1033 z "},"Û":{"ha":903,"x_min":67,"x_max":836,"o":"m 67 169 l 67 972 l 300 972 l 300 211 l 603 211 l 603 972 l 836 972 l 836 169 l 667 0 l 236 0 l 67 169 m 188 1028 l 188 1172 l 451 1261 l 715 1172 l 715 1028 l 451 1117 l 188 1028 z "},"û":{"ha":861,"x_min":67,"x_max":794,"o":"m 794 778 l 794 0 l 233 0 l 67 167 l 67 778 l 300 778 l 300 203 l 561 203 l 561 778 l 794 778 m 167 833 l 167 978 l 431 1067 l 694 978 l 694 833 l 431 922 l 167 833 z "},"Ǔ":{"ha":903,"x_min":67,"x_max":836,"o":"m 67 169 l 67 972 l 300 972 l 300 211 l 603 211 l 603 972 l 836 972 l 836 169 l 667 0 l 236 0 l 67 169 m 715 1261 l 715 1117 l 451 1028 l 188 1117 l 188 1261 l 451 1172 l 715 1261 z "},"ǔ":{"ha":861,"x_min":67,"x_max":794,"o":"m 794 778 l 794 0 l 233 0 l 67 167 l 67 778 l 300 778 l 300 203 l 561 203 l 561 778 l 794 778 m 694 1067 l 694 922 l 431 833 l 167 922 l 167 1067 l 431 978 l 694 1067 z "},"Ů":{"ha":903,"x_min":67,"x_max":836,"o":"m 67 169 l 67 972 l 300 972 l 300 211 l 603 211 l 603 972 l 836 972 l 836 169 l 667 0 l 236 0 l 67 169 m 264 1085 l 264 1221 l 361 1300 l 542 1300 l 639 1221 l 639 1085 l 542 1006 l 361 1006 l 264 1085 m 381 1108 l 522 1108 l 522 1197 l 381 1197 l 381 1108 z "},"ů":{"ha":861,"x_min":67,"x_max":794,"o":"m 794 778 l 794 0 l 233 0 l 67 167 l 67 778 l 300 778 l 300 203 l 561 203 l 561 778 l 794 778 m 243 890 l 243 1026 l 340 1106 l 521 1106 l 618 1026 l 618 890 l 521 811 l 340 811 l 243 890 m 360 914 l 501 914 l 501 1003 l 360 1003 l 360 914 z "},"Ü":{"ha":903,"x_min":67,"x_max":836,"o":"m 67 169 l 67 972 l 300 972 l 300 211 l 603 211 l 603 972 l 836 972 l 836 169 l 667 0 l 236 0 l 67 169 m 174 1044 l 174 1197 l 390 1197 l 390 1044 l 174 1044 m 513 1044 l 513 1197 l 729 1197 l 729 1044 l 513 1044 z "},"ü":{"ha":861,"x_min":67,"x_max":794,"o":"m 794 778 l 794 0 l 233 0 l 67 167 l 67 778 l 300 778 l 300 203 l 561 203 l 561 778 l 794 778 m 153 850 l 153 1003 l 369 1003 l 369 850 l 153 850 m 492 850 l 492 1003 l 708 1003 l 708 850 l 492 850 z "},"Ǘ":{"ha":903,"x_min":67,"x_max":836,"o":"m 67 169 l 67 972 l 300 972 l 300 211 l 603 211 l 603 972 l 836 972 l 836 169 l 667 0 l 236 0 l 67 169 m 174 1033 l 174 1153 l 390 1153 l 390 1033 l 174 1033 m 513 1033 l 513 1153 l 729 1153 l 729 1033 l 513 1033 m 271 1231 l 271 1347 l 715 1386 l 715 1231 l 271 1231 z "},"ǘ":{"ha":861,"x_min":67,"x_max":794,"o":"m 794 778 l 794 0 l 233 0 l 67 167 l 67 778 l 300 778 l 300 203 l 561 203 l 561 778 l 794 778 m 153 839 l 153 958 l 369 958 l 369 839 l 153 839 m 492 839 l 492 958 l 708 958 l 708 839 l 492 839 m 250 1036 l 250 1153 l 694 1192 l 694 1036 l 250 1036 z "},"Ǜ":{"ha":903,"x_min":67,"x_max":836,"o":"m 67 169 l 67 972 l 300 972 l 300 211 l 603 211 l 603 972 l 836 972 l 836 169 l 667 0 l 236 0 l 67 169 m 174 1033 l 174 1153 l 390 1153 l 390 1033 l 174 1033 m 513 1033 l 513 1153 l 729 1153 l 729 1033 l 513 1033 m 632 1231 l 188 1231 l 188 1386 l 632 1347 l 632 1231 z "},"ǜ":{"ha":861,"x_min":67,"x_max":794,"o":"m 794 778 l 794 0 l 233 0 l 67 167 l 67 778 l 300 778 l 300 203 l 561 203 l 561 778 l 794 778 m 153 839 l 153 958 l 369 958 l 369 839 l 153 839 m 492 839 l 492 958 l 708 958 l 708 839 l 492 839 m 611 1036 l 167 1036 l 167 1192 l 611 1153 l 611 1036 z "},"Ǚ":{"ha":903,"x_min":67,"x_max":836,"o":"m 67 169 l 67 972 l 300 972 l 300 211 l 603 211 l 603 972 l 836 972 l 836 169 l 667 0 l 236 0 l 67 169 m 174 1033 l 174 1153 l 390 1153 l 390 1033 l 174 1033 m 513 1033 l 513 1153 l 729 1153 l 729 1033 l 513 1033 m 715 1389 l 715 1272 l 451 1183 l 188 1272 l 188 1389 l 451 1300 l 715 1389 z "},"ǚ":{"ha":861,"x_min":67,"x_max":794,"o":"m 794 778 l 794 0 l 233 0 l 67 167 l 67 778 l 300 778 l 300 203 l 561 203 l 561 778 l 794 778 m 153 839 l 153 958 l 369 958 l 369 839 l 153 839 m 492 839 l 492 958 l 708 958 l 708 839 l 492 839 m 694 1194 l 694 1078 l 431 989 l 167 1078 l 167 1194 l 431 1106 l 694 1194 z "},"Ǖ":{"ha":903,"x_min":67,"x_max":836,"o":"m 67 169 l 67 972 l 300 972 l 300 211 l 603 211 l 603 972 l 836 972 l 836 169 l 667 0 l 236 0 l 67 169 m 174 1033 l 174 1153 l 390 1153 l 390 1033 l 174 1033 m 513 1033 l 513 1153 l 729 1153 l 729 1033 l 513 1033 m 215 1211 l 215 1308 l 688 1308 l 688 1211 l 215 1211 z "},"ǖ":{"ha":861,"x_min":67,"x_max":794,"o":"m 794 778 l 794 0 l 233 0 l 67 167 l 67 778 l 300 778 l 300 203 l 561 203 l 561 778 l 794 778 m 153 839 l 153 958 l 369 958 l 369 839 l 153 839 m 492 839 l 492 958 l 708 958 l 708 839 l 492 839 m 194 1017 l 194 1114 l 667 1114 l 667 1017 l 194 1017 z "},"Ű":{"ha":903,"x_min":67,"x_max":836,"o":"m 67 169 l 67 972 l 300 972 l 300 211 l 603 211 l 603 972 l 836 972 l 836 169 l 667 0 l 236 0 l 67 169 m 256 1025 l 311 1208 l 500 1208 l 397 1025 l 256 1025 m 474 1025 l 557 1208 l 746 1208 l 618 1025 l 474 1025 z "},"ű":{"ha":861,"x_min":67,"x_max":794,"o":"m 794 778 l 794 0 l 233 0 l 67 167 l 67 778 l 300 778 l 300 203 l 561 203 l 561 778 l 794 778 m 235 831 l 290 1014 l 479 1014 l 376 831 l 235 831 m 453 831 l 536 1014 l 725 1014 l 597 831 l 453 831 z "},"Ũ":{"ha":903,"x_min":67,"x_max":836,"o":"m 67 169 l 67 972 l 300 972 l 300 211 l 603 211 l 603 972 l 836 972 l 836 169 l 667 0 l 236 0 l 67 169 m 188 1014 l 160 1146 l 299 1235 l 582 1168 l 715 1236 l 743 1104 l 604 1015 l 321 1082 l 188 1014 z "},"ũ":{"ha":861,"x_min":67,"x_max":794,"o":"m 794 778 l 794 0 l 233 0 l 67 167 l 67 778 l 300 778 l 300 203 l 561 203 l 561 778 l 794 778 m 167 819 l 139 951 l 278 1040 l 561 974 l 694 1042 l 722 910 l 583 821 l 300 888 l 167 819 z "},"Ų":{"ha":903,"x_min":67,"x_max":836,"o":"m 67 169 l 67 972 l 300 972 l 300 211 l 603 211 l 603 972 l 836 972 l 836 169 l 667 0 l 236 0 l 67 169 m 613 -67 l 557 -278 l 344 -278 l 447 -67 l 613 -67 z "},"ų":{"ha":861,"x_min":67,"x_max":794,"o":"m 794 778 l 794 0 l 233 0 l 67 167 l 67 778 l 300 778 l 300 203 l 561 203 l 561 778 l 794 778 m 751 -67 l 696 -278 l 483 -278 l 586 -67 l 751 -67 z "},"Ū":{"ha":903,"x_min":67,"x_max":836,"o":"m 67 169 l 67 972 l 300 972 l 300 211 l 603 211 l 603 972 l 836 972 l 836 169 l 667 0 l 236 0 l 67 169 m 215 1058 l 215 1208 l 688 1208 l 688 1058 l 215 1058 z "},"ū":{"ha":861,"x_min":67,"x_max":794,"o":"m 794 778 l 794 0 l 233 0 l 67 167 l 67 778 l 300 778 l 300 203 l 561 203 l 561 778 l 794 778 m 194 864 l 194 1014 l 667 1014 l 667 864 l 194 864 z "},"Ȕ":{"ha":903,"x_min":67,"x_max":836,"o":"m 67 169 l 67 972 l 300 972 l 300 211 l 603 211 l 603 972 l 836 972 l 836 169 l 667 0 l 236 0 l 67 169 m 592 1208 l 647 1025 l 506 1025 l 403 1208 l 592 1208 m 346 1208 l 429 1025 l 285 1025 l 157 1208 l 346 1208 z "},"ȕ":{"ha":861,"x_min":67,"x_max":794,"o":"m 794 778 l 794 0 l 233 0 l 67 167 l 67 778 l 300 778 l 300 203 l 561 203 l 561 778 l 794 778 m 571 1014 l 626 831 l 485 831 l 382 1014 l 571 1014 m 325 1014 l 408 831 l 264 831 l 136 1014 l 325 1014 z "},"Ȗ":{"ha":903,"x_min":67,"x_max":836,"o":"m 67 169 l 67 972 l 300 972 l 300 211 l 603 211 l 603 972 l 836 972 l 836 169 l 667 0 l 236 0 l 67 169 m 350 1026 l 157 1026 l 279 1218 l 624 1218 l 746 1026 l 553 1026 l 535 1107 l 368 1107 l 350 1026 z "},"ȗ":{"ha":861,"x_min":67,"x_max":794,"o":"m 794 778 l 794 0 l 233 0 l 67 167 l 67 778 l 300 778 l 300 203 l 561 203 l 561 778 l 794 778 m 329 832 l 136 832 l 258 1024 l 603 1024 l 725 832 l 532 832 l 514 913 l 347 913 l 329 832 z "},"Ʉ":{"ha":903,"x_min":7,"x_max":896,"o":"m 7 467 l 7 601 l 896 601 l 896 467 l 7 467 m 67 169 l 67 972 l 300 972 l 300 211 l 603 211 l 603 972 l 836 972 l 836 169 l 667 0 l 236 0 l 67 169 z "},"ʉ":{"ha":861,"x_min":10,"x_max":851,"o":"m 10 394 l 10 528 l 851 528 l 851 394 l 10 394 m 794 778 l 794 0 l 233 0 l 67 167 l 67 778 l 300 778 l 300 203 l 561 203 l 561 778 l 794 778 z "},"Ṽ":{"ha":911,"x_min":15,"x_max":896,"o":"m 229 0 l 15 972 l 269 972 l 413 211 l 499 211 l 643 972 l 896 972 l 682 0 l 229 0 m 192 1014 l 164 1146 l 303 1235 l 586 1168 l 719 1236 l 747 1104 l 608 1015 l 325 1082 l 192 1014 z "},"ṽ":{"ha":806,"x_min":10,"x_max":796,"o":"m 185 0 l 10 778 l 249 778 l 354 194 l 454 194 l 561 778 l 796 778 l 621 0 l 185 0 m 139 819 l 111 951 l 250 1040 l 533 974 l 667 1042 l 694 910 l 556 821 l 272 888 l 139 819 z "},"Ʋ":{"ha":903,"x_min":67,"x_max":836,"o":"m 236 0 l 67 169 l 67 972 l 300 972 l 300 211 l 603 211 l 603 769 l 428 769 l 428 972 l 694 972 l 836 831 l 836 169 l 667 0 l 236 0 z "},"ʋ":{"ha":861,"x_min":67,"x_max":794,"o":"m 228 0 l 67 161 l 67 778 l 300 778 l 300 203 l 561 203 l 561 583 l 428 583 l 428 778 l 653 778 l 794 636 l 794 161 l 633 0 l 228 0 z "},"Ẃ":{"ha":1186,"x_min":11,"x_max":1175,"o":"m 167 0 l 11 972 l 261 972 l 360 244 l 404 244 l 507 819 l 679 819 l 782 244 l 826 244 l 925 972 l 1175 972 l 1019 0 l 688 0 l 593 518 l 499 0 l 167 0 m 413 1050 l 413 1167 l 857 1206 l 857 1050 l 413 1050 z "},"ẃ":{"ha":1167,"x_min":35,"x_max":1132,"o":"m 151 0 l 35 778 l 271 778 l 343 194 l 381 194 l 475 700 l 692 700 l 786 194 l 824 194 l 896 778 l 1132 778 l 1015 0 l 678 0 l 583 465 l 489 0 l 151 0 m 403 856 l 403 972 l 847 1011 l 847 856 l 403 856 z "},"Ẁ":{"ha":1186,"x_min":11,"x_max":1175,"o":"m 167 0 l 11 972 l 261 972 l 360 244 l 404 244 l 507 819 l 679 819 l 782 244 l 826 244 l 925 972 l 1175 972 l 1019 0 l 688 0 l 593 518 l 499 0 l 167 0 m 774 1050 l 329 1050 l 329 1206 l 774 1167 l 774 1050 z "},"ẁ":{"ha":1167,"x_min":35,"x_max":1132,"o":"m 151 0 l 35 778 l 271 778 l 343 194 l 381 194 l 475 700 l 692 700 l 786 194 l 824 194 l 896 778 l 1132 778 l 1015 0 l 678 0 l 583 465 l 489 0 l 151 0 m 764 856 l 319 856 l 319 1011 l 764 972 l 764 856 z "},"Ŵ":{"ha":1186,"x_min":11,"x_max":1175,"o":"m 167 0 l 11 972 l 261 972 l 360 244 l 404 244 l 507 819 l 679 819 l 782 244 l 826 244 l 925 972 l 1175 972 l 1019 0 l 688 0 l 593 518 l 499 0 l 167 0 m 329 1028 l 329 1172 l 593 1261 l 857 1172 l 857 1028 l 593 1117 l 329 1028 z "},"ŵ":{"ha":1167,"x_min":35,"x_max":1132,"o":"m 151 0 l 35 778 l 271 778 l 343 194 l 381 194 l 475 700 l 692 700 l 786 194 l 824 194 l 896 778 l 1132 778 l 1015 0 l 678 0 l 583 465 l 489 0 l 151 0 m 319 833 l 319 978 l 583 1067 l 847 978 l 847 833 l 583 922 l 319 833 z "},"Ẅ":{"ha":1186,"x_min":11,"x_max":1175,"o":"m 167 0 l 11 972 l 261 972 l 360 244 l 404 244 l 507 819 l 679 819 l 782 244 l 826 244 l 925 972 l 1175 972 l 1019 0 l 688 0 l 593 518 l 499 0 l 167 0 m 315 1044 l 315 1197 l 532 1197 l 532 1044 l 315 1044 m 654 1044 l 654 1197 l 871 1197 l 871 1044 l 654 1044 z "},"ẅ":{"ha":1167,"x_min":35,"x_max":1132,"o":"m 151 0 l 35 778 l 271 778 l 343 194 l 381 194 l 475 700 l 692 700 l 786 194 l 824 194 l 896 778 l 1132 778 l 1015 0 l 678 0 l 583 465 l 489 0 l 151 0 m 306 850 l 306 1003 l 522 1003 l 522 850 l 306 850 m 644 850 l 644 1003 l 861 1003 l 861 850 l 644 850 z "},"Ý":{"ha":889,"x_min":18,"x_max":871,"o":"m 328 0 l 328 292 l 210 292 l 18 972 l 267 972 l 385 493 l 504 493 l 622 972 l 871 972 l 679 292 l 561 292 l 561 0 l 328 0 m 264 1050 l 264 1167 l 708 1206 l 708 1050 l 264 1050 z "},"ý":{"ha":833,"x_min":10,"x_max":824,"o":"m 56 -194 l 56 0 l 403 0 l 432 111 l 192 111 l 10 778 l 249 778 l 365 297 l 474 297 l 586 778 l 824 778 l 568 -194 l 56 -194 m 236 856 l 236 972 l 681 1011 l 681 856 l 236 856 z "},"Ỳ":{"ha":889,"x_min":18,"x_max":871,"o":"m 328 0 l 328 292 l 210 292 l 18 972 l 267 972 l 385 493 l 504 493 l 622 972 l 871 972 l 679 292 l 561 292 l 561 0 l 328 0 m 625 1050 l 181 1050 l 181 1206 l 625 1167 l 625 1050 z "},"ỳ":{"ha":833,"x_min":10,"x_max":824,"o":"m 56 -194 l 56 0 l 403 0 l 432 111 l 192 111 l 10 778 l 249 778 l 365 297 l 474 297 l 586 778 l 824 778 l 568 -194 l 56 -194 m 597 856 l 153 856 l 153 1011 l 597 972 l 597 856 z "},"Ŷ":{"ha":889,"x_min":18,"x_max":871,"o":"m 328 0 l 328 292 l 210 292 l 18 972 l 267 972 l 385 493 l 504 493 l 622 972 l 871 972 l 679 292 l 561 292 l 561 0 l 328 0 m 181 1028 l 181 1172 l 444 1261 l 708 1172 l 708 1028 l 444 1117 l 181 1028 z "},"ŷ":{"ha":833,"x_min":10,"x_max":824,"o":"m 56 -194 l 56 0 l 403 0 l 432 111 l 192 111 l 10 778 l 249 778 l 365 297 l 474 297 l 586 778 l 824 778 l 568 -194 l 56 -194 m 153 833 l 153 978 l 417 1067 l 681 978 l 681 833 l 417 922 l 153 833 z "},"Ÿ":{"ha":889,"x_min":18,"x_max":871,"o":"m 328 0 l 328 292 l 210 292 l 18 972 l 267 972 l 385 493 l 504 493 l 622 972 l 871 972 l 679 292 l 561 292 l 561 0 l 328 0 m 167 1044 l 167 1197 l 383 1197 l 383 1044 l 167 1044 m 506 1044 l 506 1197 l 722 1197 l 722 1044 l 506 1044 z "},"ÿ":{"ha":833,"x_min":10,"x_max":824,"o":"m 56 -194 l 56 0 l 403 0 l 432 111 l 192 111 l 10 778 l 249 778 l 365 297 l 474 297 l 586 778 l 824 778 l 568 -194 l 56 -194 m 139 850 l 139 1003 l 356 1003 l 356 850 l 139 850 m 478 850 l 478 1003 l 694 1003 l 694 850 l 478 850 z "},"Ỹ":{"ha":889,"x_min":18,"x_max":871,"o":"m 328 0 l 328 292 l 210 292 l 18 972 l 267 972 l 385 493 l 504 493 l 622 972 l 871 972 l 679 292 l 561 292 l 561 0 l 328 0 m 181 1014 l 153 1146 l 292 1235 l 575 1168 l 708 1236 l 736 1104 l 597 1015 l 314 1082 l 181 1014 z "},"ỹ":{"ha":833,"x_min":10,"x_max":824,"o":"m 56 -194 l 56 0 l 403 0 l 432 111 l 192 111 l 10 778 l 249 778 l 365 297 l 474 297 l 586 778 l 824 778 l 568 -194 l 56 -194 m 153 819 l 125 951 l 264 1040 l 547 974 l 681 1042 l 708 910 l 569 821 l 286 888 l 153 819 z "},"Ȳ":{"ha":889,"x_min":18,"x_max":871,"o":"m 328 0 l 328 292 l 210 292 l 18 972 l 267 972 l 385 493 l 504 493 l 622 972 l 871 972 l 679 292 l 561 292 l 561 0 l 328 0 m 208 1058 l 208 1208 l 681 1208 l 681 1058 l 208 1058 z "},"ȳ":{"ha":833,"x_min":10,"x_max":824,"o":"m 56 -194 l 56 0 l 403 0 l 432 111 l 192 111 l 10 778 l 249 778 l 365 297 l 474 297 l 586 778 l 824 778 l 568 -194 l 56 -194 m 181 864 l 181 1014 l 653 1014 l 653 864 l 181 864 z "},"Ƴ":{"ha":897,"x_min":18,"x_max":890,"o":"m 328 0 l 328 292 l 210 292 l 18 972 l 267 972 l 385 493 l 504 493 l 593 883 l 682 972 l 890 972 l 890 769 l 804 769 l 679 292 l 561 292 l 561 0 l 328 0 z "},"ƴ":{"ha":833,"x_min":10,"x_max":850,"o":"m 56 -194 l 56 0 l 408 0 l 432 111 l 192 111 l 10 778 l 249 778 l 365 297 l 469 297 l 575 875 l 672 972 l 850 972 l 850 794 l 775 794 l 582 -194 l 56 -194 z "},"Ź":{"ha":782,"x_min":44,"x_max":738,"o":"m 44 0 l 44 172 l 471 778 l 49 778 l 49 972 l 733 972 l 733 800 l 307 194 l 738 194 l 738 0 l 44 0 m 211 1050 l 211 1167 l 656 1206 l 656 1050 l 211 1050 z "},"ź":{"ha":736,"x_min":33,"x_max":703,"o":"m 33 0 l 33 167 l 413 583 l 38 583 l 38 778 l 700 778 l 700 611 l 321 194 l 703 194 l 703 0 l 33 0 m 188 856 l 188 972 l 632 1011 l 632 856 l 188 856 z "},"Ž":{"ha":782,"x_min":44,"x_max":738,"o":"m 44 0 l 44 172 l 471 778 l 49 778 l 49 972 l 733 972 l 733 800 l 307 194 l 738 194 l 738 0 l 44 0 m 656 1261 l 656 1117 l 392 1028 l 128 1117 l 128 1261 l 392 1172 l 656 1261 z "},"ž":{"ha":736,"x_min":33,"x_max":703,"o":"m 33 0 l 33 167 l 413 583 l 38 583 l 38 778 l 700 778 l 700 611 l 321 194 l 703 194 l 703 0 l 33 0 m 632 1067 l 632 922 l 368 833 l 104 922 l 104 1067 l 368 978 l 632 1067 z "},"Ż":{"ha":782,"x_min":44,"x_max":738,"o":"m 44 0 l 44 172 l 471 778 l 49 778 l 49 972 l 733 972 l 733 800 l 307 194 l 738 194 l 738 0 l 44 0 m 275 1044 l 275 1197 l 508 1197 l 508 1044 l 275 1044 z "},"ż":{"ha":736,"x_min":33,"x_max":703,"o":"m 33 0 l 33 167 l 413 583 l 38 583 l 38 778 l 700 778 l 700 611 l 321 194 l 703 194 l 703 0 l 33 0 m 251 850 l 251 1003 l 485 1003 l 485 850 l 251 850 z "},"Ẓ":{"ha":782,"x_min":44,"x_max":738,"o":"m 44 0 l 44 172 l 471 778 l 49 778 l 49 972 l 733 972 l 733 800 l 307 194 l 738 194 l 738 0 l 44 0 m 275 -247 l 275 -94 l 508 -94 l 508 -247 l 275 -247 z "},"ẓ":{"ha":736,"x_min":33,"x_max":703,"o":"m 33 0 l 33 167 l 413 583 l 38 583 l 38 778 l 700 778 l 700 611 l 321 194 l 703 194 l 703 0 l 33 0 m 251 -247 l 251 -94 l 485 -94 l 485 -247 l 251 -247 z "},"Ʒ":{"ha":847,"x_min":39,"x_max":808,"o":"m 647 0 l 39 0 l 39 194 l 571 194 l 571 406 l 183 406 l 183 564 l 468 778 l 56 778 l 56 972 l 781 972 l 781 817 l 426 572 l 694 572 l 808 458 l 808 161 l 647 0 z "},"ʒ":{"ha":831,"x_min":39,"x_max":792,"o":"m 631 -194 l 39 -194 l 39 0 l 554 0 l 554 197 l 167 197 l 167 356 l 451 583 l 56 583 l 56 778 l 764 778 l 764 622 l 410 364 l 678 364 l 792 250 l 792 -33 l 631 -194 z "},"Ǯ":{"ha":847,"x_min":39,"x_max":808,"o":"m 647 0 l 39 0 l 39 194 l 571 194 l 571 406 l 183 406 l 183 564 l 468 778 l 56 778 l 56 972 l 781 972 l 781 817 l 426 572 l 694 572 l 808 458 l 808 161 l 647 0 m 688 1261 l 688 1117 l 424 1028 l 160 1117 l 160 1261 l 424 1172 l 688 1261 z "},"ǯ":{"ha":831,"x_min":39,"x_max":792,"o":"m 631 -194 l 39 -194 l 39 0 l 554 0 l 554 197 l 167 197 l 167 356 l 451 583 l 56 583 l 56 778 l 764 778 l 764 622 l 410 364 l 678 364 l 792 250 l 792 -33 l 631 -194 m 679 1067 l 679 922 l 415 833 l 151 922 l 151 1067 l 415 978 l 679 1067 z "},"Þ":{"ha":889,"x_min":67,"x_max":850,"o":"m 67 0 l 67 972 l 300 972 l 300 861 l 681 861 l 850 692 l 850 294 l 681 125 l 300 125 l 300 0 l 67 0 m 300 311 l 617 311 l 617 675 l 300 675 l 300 311 z "},"þ":{"ha":861,"x_min":67,"x_max":806,"o":"m 67 -194 l 67 972 l 300 972 l 300 778 l 631 778 l 806 603 l 806 175 l 631 0 l 300 0 l 300 -194 l 67 -194 m 300 194 l 572 194 l 572 583 l 300 583 l 300 194 z "},"ʔ":{"ha":772,"x_min":21,"x_max":751,"o":"m 386 0 l 169 0 l 169 540 l 535 628 l 535 769 l 21 769 l 21 972 l 585 972 l 751 806 l 751 490 l 386 392 l 386 0 z "},"Ꞌ":{"ha":378,"x_min":56,"x_max":322,"o":"m 99 278 l 56 972 l 322 972 l 279 278 l 99 278 z "},"ꞌ":{"ha":333,"x_min":42,"x_max":292,"o":"m 76 417 l 42 972 l 292 972 l 257 417 l 76 417 z "},"ǀ":{"ha":364,"x_min":76,"x_max":288,"o":"m 76 -42 l 76 1014 l 288 1014 l 288 -42 l 76 -42 z "},"ǁ":{"ha":664,"x_min":72,"x_max":592,"o":"m 72 -42 l 72 1014 l 283 1014 l 283 -42 l 72 -42 m 381 -42 l 381 1014 l 592 1014 l 592 -42 l 381 -42 z "},"ǂ":{"ha":833,"x_min":56,"x_max":778,"o":"m 311 -42 l 311 239 l 56 239 l 56 425 l 311 425 l 311 547 l 56 547 l 56 733 l 311 733 l 311 1014 l 522 1014 l 522 733 l 778 733 l 778 547 l 522 547 l 522 425 l 778 425 l 778 239 l 522 239 l 522 -42 l 311 -42 z "},"ǃ":{"ha":400,"x_min":67,"x_max":333,"o":"m 92 0 l 92 222 l 308 222 l 308 0 l 92 0 m 110 331 l 67 972 l 333 972 l 290 331 l 110 331 z "},"Ạ":{"ha":911,"x_min":15,"x_max":896,"o":"m 15 0 l 229 972 l 682 972 l 896 0 l 649 0 l 608 208 l 303 208 l 263 0 l 15 0 m 332 376 l 579 376 l 499 788 l 413 788 l 332 376 m 339 -247 l 339 -94 l 572 -94 l 572 -247 l 339 -247 z "},"ạ":{"ha":833,"x_min":53,"x_max":767,"o":"m 53 167 l 53 444 l 533 458 l 533 583 l 81 583 l 81 778 l 600 778 l 767 611 l 767 0 l 219 0 l 53 167 m 286 317 l 286 186 l 533 186 l 533 344 l 286 317 m 275 -247 l 275 -94 l 508 -94 l 508 -247 l 275 -247 z "},"Ả":{"ha":911,"x_min":15,"x_max":896,"o":"m 15 0 l 229 972 l 682 972 l 896 0 l 649 0 l 608 208 l 303 208 l 263 0 l 15 0 m 332 376 l 579 376 l 499 788 l 413 788 l 332 376 m 322 1117 l 322 1208 l 600 1208 l 600 1117 l 503 1014 l 364 1014 l 461 1117 l 322 1117 z "},"ả":{"ha":833,"x_min":53,"x_max":767,"o":"m 53 167 l 53 444 l 533 458 l 533 583 l 81 583 l 81 778 l 600 778 l 767 611 l 767 0 l 219 0 l 53 167 m 286 317 l 286 186 l 533 186 l 533 344 l 286 317 m 258 922 l 258 1014 l 536 1014 l 536 922 l 439 819 l 300 819 l 397 922 l 258 922 z "},"Ấ":{"ha":911,"x_min":15,"x_max":896,"o":"m 15 0 l 229 972 l 682 972 l 896 0 l 649 0 l 608 208 l 303 208 l 263 0 l 15 0 m 332 376 l 579 376 l 499 788 l 413 788 l 332 376 m 514 1250 l 514 1331 l 744 1389 l 744 1272 l 514 1250 m 192 1018 l 192 1163 l 456 1247 l 719 1163 l 719 1018 l 456 1103 l 192 1018 z "},"ấ":{"ha":833,"x_min":53,"x_max":767,"o":"m 53 167 l 53 444 l 533 458 l 533 583 l 81 583 l 81 778 l 600 778 l 767 611 l 767 0 l 219 0 l 53 167 m 286 317 l 286 186 l 533 186 l 533 344 l 286 317 m 450 1056 l 450 1136 l 681 1194 l 681 1078 l 450 1056 m 128 824 l 128 968 l 392 1053 l 656 968 l 656 824 l 392 908 l 128 824 z "},"Ầ":{"ha":911,"x_min":15,"x_max":896,"o":"m 15 0 l 229 972 l 682 972 l 896 0 l 649 0 l 608 208 l 303 208 l 263 0 l 15 0 m 332 376 l 579 376 l 499 788 l 413 788 l 332 376 m 736 1239 l 506 1274 l 506 1389 l 736 1325 l 736 1239 m 192 1018 l 192 1163 l 456 1251 l 719 1163 l 719 1018 l 456 1107 l 192 1018 z "},"ầ":{"ha":833,"x_min":53,"x_max":767,"o":"m 53 167 l 53 444 l 533 458 l 533 583 l 81 583 l 81 778 l 600 778 l 767 611 l 767 0 l 219 0 l 53 167 m 286 317 l 286 186 l 533 186 l 533 344 l 286 317 m 672 1044 l 442 1079 l 442 1194 l 672 1131 l 672 1044 m 128 824 l 128 968 l 392 1057 l 656 968 l 656 824 l 392 913 l 128 824 z "},"Ẩ":{"ha":911,"x_min":15,"x_max":896,"o":"m 15 0 l 229 972 l 682 972 l 896 0 l 649 0 l 608 208 l 303 208 l 263 0 l 15 0 m 332 376 l 579 376 l 499 788 l 413 788 l 332 376 m 192 1018 l 192 1163 l 456 1251 l 719 1163 l 719 1018 l 456 1107 l 192 1018 m 578 1308 l 578 1389 l 726 1389 l 799 1319 l 704 1213 l 614 1240 l 675 1308 l 578 1308 z "},"ẩ":{"ha":833,"x_min":53,"x_max":767,"o":"m 53 167 l 53 444 l 533 458 l 533 583 l 81 583 l 81 778 l 600 778 l 767 611 l 767 0 l 219 0 l 53 167 m 286 317 l 286 186 l 533 186 l 533 344 l 286 317 m 128 824 l 128 968 l 392 1057 l 656 968 l 656 824 l 392 913 l 128 824 m 514 1114 l 514 1194 l 663 1194 l 735 1125 l 640 1018 l 550 1046 l 611 1114 l 514 1114 z "},"Ẫ":{"ha":911,"x_min":15,"x_max":896,"o":"m 15 0 l 229 972 l 682 972 l 896 0 l 649 0 l 608 208 l 303 208 l 263 0 l 15 0 m 332 376 l 579 376 l 499 788 l 413 788 l 332 376 m 192 1007 l 192 1140 l 456 1219 l 719 1140 l 719 1007 l 456 1083 l 192 1007 m 258 1232 l 231 1315 l 350 1389 l 553 1338 l 653 1389 l 681 1306 l 561 1232 l 358 1283 l 258 1232 z "},"ẫ":{"ha":833,"x_min":53,"x_max":767,"o":"m 53 167 l 53 444 l 533 458 l 533 583 l 81 583 l 81 778 l 600 778 l 767 611 l 767 0 l 219 0 l 53 167 m 286 317 l 286 186 l 533 186 l 533 344 l 286 317 m 128 813 l 128 946 l 392 1025 l 656 946 l 656 813 l 392 889 l 128 813 m 194 1038 l 167 1121 l 286 1194 l 489 1143 l 589 1194 l 617 1111 l 497 1038 l 294 1089 l 194 1038 z "},"Ậ":{"ha":911,"x_min":15,"x_max":896,"o":"m 15 0 l 229 972 l 682 972 l 896 0 l 649 0 l 608 208 l 303 208 l 263 0 l 15 0 m 332 376 l 579 376 l 499 788 l 413 788 l 332 376 m 339 -247 l 339 -94 l 572 -94 l 572 -247 l 339 -247 m 192 1028 l 192 1172 l 456 1261 l 719 1172 l 719 1028 l 456 1117 l 192 1028 z "},"ậ":{"ha":833,"x_min":53,"x_max":767,"o":"m 53 167 l 53 444 l 533 458 l 533 583 l 81 583 l 81 778 l 600 778 l 767 611 l 767 0 l 219 0 l 53 167 m 286 317 l 286 186 l 533 186 l 533 344 l 286 317 m 275 -247 l 275 -94 l 508 -94 l 508 -247 l 275 -247 m 128 833 l 128 978 l 392 1067 l 656 978 l 656 833 l 392 922 l 128 833 z "},"Ắ":{"ha":911,"x_min":15,"x_max":896,"o":"m 15 0 l 229 972 l 682 972 l 896 0 l 649 0 l 608 208 l 303 208 l 263 0 l 15 0 m 332 376 l 579 376 l 499 788 l 413 788 l 332 376 m 422 1246 l 422 1331 l 653 1389 l 653 1272 l 422 1246 m 558 1228 l 750 1228 l 628 1036 l 283 1036 l 161 1228 l 353 1228 l 371 1147 l 540 1147 l 558 1228 z "},"ắ":{"ha":833,"x_min":53,"x_max":767,"o":"m 53 167 l 53 444 l 533 458 l 533 583 l 81 583 l 81 778 l 600 778 l 767 611 l 767 0 l 219 0 l 53 167 m 286 317 l 286 186 l 533 186 l 533 344 l 286 317 m 358 1051 l 358 1136 l 589 1194 l 589 1078 l 358 1051 m 494 1033 l 686 1033 l 564 842 l 219 842 l 97 1033 l 289 1033 l 307 953 l 476 953 l 494 1033 z "},"Ằ":{"ha":911,"x_min":15,"x_max":896,"o":"m 15 0 l 229 972 l 682 972 l 896 0 l 649 0 l 608 208 l 303 208 l 263 0 l 15 0 m 332 376 l 579 376 l 499 788 l 413 788 l 332 376 m 489 1239 l 258 1274 l 258 1389 l 489 1325 l 489 1239 m 558 1228 l 750 1228 l 628 1036 l 283 1036 l 161 1228 l 353 1228 l 371 1147 l 540 1147 l 558 1228 z "},"ằ":{"ha":833,"x_min":53,"x_max":767,"o":"m 53 167 l 53 444 l 533 458 l 533 583 l 81 583 l 81 778 l 600 778 l 767 611 l 767 0 l 219 0 l 53 167 m 286 317 l 286 186 l 533 186 l 533 344 l 286 317 m 425 1044 l 194 1079 l 194 1194 l 425 1131 l 425 1044 m 494 1033 l 686 1033 l 564 842 l 219 842 l 97 1033 l 289 1033 l 307 953 l 476 953 l 494 1033 z "},"Ẳ":{"ha":911,"x_min":15,"x_max":896,"o":"m 15 0 l 229 972 l 682 972 l 896 0 l 649 0 l 608 208 l 303 208 l 263 0 l 15 0 m 332 376 l 579 376 l 499 788 l 413 788 l 332 376 m 367 1308 l 367 1389 l 515 1389 l 588 1319 l 493 1213 l 403 1240 l 464 1308 l 367 1308 m 558 1228 l 750 1228 l 628 1036 l 283 1036 l 161 1228 l 353 1228 l 371 1147 l 540 1147 l 558 1228 z "},"ẳ":{"ha":833,"x_min":53,"x_max":767,"o":"m 53 167 l 53 444 l 533 458 l 533 583 l 81 583 l 81 778 l 600 778 l 767 611 l 767 0 l 219 0 l 53 167 m 286 317 l 286 186 l 533 186 l 533 344 l 286 317 m 303 1114 l 303 1194 l 451 1194 l 524 1125 l 429 1018 l 339 1046 l 400 1114 l 303 1114 m 494 1033 l 686 1033 l 564 842 l 219 842 l 97 1033 l 289 1033 l 307 953 l 476 953 l 494 1033 z "},"Ẵ":{"ha":911,"x_min":15,"x_max":896,"o":"m 15 0 l 229 972 l 682 972 l 896 0 l 649 0 l 608 208 l 303 208 l 263 0 l 15 0 m 332 376 l 579 376 l 499 788 l 413 788 l 332 376 m 269 1236 l 242 1319 l 350 1389 l 553 1338 l 642 1389 l 669 1306 l 561 1232 l 358 1283 l 269 1236 m 563 1215 l 753 1215 l 631 1033 l 281 1033 l 158 1215 l 349 1215 l 367 1144 l 544 1144 l 563 1215 z "},"ẵ":{"ha":833,"x_min":53,"x_max":767,"o":"m 53 167 l 53 444 l 533 458 l 533 583 l 81 583 l 81 778 l 600 778 l 767 611 l 767 0 l 219 0 l 53 167 m 286 317 l 286 186 l 533 186 l 533 344 l 286 317 m 206 1042 l 178 1125 l 286 1194 l 489 1143 l 578 1194 l 606 1111 l 497 1038 l 294 1089 l 206 1042 m 499 1021 l 689 1021 l 567 839 l 217 839 l 94 1021 l 285 1021 l 303 950 l 481 950 l 499 1021 z "},"Ặ":{"ha":911,"x_min":15,"x_max":896,"o":"m 15 0 l 229 972 l 682 972 l 896 0 l 649 0 l 608 208 l 303 208 l 263 0 l 15 0 m 332 376 l 579 376 l 499 788 l 413 788 l 332 376 m 339 -247 l 339 -94 l 572 -94 l 572 -247 l 339 -247 m 557 1228 l 750 1228 l 628 1036 l 283 1036 l 161 1228 l 354 1228 l 372 1147 l 539 1147 l 557 1228 z "},"ặ":{"ha":833,"x_min":53,"x_max":767,"o":"m 53 167 l 53 444 l 533 458 l 533 583 l 81 583 l 81 778 l 600 778 l 767 611 l 767 0 l 219 0 l 53 167 m 286 317 l 286 186 l 533 186 l 533 344 l 286 317 m 275 -247 l 275 -94 l 508 -94 l 508 -247 l 275 -247 m 493 1033 l 686 1033 l 564 842 l 219 842 l 97 1033 l 290 1033 l 308 953 l 475 953 l 493 1033 z "},"Ẹ":{"ha":806,"x_min":67,"x_max":764,"o":"m 67 0 l 67 972 l 750 972 l 750 778 l 300 778 l 300 589 l 681 589 l 681 403 l 300 403 l 300 194 l 764 194 l 764 0 l 67 0 m 299 -247 l 299 -94 l 532 -94 l 532 -247 l 299 -247 z "},"ẹ":{"ha":819,"x_min":56,"x_max":764,"o":"m 56 158 l 56 619 l 214 778 l 764 778 l 764 339 l 289 339 l 289 194 l 736 194 l 736 0 l 214 0 l 56 158 m 289 453 l 567 467 l 567 600 l 289 600 l 289 453 m 314 -247 l 314 -94 l 547 -94 l 547 -247 l 314 -247 z "},"Ẻ":{"ha":806,"x_min":67,"x_max":764,"o":"m 67 0 l 67 972 l 750 972 l 750 778 l 300 778 l 300 589 l 681 589 l 681 403 l 300 403 l 300 194 l 764 194 l 764 0 l 67 0 m 282 1117 l 282 1208 l 560 1208 l 560 1117 l 463 1014 l 324 1014 l 421 1117 l 282 1117 z "},"ẻ":{"ha":819,"x_min":56,"x_max":764,"o":"m 56 158 l 56 619 l 214 778 l 764 778 l 764 339 l 289 339 l 289 194 l 736 194 l 736 0 l 214 0 l 56 158 m 289 453 l 567 467 l 567 600 l 289 600 l 289 453 m 297 922 l 297 1014 l 575 1014 l 575 922 l 478 819 l 339 819 l 436 922 l 297 922 z "},"Ẽ":{"ha":806,"x_min":67,"x_max":764,"o":"m 67 0 l 67 972 l 750 972 l 750 778 l 300 778 l 300 589 l 681 589 l 681 403 l 300 403 l 300 194 l 764 194 l 764 0 l 67 0 m 151 1014 l 124 1146 l 263 1235 l 546 1168 l 679 1236 l 707 1104 l 568 1015 l 285 1082 l 151 1014 z "},"ẽ":{"ha":819,"x_min":56,"x_max":764,"o":"m 56 158 l 56 619 l 214 778 l 764 778 l 764 339 l 289 339 l 289 194 l 736 194 l 736 0 l 214 0 l 56 158 m 289 453 l 567 467 l 567 600 l 289 600 l 289 453 m 167 819 l 139 951 l 278 1040 l 561 974 l 694 1042 l 722 910 l 583 821 l 300 888 l 167 819 z "},"Ế":{"ha":806,"x_min":67,"x_max":764,"o":"m 67 0 l 67 972 l 750 972 l 750 778 l 300 778 l 300 589 l 681 589 l 681 403 l 300 403 l 300 194 l 764 194 l 764 0 l 67 0 m 474 1250 l 474 1331 l 704 1389 l 704 1272 l 474 1250 m 151 1018 l 151 1163 l 415 1247 l 679 1163 l 679 1018 l 415 1103 l 151 1018 z "},"ế":{"ha":819,"x_min":56,"x_max":764,"o":"m 56 158 l 56 619 l 214 778 l 764 778 l 764 339 l 289 339 l 289 194 l 736 194 l 736 0 l 214 0 l 56 158 m 289 453 l 567 467 l 567 600 l 289 600 l 289 453 m 489 1056 l 489 1136 l 719 1194 l 719 1078 l 489 1056 m 167 824 l 167 968 l 431 1053 l 694 968 l 694 824 l 431 908 l 167 824 z "},"Ề":{"ha":806,"x_min":67,"x_max":764,"o":"m 67 0 l 67 972 l 750 972 l 750 778 l 300 778 l 300 589 l 681 589 l 681 403 l 300 403 l 300 194 l 764 194 l 764 0 l 67 0 m 696 1239 l 465 1274 l 465 1389 l 696 1325 l 696 1239 m 151 1018 l 151 1163 l 415 1251 l 679 1163 l 679 1018 l 415 1107 l 151 1018 z "},"ề":{"ha":819,"x_min":56,"x_max":764,"o":"m 56 158 l 56 619 l 214 778 l 764 778 l 764 339 l 289 339 l 289 194 l 736 194 l 736 0 l 214 0 l 56 158 m 289 453 l 567 467 l 567 600 l 289 600 l 289 453 m 711 1044 l 481 1079 l 481 1194 l 711 1131 l 711 1044 m 167 824 l 167 968 l 431 1057 l 694 968 l 694 824 l 431 913 l 167 824 z "},"Ể":{"ha":806,"x_min":67,"x_max":764,"o":"m 67 0 l 67 972 l 750 972 l 750 778 l 300 778 l 300 589 l 681 589 l 681 403 l 300 403 l 300 194 l 764 194 l 764 0 l 67 0 m 151 1018 l 151 1163 l 415 1251 l 679 1163 l 679 1018 l 415 1107 l 151 1018 m 538 1308 l 538 1389 l 686 1389 l 758 1319 l 664 1213 l 574 1240 l 635 1308 l 538 1308 z "},"ể":{"ha":819,"x_min":56,"x_max":774,"o":"m 56 158 l 56 619 l 214 778 l 764 778 l 764 339 l 289 339 l 289 194 l 736 194 l 736 0 l 214 0 l 56 158 m 289 453 l 567 467 l 567 600 l 289 600 l 289 453 m 167 824 l 167 968 l 431 1057 l 694 968 l 694 824 l 431 913 l 167 824 m 553 1114 l 553 1194 l 701 1194 l 774 1125 l 679 1018 l 589 1046 l 650 1114 l 553 1114 z "},"Ễ":{"ha":806,"x_min":67,"x_max":764,"o":"m 67 0 l 67 972 l 750 972 l 750 778 l 300 778 l 300 589 l 681 589 l 681 403 l 300 403 l 300 194 l 764 194 l 764 0 l 67 0 m 151 1007 l 151 1140 l 415 1219 l 679 1140 l 679 1007 l 415 1083 l 151 1007 m 218 1232 l 190 1315 l 310 1389 l 513 1338 l 613 1389 l 640 1306 l 521 1232 l 318 1283 l 218 1232 z "},"ễ":{"ha":819,"x_min":56,"x_max":764,"o":"m 56 158 l 56 619 l 214 778 l 764 778 l 764 339 l 289 339 l 289 194 l 736 194 l 736 0 l 214 0 l 56 158 m 289 453 l 567 467 l 567 600 l 289 600 l 289 453 m 167 813 l 167 946 l 431 1025 l 694 946 l 694 813 l 431 889 l 167 813 m 233 1038 l 206 1121 l 325 1194 l 528 1143 l 628 1194 l 656 1111 l 536 1038 l 333 1089 l 233 1038 z "},"Ệ":{"ha":806,"x_min":67,"x_max":764,"o":"m 67 0 l 67 972 l 750 972 l 750 778 l 300 778 l 300 589 l 681 589 l 681 403 l 300 403 l 300 194 l 764 194 l 764 0 l 67 0 m 299 -247 l 299 -94 l 532 -94 l 532 -247 l 299 -247 m 151 1028 l 151 1172 l 415 1261 l 679 1172 l 679 1028 l 415 1117 l 151 1028 z "},"ệ":{"ha":819,"x_min":56,"x_max":764,"o":"m 56 158 l 56 619 l 214 778 l 764 778 l 764 339 l 289 339 l 289 194 l 736 194 l 736 0 l 214 0 l 56 158 m 289 453 l 567 467 l 567 600 l 289 600 l 289 453 m 314 -247 l 314 -94 l 547 -94 l 547 -247 l 314 -247 m 167 833 l 167 978 l 431 1067 l 694 978 l 694 833 l 431 922 l 167 833 z "},"Ỉ":{"ha":597,"x_min":63,"x_max":535,"o":"m 63 -6 l 63 176 l 182 183 l 182 789 l 63 796 l 63 978 l 299 967 l 535 978 l 535 796 l 415 789 l 415 183 l 535 176 l 535 -6 l 299 6 l 63 -6 m 165 1117 l 165 1208 l 443 1208 l 443 1117 l 346 1014 l 207 1014 l 304 1117 l 165 1117 z "},"ỉ":{"ha":367,"x_min":50,"x_max":328,"o":"m 67 0 l 67 778 l 300 778 l 300 0 l 67 0 m 50 922 l 50 1014 l 328 1014 l 328 922 l 231 819 l 92 819 l 189 922 l 50 922 z "},"Ị":{"ha":597,"x_min":63,"x_max":535,"o":"m 63 -6 l 63 176 l 182 183 l 182 789 l 63 796 l 63 978 l 299 967 l 535 978 l 535 796 l 415 789 l 415 183 l 535 176 l 535 -6 l 299 6 l 63 -6 m 182 -247 l 182 -94 l 415 -94 l 415 -247 l 182 -247 z "},"ị":{"ha":367,"x_min":67,"x_max":300,"o":"m 67 0 l 67 778 l 300 778 l 300 0 l 67 0 m 67 850 l 67 1003 l 300 1003 l 300 850 l 67 850 m 67 -247 l 67 -94 l 300 -94 l 300 -247 l 67 -247 z "},"Ọ":{"ha":944,"x_min":63,"x_max":882,"o":"m 63 169 l 63 803 l 232 972 l 713 972 l 882 803 l 882 169 l 713 0 l 232 0 l 63 169 m 304 769 l 304 203 l 640 203 l 640 769 l 304 769 m 356 -247 l 356 -94 l 589 -94 l 589 -247 l 356 -247 z "},"ọ":{"ha":833,"x_min":56,"x_max":778,"o":"m 56 158 l 56 619 l 214 778 l 619 778 l 778 619 l 778 158 l 619 0 l 214 0 l 56 158 m 289 186 l 544 186 l 544 592 l 289 592 l 289 186 m 300 -247 l 300 -94 l 533 -94 l 533 -247 l 300 -247 z "},"Ỏ":{"ha":944,"x_min":63,"x_max":882,"o":"m 63 169 l 63 803 l 232 972 l 713 972 l 882 803 l 882 169 l 713 0 l 232 0 l 63 169 m 304 769 l 304 203 l 640 203 l 640 769 l 304 769 m 339 1117 l 339 1208 l 617 1208 l 617 1117 l 519 1014 l 381 1014 l 478 1117 l 339 1117 z "},"ỏ":{"ha":833,"x_min":56,"x_max":778,"o":"m 56 158 l 56 619 l 214 778 l 619 778 l 778 619 l 778 158 l 619 0 l 214 0 l 56 158 m 289 186 l 544 186 l 544 592 l 289 592 l 289 186 m 283 922 l 283 1014 l 561 1014 l 561 922 l 464 819 l 325 819 l 422 922 l 283 922 z "},"Ố":{"ha":944,"x_min":63,"x_max":882,"o":"m 63 169 l 63 803 l 232 972 l 713 972 l 882 803 l 882 169 l 713 0 l 232 0 l 63 169 m 304 769 l 304 203 l 640 203 l 640 769 l 304 769 m 531 1250 l 531 1331 l 761 1389 l 761 1272 l 531 1250 m 208 1018 l 208 1163 l 472 1247 l 736 1163 l 736 1018 l 472 1103 l 208 1018 z "},"ố":{"ha":833,"x_min":56,"x_max":778,"o":"m 56 158 l 56 619 l 214 778 l 619 778 l 778 619 l 778 158 l 619 0 l 214 0 l 56 158 m 289 186 l 544 186 l 544 592 l 289 592 l 289 186 m 475 1056 l 475 1136 l 706 1194 l 706 1078 l 475 1056 m 153 824 l 153 968 l 417 1053 l 681 968 l 681 824 l 417 908 l 153 824 z "},"Ồ":{"ha":944,"x_min":63,"x_max":882,"o":"m 63 169 l 63 803 l 232 972 l 713 972 l 882 803 l 882 169 l 713 0 l 232 0 l 63 169 m 304 769 l 304 203 l 640 203 l 640 769 l 304 769 m 753 1239 l 522 1274 l 522 1389 l 753 1325 l 753 1239 m 208 1018 l 208 1163 l 472 1251 l 736 1163 l 736 1018 l 472 1107 l 208 1018 z "},"ồ":{"ha":833,"x_min":56,"x_max":778,"o":"m 56 158 l 56 619 l 214 778 l 619 778 l 778 619 l 778 158 l 619 0 l 214 0 l 56 158 m 289 186 l 544 186 l 544 592 l 289 592 l 289 186 m 697 1044 l 467 1079 l 467 1194 l 697 1131 l 697 1044 m 153 824 l 153 968 l 417 1057 l 681 968 l 681 824 l 417 913 l 153 824 z "},"Ổ":{"ha":944,"x_min":63,"x_max":882,"o":"m 63 169 l 63 803 l 232 972 l 713 972 l 882 803 l 882 169 l 713 0 l 232 0 l 63 169 m 304 769 l 304 203 l 640 203 l 640 769 l 304 769 m 208 1018 l 208 1163 l 472 1251 l 736 1163 l 736 1018 l 472 1107 l 208 1018 m 594 1308 l 594 1389 l 743 1389 l 815 1319 l 721 1213 l 631 1240 l 692 1308 l 594 1308 z "},"ổ":{"ha":833,"x_min":56,"x_max":778,"o":"m 56 158 l 56 619 l 214 778 l 619 778 l 778 619 l 778 158 l 619 0 l 214 0 l 56 158 m 289 186 l 544 186 l 544 592 l 289 592 l 289 186 m 153 824 l 153 968 l 417 1057 l 681 968 l 681 824 l 417 913 l 153 824 m 539 1114 l 539 1194 l 688 1194 l 760 1125 l 665 1018 l 575 1046 l 636 1114 l 539 1114 z "},"Ỗ":{"ha":944,"x_min":63,"x_max":882,"o":"m 63 169 l 63 803 l 232 972 l 713 972 l 882 803 l 882 169 l 713 0 l 232 0 l 63 169 m 304 769 l 304 203 l 640 203 l 640 769 l 304 769 m 208 1007 l 208 1140 l 472 1219 l 736 1140 l 736 1007 l 472 1083 l 208 1007 m 275 1232 l 247 1315 l 367 1389 l 569 1338 l 669 1389 l 697 1306 l 578 1232 l 375 1283 l 275 1232 z "},"ỗ":{"ha":833,"x_min":56,"x_max":778,"o":"m 56 158 l 56 619 l 214 778 l 619 778 l 778 619 l 778 158 l 619 0 l 214 0 l 56 158 m 289 186 l 544 186 l 544 592 l 289 592 l 289 186 m 153 813 l 153 946 l 417 1025 l 681 946 l 681 813 l 417 889 l 153 813 m 219 1038 l 192 1121 l 311 1194 l 514 1143 l 614 1194 l 642 1111 l 522 1038 l 319 1089 l 219 1038 z "},"Ộ":{"ha":944,"x_min":63,"x_max":882,"o":"m 63 169 l 63 803 l 232 972 l 713 972 l 882 803 l 882 169 l 713 0 l 232 0 l 63 169 m 304 769 l 304 203 l 640 203 l 640 769 l 304 769 m 356 -247 l 356 -94 l 589 -94 l 589 -247 l 356 -247 m 208 1028 l 208 1172 l 472 1261 l 736 1172 l 736 1028 l 472 1117 l 208 1028 z "},"ộ":{"ha":833,"x_min":56,"x_max":778,"o":"m 56 158 l 56 619 l 214 778 l 619 778 l 778 619 l 778 158 l 619 0 l 214 0 l 56 158 m 289 186 l 544 186 l 544 592 l 289 592 l 289 186 m 300 -247 l 300 -94 l 533 -94 l 533 -247 l 300 -247 m 153 833 l 153 978 l 417 1067 l 681 978 l 681 833 l 417 922 l 153 833 z "},"Ơ":{"ha":944,"x_min":63,"x_max":976,"o":"m 63 169 l 63 803 l 232 972 l 804 972 l 804 1083 l 976 1083 l 976 922 l 882 828 l 882 169 l 713 0 l 232 0 l 63 169 m 304 769 l 304 203 l 640 203 l 640 769 l 304 769 z "},"ơ":{"ha":864,"x_min":56,"x_max":886,"o":"m 56 158 l 56 619 l 214 778 l 711 778 l 711 889 l 886 889 l 886 728 l 778 619 l 778 158 l 619 0 l 214 0 l 56 158 m 289 186 l 544 186 l 544 592 l 289 592 l 289 186 z "},"Ớ":{"ha":944,"x_min":63,"x_max":976,"o":"m 63 169 l 63 803 l 232 972 l 804 972 l 804 1083 l 976 1083 l 976 922 l 882 828 l 882 169 l 713 0 l 232 0 l 63 169 m 304 769 l 304 203 l 640 203 l 640 769 l 304 769 m 288 1050 l 288 1167 l 732 1206 l 732 1050 l 288 1050 z "},"ớ":{"ha":864,"x_min":56,"x_max":886,"o":"m 56 158 l 56 619 l 214 778 l 711 778 l 711 889 l 886 889 l 886 728 l 778 619 l 778 158 l 619 0 l 214 0 l 56 158 m 289 186 l 544 186 l 544 592 l 289 592 l 289 186 m 217 856 l 217 972 l 661 1011 l 661 856 l 217 856 z "},"Ờ":{"ha":944,"x_min":63,"x_max":976,"o":"m 63 169 l 63 803 l 232 972 l 804 972 l 804 1083 l 976 1083 l 976 922 l 882 828 l 882 169 l 713 0 l 232 0 l 63 169 m 304 769 l 304 203 l 640 203 l 640 769 l 304 769 m 649 1050 l 204 1050 l 204 1206 l 649 1167 l 649 1050 z "},"ờ":{"ha":864,"x_min":56,"x_max":886,"o":"m 56 158 l 56 619 l 214 778 l 711 778 l 711 889 l 886 889 l 886 728 l 778 619 l 778 158 l 619 0 l 214 0 l 56 158 m 289 186 l 544 186 l 544 592 l 289 592 l 289 186 m 578 856 l 133 856 l 133 1011 l 578 972 l 578 856 z "},"Ở":{"ha":944,"x_min":63,"x_max":976,"o":"m 63 169 l 63 803 l 232 972 l 804 972 l 804 1083 l 976 1083 l 976 922 l 882 828 l 882 169 l 713 0 l 232 0 l 63 169 m 304 769 l 304 203 l 640 203 l 640 769 l 304 769 m 335 1117 l 335 1208 l 613 1208 l 613 1117 l 515 1014 l 376 1014 l 474 1117 l 335 1117 z "},"ở":{"ha":864,"x_min":56,"x_max":886,"o":"m 56 158 l 56 619 l 214 778 l 711 778 l 711 889 l 886 889 l 886 728 l 778 619 l 778 158 l 619 0 l 214 0 l 56 158 m 289 186 l 544 186 l 544 592 l 289 592 l 289 186 m 264 922 l 264 1014 l 542 1014 l 542 922 l 444 819 l 306 819 l 403 922 l 264 922 z "},"Ỡ":{"ha":944,"x_min":63,"x_max":976,"o":"m 63 169 l 63 803 l 232 972 l 804 972 l 804 1083 l 976 1083 l 976 922 l 882 828 l 882 169 l 713 0 l 232 0 l 63 169 m 304 769 l 304 203 l 640 203 l 640 769 l 304 769 m 204 1014 l 176 1146 l 315 1235 l 599 1168 l 732 1236 l 760 1104 l 621 1015 l 338 1082 l 204 1014 z "},"ỡ":{"ha":864,"x_min":56,"x_max":886,"o":"m 56 158 l 56 619 l 214 778 l 711 778 l 711 889 l 886 889 l 886 728 l 778 619 l 778 158 l 619 0 l 214 0 l 56 158 m 289 186 l 544 186 l 544 592 l 289 592 l 289 186 m 133 819 l 106 951 l 244 1040 l 528 974 l 661 1042 l 689 910 l 550 821 l 267 888 l 133 819 z "},"Ợ":{"ha":944,"x_min":63,"x_max":976,"o":"m 63 169 l 63 803 l 232 972 l 804 972 l 804 1083 l 976 1083 l 976 922 l 882 828 l 882 169 l 713 0 l 232 0 l 63 169 m 304 769 l 304 203 l 640 203 l 640 769 l 304 769 m 356 -247 l 356 -94 l 589 -94 l 589 -247 l 356 -247 z "},"ợ":{"ha":864,"x_min":56,"x_max":886,"o":"m 56 158 l 56 619 l 214 778 l 711 778 l 711 889 l 886 889 l 886 728 l 778 619 l 778 158 l 619 0 l 214 0 l 56 158 m 289 186 l 544 186 l 544 592 l 289 592 l 289 186 m 300 -247 l 300 -94 l 533 -94 l 533 -247 l 300 -247 z "},"Ụ":{"ha":903,"x_min":67,"x_max":836,"o":"m 67 169 l 67 972 l 300 972 l 300 211 l 603 211 l 603 972 l 836 972 l 836 169 l 667 0 l 236 0 l 67 169 m 335 -247 l 335 -94 l 568 -94 l 568 -247 l 335 -247 z "},"ụ":{"ha":861,"x_min":67,"x_max":794,"o":"m 794 778 l 794 0 l 233 0 l 67 167 l 67 778 l 300 778 l 300 203 l 561 203 l 561 778 l 794 778 m 314 -247 l 314 -94 l 547 -94 l 547 -247 l 314 -247 z "},"Ủ":{"ha":903,"x_min":67,"x_max":836,"o":"m 67 169 l 67 972 l 300 972 l 300 211 l 603 211 l 603 972 l 836 972 l 836 169 l 667 0 l 236 0 l 67 169 m 318 1117 l 318 1208 l 596 1208 l 596 1117 l 499 1014 l 360 1014 l 457 1117 l 318 1117 z "},"ủ":{"ha":861,"x_min":67,"x_max":794,"o":"m 794 778 l 794 0 l 233 0 l 67 167 l 67 778 l 300 778 l 300 203 l 561 203 l 561 778 l 794 778 m 297 922 l 297 1014 l 575 1014 l 575 922 l 478 819 l 339 819 l 436 922 l 297 922 z "},"Ư":{"ha":903,"x_min":67,"x_max":964,"o":"m 67 169 l 67 972 l 300 972 l 300 211 l 603 211 l 603 972 l 792 972 l 792 1083 l 964 1083 l 964 922 l 836 794 l 836 169 l 667 0 l 236 0 l 67 169 z "},"ư":{"ha":869,"x_min":67,"x_max":906,"o":"m 67 167 l 67 778 l 300 778 l 300 203 l 561 203 l 561 778 l 731 778 l 731 889 l 906 889 l 906 728 l 794 617 l 794 0 l 233 0 l 67 167 z "},"Ứ":{"ha":903,"x_min":67,"x_max":964,"o":"m 67 169 l 67 972 l 300 972 l 300 211 l 603 211 l 603 972 l 792 972 l 792 1083 l 964 1083 l 964 922 l 836 794 l 836 169 l 667 0 l 236 0 l 67 169 m 271 1050 l 271 1167 l 715 1206 l 715 1050 l 271 1050 z "},"ứ":{"ha":869,"x_min":67,"x_max":906,"o":"m 67 167 l 67 778 l 300 778 l 300 203 l 561 203 l 561 778 l 731 778 l 731 889 l 906 889 l 906 728 l 794 617 l 794 0 l 233 0 l 67 167 m 254 856 l 254 972 l 699 1011 l 699 856 l 254 856 z "},"Ừ":{"ha":903,"x_min":67,"x_max":964,"o":"m 67 169 l 67 972 l 300 972 l 300 211 l 603 211 l 603 972 l 792 972 l 792 1083 l 964 1083 l 964 922 l 836 794 l 836 169 l 667 0 l 236 0 l 67 169 m 632 1050 l 188 1050 l 188 1206 l 632 1167 l 632 1050 z "},"ừ":{"ha":869,"x_min":67,"x_max":906,"o":"m 67 167 l 67 778 l 300 778 l 300 203 l 561 203 l 561 778 l 731 778 l 731 889 l 906 889 l 906 728 l 794 617 l 794 0 l 233 0 l 67 167 m 615 856 l 171 856 l 171 1011 l 615 972 l 615 856 z "},"Ử":{"ha":903,"x_min":67,"x_max":964,"o":"m 67 169 l 67 972 l 300 972 l 300 211 l 603 211 l 603 972 l 792 972 l 792 1083 l 964 1083 l 964 922 l 836 794 l 836 169 l 667 0 l 236 0 l 67 169 m 318 1117 l 318 1208 l 596 1208 l 596 1117 l 499 1014 l 360 1014 l 457 1117 l 318 1117 z "},"ử":{"ha":869,"x_min":67,"x_max":906,"o":"m 67 167 l 67 778 l 300 778 l 300 203 l 561 203 l 561 778 l 731 778 l 731 889 l 906 889 l 906 728 l 794 617 l 794 0 l 233 0 l 67 167 m 301 922 l 301 1014 l 579 1014 l 579 922 l 482 819 l 343 819 l 440 922 l 301 922 z "},"Ữ":{"ha":903,"x_min":67,"x_max":964,"o":"m 67 169 l 67 972 l 300 972 l 300 211 l 603 211 l 603 972 l 792 972 l 792 1083 l 964 1083 l 964 922 l 836 794 l 836 169 l 667 0 l 236 0 l 67 169 m 188 1014 l 160 1146 l 299 1235 l 582 1168 l 715 1236 l 743 1104 l 604 1015 l 321 1082 l 188 1014 z "},"ữ":{"ha":869,"x_min":67,"x_max":906,"o":"m 67 167 l 67 778 l 300 778 l 300 203 l 561 203 l 561 778 l 731 778 l 731 889 l 906 889 l 906 728 l 794 617 l 794 0 l 233 0 l 67 167 m 171 819 l 143 951 l 282 1040 l 565 974 l 699 1042 l 726 910 l 588 821 l 304 888 l 171 819 z "},"Ự":{"ha":903,"x_min":67,"x_max":964,"o":"m 67 169 l 67 972 l 300 972 l 300 211 l 603 211 l 603 972 l 792 972 l 792 1083 l 964 1083 l 964 922 l 836 794 l 836 169 l 667 0 l 236 0 l 67 169 m 335 -247 l 335 -94 l 568 -94 l 568 -247 l 335 -247 z "},"ự":{"ha":869,"x_min":67,"x_max":906,"o":"m 67 167 l 67 778 l 300 778 l 300 203 l 561 203 l 561 778 l 731 778 l 731 889 l 906 889 l 906 728 l 794 617 l 794 0 l 233 0 l 67 167 m 318 -247 l 318 -94 l 551 -94 l 551 -247 l 318 -247 z "},"Ỵ":{"ha":889,"x_min":18,"x_max":871,"o":"m 328 0 l 328 292 l 210 292 l 18 972 l 267 972 l 385 493 l 504 493 l 622 972 l 871 972 l 679 292 l 561 292 l 561 0 l 328 0 m 328 -247 l 328 -94 l 561 -94 l 561 -247 l 328 -247 z "},"ỵ":{"ha":833,"x_min":10,"x_max":824,"o":"m 56 -143 l 56 43 l 410 43 l 433 128 l 190 128 l 10 778 l 247 778 l 361 306 l 474 306 l 589 778 l 824 778 l 571 -143 l 56 -143 m 214 -347 l 214 -211 l 447 -211 l 447 -347 l 214 -347 z "},"Ỷ":{"ha":889,"x_min":18,"x_max":871,"o":"m 328 0 l 328 292 l 210 292 l 18 972 l 267 972 l 385 493 l 504 493 l 622 972 l 871 972 l 679 292 l 561 292 l 561 0 l 328 0 m 311 1117 l 311 1208 l 589 1208 l 589 1117 l 492 1014 l 353 1014 l 450 1117 l 311 1117 z "},"ỷ":{"ha":833,"x_min":10,"x_max":824,"o":"m 56 -194 l 56 0 l 403 0 l 432 111 l 192 111 l 10 778 l 249 778 l 365 297 l 474 297 l 586 778 l 824 778 l 568 -194 l 56 -194 m 283 922 l 283 1014 l 561 1014 l 561 922 l 464 819 l 325 819 l 422 922 l 283 922 z "},"Ǆ":{"ha":1664,"x_min":67,"x_max":1619,"o":"m 300 203 l 586 203 l 586 769 l 300 769 l 300 203 m 67 0 l 67 972 l 650 972 l 819 803 l 819 169 l 650 0 l 67 0 m 926 0 l 926 172 l 1353 778 l 931 778 l 931 972 l 1615 972 l 1615 800 l 1189 194 l 1619 194 l 1619 0 l 926 0 m 1538 1261 l 1538 1117 l 1274 1028 l 1010 1117 l 1010 1261 l 1274 1172 l 1538 1261 z "},"ǅ":{"ha":1618,"x_min":67,"x_max":1585,"o":"m 300 203 l 586 203 l 586 769 l 300 769 l 300 203 m 67 0 l 67 972 l 650 972 l 819 803 l 819 169 l 650 0 l 67 0 m 915 0 l 915 167 l 1294 583 l 919 583 l 919 778 l 1582 778 l 1582 611 l 1203 194 l 1585 194 l 1585 0 l 915 0 m 1514 1067 l 1514 922 l 1250 833 l 986 922 l 986 1067 l 1250 978 l 1514 1067 z "},"ǆ":{"ha":1597,"x_min":56,"x_max":1564,"o":"m 794 972 l 794 0 l 231 0 l 56 175 l 56 603 l 231 778 l 561 778 l 561 972 l 794 972 m 289 194 l 561 194 l 561 583 l 289 583 l 289 194 m 894 0 l 894 167 l 1274 583 l 899 583 l 899 778 l 1561 778 l 1561 611 l 1182 194 l 1564 194 l 1564 0 l 894 0 m 1493 1067 l 1493 922 l 1229 833 l 965 922 l 965 1067 l 1229 978 l 1493 1067 z "},"Ǉ":{"ha":1638,"x_min":67,"x_max":1575,"o":"m 67 0 l 67 972 l 300 972 l 300 194 l 561 194 l 561 389 l 767 389 l 767 0 l 67 0 m 839 175 l 839 458 l 1072 458 l 1072 211 l 1342 211 l 1342 769 l 883 769 l 883 972 l 1575 972 l 1575 175 l 1400 0 l 1014 0 l 839 175 z "},"ǈ":{"ha":1171,"x_min":67,"x_max":1104,"o":"m 67 0 l 67 972 l 300 972 l 300 194 l 561 194 l 561 389 l 767 389 l 767 0 l 67 0 m 871 -194 l 871 778 l 1104 778 l 1104 -194 l 871 -194 m 871 850 l 871 1003 l 1104 1003 l 1104 850 l 871 850 z "},"ǉ":{"ha":733,"x_min":67,"x_max":667,"o":"m 67 0 l 67 972 l 300 972 l 300 0 l 67 0 m 433 -194 l 433 778 l 667 778 l 667 -194 l 433 -194 m 433 850 l 433 1003 l 667 1003 l 667 850 l 433 850 z "},"Ǌ":{"ha":1778,"x_min":67,"x_max":1715,"o":"m 67 0 l 67 972 l 288 972 l 661 354 l 661 972 l 878 972 l 878 0 l 657 0 l 283 618 l 283 0 l 67 0 m 979 175 l 979 458 l 1213 458 l 1213 211 l 1482 211 l 1482 769 l 1024 769 l 1024 972 l 1715 972 l 1715 175 l 1540 0 l 1154 0 l 979 175 z "},"ǋ":{"ha":1311,"x_min":67,"x_max":1244,"o":"m 67 0 l 67 972 l 288 972 l 661 354 l 661 972 l 878 972 l 878 0 l 657 0 l 283 618 l 283 0 l 67 0 m 1011 -194 l 1011 778 l 1244 778 l 1244 -194 l 1011 -194 m 1011 850 l 1011 1003 l 1244 1003 l 1244 850 l 1011 850 z "},"ǌ":{"ha":1228,"x_min":67,"x_max":1161,"o":"m 67 0 l 67 778 l 628 778 l 794 611 l 794 0 l 561 0 l 561 575 l 300 575 l 300 0 l 67 0 m 928 -194 l 928 778 l 1161 778 l 1161 -194 l 928 -194 m 928 850 l 928 1003 l 1161 1003 l 1161 850 l 928 850 z "}," ":{"ha":361,"x_min":0,"x_max":0,"o":""}," ":{"ha":903,"x_min":0,"x_max":0,"o":""}," ":{"ha":372,"x_min":0,"x_max":0,"o":""}," ":{"ha":208,"x_min":0,"x_max":0,"o":""}," ":{"ha":139,"x_min":0,"x_max":0,"o":""},".":{"ha":372,"x_min":78,"x_max":294,"o":"m 78 0 l 78 222 l 294 222 l 294 0 l 78 0 z "},",":{"ha":372,"x_min":26,"x_max":311,"o":"m 92 0 l 92 222 l 311 222 l 311 0 l 171 -194 l 26 -194 l 167 0 l 92 0 z "},":":{"ha":372,"x_min":78,"x_max":294,"o":"m 78 0 l 78 222 l 294 222 l 294 0 l 78 0 m 78 500 l 78 722 l 294 722 l 294 500 l 78 500 z "},";":{"ha":372,"x_min":10,"x_max":294,"o":"m 75 0 l 75 222 l 294 222 l 294 0 l 154 -194 l 10 -194 l 150 0 l 75 0 m 61 500 l 61 722 l 278 722 l 278 500 l 61 500 z "},"…":{"ha":1117,"x_min":78,"x_max":1039,"o":"m 78 0 l 78 222 l 294 222 l 294 0 l 78 0 m 450 0 l 450 222 l 667 222 l 667 0 l 450 0 m 822 0 l 822 222 l 1039 222 l 1039 0 l 822 0 z "},"!":{"ha":400,"x_min":67,"x_max":333,"o":"m 92 0 l 92 222 l 308 222 l 308 0 l 92 0 m 110 331 l 67 972 l 333 972 l 290 331 l 110 331 z "},"¡":{"ha":400,"x_min":67,"x_max":333,"o":"m 308 778 l 308 556 l 92 556 l 92 778 l 308 778 m 290 447 l 333 -194 l 67 -194 l 110 447 l 290 447 z "},"?":{"ha":772,"x_min":21,"x_max":751,"o":"m 169 0 l 169 222 l 386 222 l 386 0 l 169 0 m 386 314 l 169 314 l 169 540 l 535 628 l 535 769 l 21 769 l 21 972 l 585 972 l 751 806 l 751 490 l 386 392 l 386 314 z "},"¿":{"ha":772,"x_min":21,"x_max":751,"o":"m 603 778 l 603 556 l 386 556 l 386 778 l 603 778 m 386 464 l 603 464 l 603 238 l 238 150 l 238 8 l 751 8 l 751 -194 l 188 -194 l 21 -28 l 21 288 l 386 386 l 386 464 z "},"'":{"ha":306,"x_min":42,"x_max":264,"o":"m 69 639 l 42 972 l 264 972 l 236 639 l 69 639 z "},"\"":{"ha":606,"x_min":50,"x_max":556,"o":"m 78 639 l 50 972 l 272 972 l 244 639 l 78 639 m 361 639 l 333 972 l 556 972 l 528 639 l 361 639 z "},"‘":{"ha":372,"x_min":61,"x_max":346,"o":"m 281 778 l 281 556 l 61 556 l 61 778 l 201 972 l 346 972 l 206 778 l 281 778 z "},"’":{"ha":372,"x_min":26,"x_max":311,"o":"m 92 750 l 92 972 l 311 972 l 311 750 l 171 556 l 26 556 l 167 750 l 92 750 z "},"‚":{"ha":372,"x_min":26,"x_max":311,"o":"m 92 0 l 92 222 l 311 222 l 311 0 l 171 -194 l 26 -194 l 167 0 l 92 0 z "},"“":{"ha":700,"x_min":61,"x_max":674,"o":"m 608 778 l 608 556 l 389 556 l 389 778 l 529 972 l 674 972 l 533 778 l 608 778 m 281 778 l 281 556 l 61 556 l 61 778 l 201 972 l 346 972 l 206 778 l 281 778 z "},"”":{"ha":700,"x_min":26,"x_max":639,"o":"m 92 750 l 92 972 l 311 972 l 311 750 l 171 556 l 26 556 l 167 750 l 92 750 m 419 750 l 419 972 l 639 972 l 639 750 l 499 556 l 354 556 l 494 750 l 419 750 z "},"„":{"ha":700,"x_min":26,"x_max":639,"o":"m 92 0 l 92 222 l 311 222 l 311 0 l 171 -194 l 26 -194 l 167 0 l 92 0 m 419 0 l 419 222 l 639 222 l 639 0 l 499 -194 l 354 -194 l 494 0 l 419 0 z "},"‹":{"ha":625,"x_min":28,"x_max":592,"o":"m 28 376 l 28 401 l 325 778 l 592 778 l 290 389 l 592 0 l 325 0 l 28 376 z "},"›":{"ha":625,"x_min":33,"x_max":597,"o":"m 597 401 l 597 376 l 300 0 l 33 0 l 335 389 l 33 778 l 300 778 l 597 401 z "},"«":{"ha":1008,"x_min":28,"x_max":975,"o":"m 28 376 l 28 401 l 325 778 l 592 778 l 290 389 l 592 0 l 325 0 l 28 376 m 411 376 l 411 401 l 708 778 l 975 778 l 674 389 l 975 0 l 708 0 l 411 376 z "},"»":{"ha":1008,"x_min":33,"x_max":981,"o":"m 981 401 l 981 376 l 683 0 l 417 0 l 718 389 l 417 778 l 683 778 l 981 401 m 597 401 l 597 376 l 300 0 l 33 0 l 335 389 l 33 778 l 300 778 l 597 401 z "},"(":{"ha":481,"x_min":67,"x_max":453,"o":"m 67 -25 l 67 872 l 236 1042 l 453 1042 l 453 851 l 300 851 l 300 -4 l 453 -4 l 453 -194 l 236 -194 l 67 -25 z "},")":{"ha":481,"x_min":28,"x_max":414,"o":"m 414 872 l 414 -25 l 244 -194 l 28 -194 l 28 -4 l 181 -4 l 181 851 l 28 851 l 28 1042 l 244 1042 l 414 872 z "},"[":{"ha":481,"x_min":67,"x_max":453,"o":"m 67 -194 l 67 1042 l 453 1042 l 453 860 l 292 860 l 292 -12 l 453 -12 l 453 -194 l 67 -194 z "},"]":{"ha":481,"x_min":28,"x_max":414,"o":"m 414 1042 l 414 -194 l 28 -194 l 28 -12 l 189 -12 l 189 860 l 28 860 l 28 1042 l 414 1042 z "},"{":{"ha":564,"x_min":28,"x_max":536,"o":"m 150 -25 l 150 331 l 28 331 l 28 517 l 150 517 l 150 872 l 319 1042 l 536 1042 l 536 851 l 383 851 l 383 524 l 283 424 l 383 324 l 383 -4 l 536 -4 l 536 -194 l 319 -194 l 150 -25 z "},"}":{"ha":564,"x_min":28,"x_max":536,"o":"m 414 872 l 414 517 l 536 517 l 536 331 l 414 331 l 414 -25 l 244 -194 l 28 -194 l 28 -4 l 181 -4 l 181 324 l 281 424 l 181 524 l 181 851 l 28 851 l 28 1042 l 244 1042 l 414 872 z "},"/":{"ha":611,"x_min":14,"x_max":597,"o":"m 14 0 l 358 972 l 597 972 l 253 0 l 14 0 z "},"\\":{"ha":611,"x_min":14,"x_max":597,"o":"m 597 0 l 358 0 l 14 972 l 253 972 l 597 0 z "},"¦":{"ha":383,"x_min":83,"x_max":300,"o":"m 83 -278 l 83 347 l 300 347 l 300 -278 l 83 -278 m 83 486 l 83 1111 l 300 1111 l 300 486 l 83 486 z "},"|":{"ha":383,"x_min":83,"x_max":300,"o":"m 83 -194 l 83 1056 l 300 1056 l 300 -194 l 83 -194 z "},"_":{"ha":883,"x_min":81,"x_max":803,"o":"m 81 -211 l 81 0 l 803 0 l 803 -211 l 81 -211 z "},"-":{"ha":472,"x_min":56,"x_max":417,"o":"m 56 336 l 56 553 l 417 553 l 417 336 l 56 336 z "},"–":{"ha":556,"x_min":56,"x_max":500,"o":"m 56 343 l 56 546 l 500 546 l 500 343 l 56 343 z "},"—":{"ha":833,"x_min":56,"x_max":778,"o":"m 56 343 l 56 546 l 778 546 l 778 343 l 56 343 z "},"―":{"ha":833,"x_min":-14,"x_max":847,"o":"m -14 343 l -14 546 l 847 546 l 847 343 l -14 343 z "},"‒":{"ha":903,"x_min":56,"x_max":847,"o":"m 56 343 l 56 546 l 847 546 l 847 343 l 56 343 z "},"·":{"ha":328,"x_min":56,"x_max":272,"o":"m 56 339 l 56 561 l 272 561 l 272 339 l 56 339 z "},"~":{"ha":833,"x_min":28,"x_max":806,"o":"m 56 283 l 28 488 l 208 653 l 608 492 l 778 625 l 806 421 l 625 256 l 225 417 l 56 283 z "},"•":{"ha":694,"x_min":58,"x_max":636,"o":"m 58 278 l 58 556 l 200 697 l 494 697 l 636 556 l 636 278 l 494 136 l 200 136 l 58 278 z "},"ª":{"ha":703,"x_min":53,"x_max":636,"o":"m 53 481 l 53 711 l 431 725 l 431 814 l 81 814 l 81 972 l 503 972 l 636 839 l 636 347 l 186 347 l 53 481 m 258 603 l 258 497 l 431 497 l 431 631 l 258 603 z "},"º":{"ha":711,"x_min":56,"x_max":656,"o":"m 56 489 l 56 831 l 197 972 l 514 972 l 656 831 l 656 489 l 514 347 l 197 347 l 56 489 m 264 517 l 447 517 l 447 803 l 264 803 l 264 517 z "},"°":{"ha":433,"x_min":19,"x_max":414,"o":"m 19 690 l 19 865 l 131 972 l 303 972 l 414 865 l 414 690 l 303 583 l 131 583 l 19 690 m 150 706 l 283 706 l 283 850 l 150 850 l 150 706 z "},"`":{"ha":3450,"x_min":3047,"x_max":3492,"o":"m 3492 856 l 3047 856 l 3047 1011 l 3492 972 l 3492 856 z "},"^":{"ha":736,"x_min":3,"x_max":733,"o":"m 3 486 l 239 972 l 497 972 l 733 486 l 488 486 l 368 797 l 249 486 l 3 486 z "},"*":{"ha":739,"x_min":25,"x_max":714,"o":"m 457 317 l 282 317 l 282 492 l 113 393 l 25 544 l 194 644 l 25 744 l 113 896 l 282 797 l 282 972 l 457 972 l 457 797 l 626 896 l 714 744 l 544 644 l 714 544 l 626 393 l 457 492 l 457 317 z "},"†":{"ha":844,"x_min":67,"x_max":778,"o":"m 67 508 l 67 725 l 314 725 l 314 972 l 531 972 l 531 725 l 778 725 l 778 508 l 531 508 l 531 0 l 314 0 l 314 508 l 67 508 z "},"‡":{"ha":844,"x_min":67,"x_max":778,"o":"m 67 508 l 67 725 l 314 725 l 314 972 l 531 972 l 531 725 l 778 725 l 778 508 l 531 508 l 531 269 l 778 269 l 778 53 l 531 53 l 531 -194 l 314 -194 l 314 53 l 67 53 l 67 269 l 314 269 l 314 508 l 67 508 z "},"#":{"ha":1106,"x_min":67,"x_max":1039,"o":"m 233 0 l 233 972 l 440 972 l 440 0 l 233 0 m 660 0 l 660 972 l 867 972 l 867 0 l 660 0 m 1039 167 l 67 167 l 67 351 l 1039 351 l 1039 167 m 1039 621 l 67 621 l 67 806 l 1039 806 l 1039 621 z "},"§":{"ha":889,"x_min":64,"x_max":825,"o":"m 85 -136 l 85 42 l 600 42 l 600 186 l 206 186 l 64 328 l 64 814 l 222 972 l 797 972 l 797 794 l 289 794 l 289 650 l 683 650 l 825 508 l 825 19 l 669 -136 l 85 -136 m 289 331 l 600 331 l 600 506 l 289 506 l 289 331 z "},"¶":{"ha":972,"x_min":39,"x_max":906,"o":"m 906 -194 l 697 -194 l 697 786 l 603 786 l 603 -194 l 394 -194 l 394 208 l 214 208 l 39 383 l 39 781 l 231 972 l 906 972 l 906 -194 z "},"&":{"ha":1104,"x_min":56,"x_max":1082,"o":"m 826 0 l 179 872 l 279 972 l 885 972 l 885 789 l 494 789 l 1082 0 l 826 0 m 519 467 l 289 467 l 289 186 l 503 186 l 838 639 l 1082 639 l 597 0 l 192 0 l 56 136 l 56 508 l 192 644 l 519 644 l 519 467 z "},"@":{"ha":1111,"x_min":67,"x_max":1044,"o":"m 67 -33 l 67 811 l 228 972 l 878 972 l 1044 806 l 1044 253 l 911 119 l 558 119 l 417 253 l 417 622 l 829 644 l 829 796 l 282 796 l 282 -18 l 1044 -18 l 1044 -194 l 228 -194 l 67 -33 m 632 288 l 829 288 l 829 550 l 632 522 l 632 288 z "},"©":{"ha":1250,"x_min":57,"x_max":1193,"o":"m 329 269 l 329 619 l 488 778 l 921 778 l 921 567 l 554 567 l 554 322 l 921 322 l 921 111 l 488 111 l 329 269 m 57 31 l 57 858 l 226 1028 l 1024 1028 l 1193 858 l 1193 31 l 1024 -139 l 226 -139 l 57 31 m 232 875 l 232 14 l 1018 14 l 1018 875 l 232 875 z "},"®":{"ha":556,"x_min":28,"x_max":528,"o":"m 278 514 q 149 544 206 514 q 60 628 92 575 q 28 750 28 682 q 60 872 28 818 q 149 956 92 925 q 278 986 206 986 q 408 956 351 986 q 496 872 464 925 q 528 750 528 818 q 496 628 528 682 q 408 544 464 575 q 278 514 351 514 m 93 751 q 144 622 93 671 q 278 574 194 574 q 413 622 363 574 q 463 751 463 671 q 413 878 463 831 q 278 926 363 926 q 144 878 194 926 q 93 751 93 831 m 179 631 l 179 875 l 286 875 q 365 851 336 875 q 393 788 393 828 q 381 740 393 758 q 346 710 368 721 l 404 631 l 321 631 l 286 700 l 250 700 l 250 631 l 179 631 m 250 751 l 285 751 q 324 785 324 751 q 285 818 324 818 l 250 818 l 250 751 z "},"™":{"ha":833,"x_min":28,"x_max":778,"o":"m 138 583 l 238 583 l 238 889 l 347 889 l 347 972 l 28 972 l 28 889 l 138 889 l 138 583 m 389 972 l 389 583 l 483 583 l 483 857 l 583 722 l 683 857 l 683 583 l 778 583 l 778 972 l 690 972 l 583 826 l 476 972 l 389 972 z "},"⁰":{"ha":678,"x_min":53,"x_max":625,"o":"m 53 533 l 53 856 l 186 972 l 492 972 l 625 856 l 625 533 l 492 417 l 186 417 l 53 533 m 249 839 l 249 550 l 429 550 l 429 839 l 249 839 z "},"¹":{"ha":531,"x_min":61,"x_max":468,"o":"m 61 415 l 61 531 l 171 538 l 171 821 l 67 811 l 67 931 l 365 972 l 365 538 l 468 531 l 468 415 l 264 422 l 61 415 z "},"²":{"ha":664,"x_min":61,"x_max":603,"o":"m 603 551 l 603 417 l 61 417 l 61 711 l 406 763 l 406 838 l 67 838 l 67 972 l 469 972 l 603 856 l 603 661 l 258 610 l 258 551 l 603 551 z "},"³":{"ha":644,"x_min":47,"x_max":600,"o":"m 506 417 l 47 417 l 47 550 l 390 550 l 390 640 l 107 640 l 107 760 l 371 760 l 371 839 l 57 839 l 57 972 l 485 972 l 581 883 l 581 751 l 513 707 l 600 650 l 600 506 l 506 417 z "},"⁴":{"ha":664,"x_min":43,"x_max":603,"o":"m 43 565 l 68 972 l 256 972 l 232 699 l 418 699 l 418 972 l 603 972 l 603 417 l 418 417 l 418 565 l 43 565 z "},"⁵":{"ha":664,"x_min":61,"x_max":603,"o":"m 600 839 l 254 839 l 254 771 l 603 744 l 603 514 l 482 417 l 64 417 l 64 550 l 410 550 l 410 638 l 61 663 l 61 972 l 600 972 l 600 839 z "},"⁶":{"ha":681,"x_min":57,"x_max":624,"o":"m 172 417 l 57 508 l 57 881 l 172 972 l 588 972 l 588 839 l 250 839 l 250 771 l 553 771 l 624 713 l 624 508 l 510 417 l 172 417 m 250 550 l 431 550 l 431 665 l 250 665 l 250 550 z "},"⁷":{"ha":614,"x_min":39,"x_max":575,"o":"m 82 417 l 381 782 l 381 847 l 204 847 l 204 744 l 39 744 l 39 972 l 575 972 l 575 753 l 324 417 l 82 417 z "},"⁸":{"ha":671,"x_min":44,"x_max":626,"o":"m 253 754 l 418 754 l 418 850 l 253 850 l 253 754 m 229 539 l 442 539 l 442 649 l 229 649 l 229 539 m 139 417 l 44 506 l 44 650 l 124 707 l 64 751 l 64 883 l 160 972 l 511 972 l 607 883 l 607 751 l 547 707 l 626 650 l 626 506 l 532 417 l 139 417 z "},"⁹":{"ha":681,"x_min":57,"x_max":624,"o":"m 510 972 l 624 881 l 624 508 l 510 417 l 94 417 l 94 550 l 431 550 l 431 618 l 129 618 l 57 676 l 57 881 l 172 972 l 510 972 m 431 839 l 250 839 l 250 724 l 431 724 l 431 839 z "},"₀":{"ha":678,"x_min":53,"x_max":625,"o":"m 53 -22 l 53 300 l 186 417 l 492 417 l 625 300 l 625 -22 l 492 -139 l 186 -139 l 53 -22 m 249 283 l 249 -6 l 429 -6 l 429 283 l 249 283 z "},"₁":{"ha":531,"x_min":61,"x_max":468,"o":"m 61 -139 l 61 -24 l 171 -17 l 171 267 l 67 257 l 67 376 l 365 418 l 365 -17 l 468 -24 l 468 -139 l 264 -132 l 61 -139 z "},"₂":{"ha":664,"x_min":61,"x_max":603,"o":"m 603 -4 l 603 -139 l 61 -139 l 61 156 l 406 207 l 406 282 l 67 282 l 67 417 l 469 417 l 603 300 l 603 106 l 258 54 l 258 -4 l 603 -4 z "},"₃":{"ha":644,"x_min":47,"x_max":600,"o":"m 506 -139 l 47 -139 l 47 -6 l 390 -6 l 390 85 l 107 85 l 107 204 l 371 204 l 371 283 l 57 283 l 57 417 l 485 417 l 581 328 l 581 196 l 513 151 l 600 94 l 600 -50 l 506 -139 z "},"₄":{"ha":664,"x_min":43,"x_max":603,"o":"m 43 10 l 68 417 l 256 417 l 232 143 l 418 143 l 418 417 l 603 417 l 603 -139 l 418 -139 l 418 10 l 43 10 z "},"₅":{"ha":664,"x_min":61,"x_max":603,"o":"m 600 283 l 254 283 l 254 215 l 603 189 l 603 -42 l 482 -139 l 64 -139 l 64 -6 l 410 -6 l 410 82 l 61 107 l 61 417 l 600 417 l 600 283 z "},"₆":{"ha":681,"x_min":57,"x_max":624,"o":"m 172 -139 l 57 -47 l 57 325 l 172 417 l 588 417 l 588 283 l 250 283 l 250 215 l 553 215 l 624 157 l 624 -47 l 510 -139 l 172 -139 m 250 -6 l 431 -6 l 431 110 l 250 110 l 250 -6 z "},"₇":{"ha":614,"x_min":39,"x_max":575,"o":"m 82 -139 l 381 226 l 381 292 l 204 292 l 204 189 l 39 189 l 39 417 l 575 417 l 575 197 l 324 -139 l 82 -139 z "},"₈":{"ha":671,"x_min":44,"x_max":626,"o":"m 253 199 l 418 199 l 418 294 l 253 294 l 253 199 m 229 -17 l 442 -17 l 442 93 l 229 93 l 229 -17 m 139 -139 l 44 -50 l 44 94 l 124 151 l 64 196 l 64 328 l 160 417 l 511 417 l 607 328 l 607 196 l 547 151 l 626 94 l 626 -50 l 532 -139 l 139 -139 z "},"₉":{"ha":681,"x_min":57,"x_max":624,"o":"m 510 417 l 624 325 l 624 -47 l 510 -139 l 94 -139 l 94 -6 l 431 -6 l 431 63 l 129 63 l 57 121 l 57 325 l 172 417 l 510 417 m 431 283 l 250 283 l 250 168 l 431 168 l 431 283 z "},"⁄":{"ha":306,"x_min":-194,"x_max":500,"o":"m -194 0 l 306 972 l 500 972 l 0 0 l -194 0 z "},"¼":{"ha":1500,"x_min":61,"x_max":1439,"o":"m 61 415 l 61 531 l 171 538 l 171 821 l 67 811 l 67 931 l 365 972 l 365 538 l 468 531 l 468 415 l 264 422 l 61 415 m 336 0 l 836 972 l 1031 972 l 531 0 l 336 0 m 879 149 l 904 556 l 1092 556 l 1068 282 l 1254 282 l 1254 556 l 1439 556 l 1439 0 l 1254 0 l 1254 149 l 879 149 z "},"½":{"ha":1500,"x_min":61,"x_max":1439,"o":"m 61 415 l 61 531 l 171 538 l 171 821 l 67 811 l 67 931 l 365 972 l 365 538 l 468 531 l 468 415 l 264 422 l 61 415 m 336 0 l 836 972 l 1031 972 l 531 0 l 336 0 m 1439 135 l 1439 0 l 897 0 l 897 294 l 1242 346 l 1242 421 l 903 421 l 903 556 l 1306 556 l 1439 439 l 1439 244 l 1094 193 l 1094 135 l 1439 135 z "},"¾":{"ha":1614,"x_min":47,"x_max":1553,"o":"m 506 417 l 47 417 l 47 550 l 390 550 l 390 640 l 107 640 l 107 760 l 371 760 l 371 839 l 57 839 l 57 972 l 485 972 l 581 883 l 581 751 l 513 707 l 600 650 l 600 506 l 506 417 m 450 0 l 950 972 l 1144 972 l 644 0 l 450 0 m 993 149 l 1018 556 l 1206 556 l 1182 282 l 1368 282 l 1368 556 l 1553 556 l 1553 0 l 1368 0 l 1368 149 l 993 149 z "},"%":{"ha":833,"x_min":25,"x_max":808,"o":"m 25 0 l 582 972 l 808 972 l 251 0 l 25 0 m 561 0 l 561 233 l 778 233 l 778 0 l 561 0 m 56 739 l 56 972 l 272 972 l 272 739 l 56 739 z "},"‰":{"ha":1072,"x_min":25,"x_max":1047,"o":"m 25 0 l 582 972 l 808 972 l 251 0 l 25 0 m 511 0 l 511 233 l 728 233 l 728 0 l 511 0 m 56 739 l 56 972 l 272 972 l 272 739 l 56 739 m 831 0 l 831 233 l 1047 233 l 1047 0 l 831 0 z "},"′":{"ha":311,"x_min":56,"x_max":269,"o":"m 56 622 l 56 972 l 269 972 l 214 622 l 56 622 z "},"″":{"ha":578,"x_min":56,"x_max":536,"o":"m 56 622 l 56 972 l 269 972 l 214 622 l 56 622 m 322 622 l 322 972 l 536 972 l 481 622 l 322 622 z "},"+":{"ha":833,"x_min":56,"x_max":778,"o":"m 56 343 l 56 546 l 778 546 l 778 343 l 56 343 m 524 83 l 310 83 l 310 806 l 524 806 l 524 83 z "},"−":{"ha":833,"x_min":56,"x_max":778,"o":"m 56 343 l 56 546 l 778 546 l 778 343 l 56 343 z "},"×":{"ha":833,"x_min":63,"x_max":771,"o":"m 63 233 l 274 444 l 63 656 l 206 799 l 417 588 l 628 799 l 771 656 l 560 444 l 771 233 l 628 90 l 417 301 l 206 90 l 63 233 z "},"÷":{"ha":833,"x_min":56,"x_max":778,"o":"m 308 64 l 308 261 l 525 261 l 525 64 l 308 64 m 308 628 l 308 825 l 525 825 l 525 628 l 308 628 m 56 343 l 56 546 l 778 546 l 778 343 l 56 343 z "},"=":{"ha":833,"x_min":56,"x_max":778,"o":"m 56 506 l 56 692 l 778 692 l 778 506 l 56 506 m 56 197 l 56 383 l 778 383 l 778 197 l 56 197 z "},"<":{"ha":833,"x_min":42,"x_max":778,"o":"m 42 285 l 42 493 l 778 778 l 778 567 l 289 389 l 778 211 l 778 0 l 42 285 z "},">":{"ha":833,"x_min":56,"x_max":792,"o":"m 792 493 l 792 285 l 56 0 l 56 211 l 544 389 l 56 567 l 56 778 l 792 493 z "},"≤":{"ha":833,"x_min":42,"x_max":778,"o":"m 42 472 l 42 681 l 778 915 l 778 704 l 289 576 l 778 449 l 778 238 l 42 472 m 56 0 l 56 178 l 778 178 l 778 0 l 56 0 z "},"≥":{"ha":833,"x_min":56,"x_max":792,"o":"m 792 472 l 56 238 l 56 449 l 544 576 l 56 704 l 56 915 l 792 681 l 792 472 m 778 0 l 56 0 l 56 178 l 778 178 l 778 0 z "},"±":{"ha":833,"x_min":56,"x_max":778,"o":"m 56 490 l 56 676 l 310 676 l 310 919 l 524 919 l 524 676 l 778 676 l 778 490 l 524 490 l 524 247 l 310 247 l 310 490 l 56 490 m 56 0 l 56 186 l 778 186 l 778 0 l 56 0 z "},"≠":{"ha":833,"x_min":56,"x_max":778,"o":"m 56 500 l 56 692 l 778 692 l 778 500 l 56 500 m 56 197 l 56 389 l 778 389 l 778 197 l 56 197 m 175 0 l 474 889 l 658 889 l 360 0 l 175 0 z "},"≈":{"ha":833,"x_min":28,"x_max":806,"o":"m 56 447 l 28 618 l 208 783 l 608 622 l 778 756 l 806 585 l 608 419 l 225 581 l 56 447 m 56 144 l 28 315 l 225 481 l 608 319 l 778 453 l 806 282 l 625 117 l 225 278 l 56 144 z "},"∕":{"ha":833,"x_min":42,"x_max":792,"o":"m 42 0 l 542 972 l 792 972 l 292 0 l 42 0 z "},"∙":{"ha":500,"x_min":142,"x_max":358,"o":"m 142 343 l 142 557 l 358 557 l 358 343 l 142 343 z "},"⁒":{"ha":833,"x_min":25,"x_max":808,"o":"m 25 0 l 582 972 l 808 972 l 251 0 l 25 0 m 561 0 l 561 233 l 778 233 l 778 0 l 561 0 m 56 739 l 56 972 l 272 972 l 272 739 l 56 739 z "},"¬":{"ha":833,"x_min":56,"x_max":778,"o":"m 56 336 l 56 553 l 778 553 l 778 100 l 561 100 l 561 336 l 56 336 z "},"µ":{"ha":861,"x_min":67,"x_max":794,"o":"m 794 778 l 794 0 l 300 0 l 300 -222 l 67 -222 l 67 778 l 300 778 l 300 203 l 561 203 l 561 778 l 794 778 z "},"√":{"ha":1014,"x_min":56,"x_max":999,"o":"m 328 0 l 229 575 l 56 575 l 56 778 l 442 778 l 515 194 l 581 194 l 744 972 l 999 972 l 781 0 l 328 0 z "},"∞":{"ha":1233,"x_min":56,"x_max":1178,"o":"m 497 306 l 272 306 l 272 667 l 497 667 l 497 306 m 961 286 l 714 286 l 714 699 l 961 699 l 961 286 m 1178 244 l 1178 728 l 1008 897 l 715 897 l 596 778 l 504 869 l 225 869 l 56 700 l 56 272 l 225 103 l 504 103 l 596 194 l 715 75 l 1008 75 l 1178 244 z "},"∫":{"ha":569,"x_min":0,"x_max":525,"o":"m 0 -194 l 0 8 l 225 8 l 67 814 l 225 972 l 525 972 l 525 769 l 300 769 l 458 -36 l 300 -194 l 0 -194 z "},"∂":{"ha":903,"x_min":63,"x_max":840,"o":"m 679 0 l 224 0 l 63 161 l 63 518 l 164 619 l 607 619 l 607 769 l 114 769 l 114 972 l 679 972 l 840 811 l 840 161 l 679 0 m 607 194 l 607 458 l 296 458 l 296 194 l 607 194 z "},"◊":{"ha":889,"x_min":7,"x_max":882,"o":"m 426 0 l 465 0 l 654 444 l 463 889 l 424 889 l 235 444 l 426 0 m 310 -194 l 7 444 l 310 1083 l 579 1083 l 882 444 l 579 -194 l 310 -194 z "},"∏":{"ha":919,"x_min":67,"x_max":853,"o":"m 67 -194 l 67 972 l 853 972 l 853 -194 l 619 -194 l 619 769 l 300 769 l 300 -194 l 67 -194 z "},"∑":{"ha":810,"x_min":44,"x_max":765,"o":"m 44 -194 l 44 -22 l 360 393 l 51 800 l 51 972 l 758 972 l 758 778 l 339 778 l 613 393 l 319 0 l 765 0 l 765 -194 l 44 -194 z "},"№":{"ha":1656,"x_min":67,"x_max":1600,"o":"m 67 0 l 67 972 l 288 972 l 661 354 l 661 972 l 878 972 l 878 0 l 657 0 l 283 618 l 283 0 l 67 0 m 1000 281 l 1000 622 l 1142 764 l 1458 764 l 1600 622 l 1600 281 l 1458 139 l 1142 139 l 1000 281 m 1208 308 l 1392 308 l 1392 594 l 1208 594 l 1208 308 z "},"¤":{"ha":908,"x_min":36,"x_max":872,"o":"m 154 358 l 154 614 l 224 683 l 36 972 l 296 972 l 403 750 l 506 750 l 613 972 l 872 972 l 685 683 l 754 614 l 754 358 l 685 289 l 872 0 l 613 0 l 506 222 l 403 222 l 296 0 l 36 0 l 224 289 l 154 358 m 371 378 l 538 378 l 538 594 l 371 594 l 371 378 z "},"$":{"ha":917,"x_min":63,"x_max":854,"o":"m 74 53 l 74 239 l 621 239 l 621 400 l 63 428 l 63 753 l 229 919 l 365 919 l 365 1056 l 590 1056 l 590 919 l 835 919 l 835 733 l 296 733 l 296 586 l 854 558 l 854 218 l 689 53 l 557 53 l 557 -83 l 332 -83 l 332 53 l 74 53 z "},"¢":{"ha":736,"x_min":56,"x_max":703,"o":"m 56 256 l 56 717 l 214 875 l 333 875 l 333 1028 l 519 1028 l 519 875 l 703 875 l 703 664 l 289 664 l 289 308 l 703 308 l 703 97 l 519 97 l 519 -56 l 333 -56 l 333 97 l 214 97 l 56 256 z "},"£":{"ha":894,"x_min":42,"x_max":861,"o":"m 672 375 l 458 375 l 458 194 l 861 194 l 861 0 l 42 0 l 42 194 l 225 194 l 225 375 l 97 375 l 97 561 l 225 561 l 225 861 l 336 972 l 819 972 l 819 669 l 636 669 l 636 786 l 458 786 l 458 561 l 672 561 l 672 375 z "},"€":{"ha":869,"x_min":19,"x_max":832,"o":"m 132 169 l 132 343 l 19 343 l 19 454 l 132 454 l 132 532 l 19 532 l 19 643 l 132 643 l 132 803 l 301 972 l 818 972 l 818 778 l 382 778 l 382 643 l 758 643 l 717 532 l 382 532 l 382 454 l 692 454 l 650 343 l 382 343 l 382 194 l 832 194 l 832 0 l 301 0 l 132 169 z "},"¥":{"ha":889,"x_min":18,"x_max":871,"o":"m 328 0 l 328 138 l 47 138 l 47 281 l 328 281 l 328 363 l 47 363 l 47 506 l 185 506 l 18 972 l 267 972 l 404 506 l 485 506 l 622 972 l 871 972 l 704 506 l 842 506 l 842 363 l 561 363 l 561 281 l 842 281 l 842 138 l 561 138 l 561 0 l 328 0 z "},"₣":{"ha":775,"x_min":14,"x_max":733,"o":"m 67 0 l 67 972 l 733 972 l 733 761 l 300 761 l 300 539 l 706 539 l 706 336 l 300 336 l 300 0 l 67 0 m 14 147 l 14 253 l 542 253 l 542 147 l 14 147 z "},"₽":{"ha":889,"x_min":14,"x_max":850,"o":"m 850 803 l 850 444 l 681 275 l 339 275 l 339 206 l 642 206 l 642 100 l 339 100 l 339 0 l 106 0 l 106 100 l 14 100 l 14 206 l 106 206 l 106 275 l 14 275 l 14 450 l 106 450 l 106 972 l 681 972 l 850 803 m 339 450 l 617 450 l 617 786 l 339 786 l 339 450 z "},"₿":{"ha":897,"x_min":67,"x_max":858,"o":"m 67 53 l 67 919 l 256 919 l 256 1056 l 374 1056 l 374 919 l 479 919 l 479 1056 l 597 1056 l 597 919 l 694 919 l 831 783 l 831 582 l 749 514 l 858 422 l 858 189 l 722 53 l 597 53 l 597 -83 l 479 -83 l 479 53 l 374 53 l 374 -83 l 256 -83 l 256 53 l 67 53 m 300 579 l 593 579 l 593 736 l 300 736 l 300 579 m 300 236 l 617 236 l 617 418 l 300 418 l 300 236 z "},"₮":{"ha":778,"x_min":28,"x_max":750,"o":"m 272 0 l 272 778 l 28 778 l 28 972 l 750 972 l 750 778 l 506 778 l 506 0 l 272 0 m 94 397 l 94 547 l 683 656 l 683 506 l 94 397 m 94 147 l 94 297 l 683 406 l 683 256 l 94 147 z "},"₴":{"ha":889,"x_min":58,"x_max":831,"o":"m 813 203 l 813 0 l 238 0 l 63 175 l 590 769 l 76 769 l 76 972 l 651 972 l 826 797 l 299 203 l 813 203 m 58 631 l 831 631 l 831 528 l 58 528 l 58 631 m 58 444 l 831 444 l 831 342 l 58 342 l 58 444 z "},"₸":{"ha":778,"x_min":28,"x_max":750,"o":"m 272 0 l 272 551 l 28 551 l 28 719 l 750 719 l 750 551 l 506 551 l 506 0 l 272 0 m 28 804 l 28 972 l 750 972 l 750 804 l 28 804 z "},"֏":{"ha":861,"x_min":63,"x_max":799,"o":"m 799 0 l 799 803 l 629 972 l 232 972 l 63 803 l 63 578 l 296 578 l 296 761 l 565 761 l 565 506 l 160 506 l 160 361 l 565 361 l 565 281 l 160 281 l 160 136 l 565 136 l 565 0 l 799 0 z "},"´":{"ha":556,"x_min":56,"x_max":500,"o":"m 56 856 l 56 972 l 500 1011 l 500 856 l 56 856 z "},"ˆ":{"ha":639,"x_min":56,"x_max":583,"o":"m 56 833 l 56 978 l 319 1067 l 583 978 l 583 833 l 319 922 l 56 833 z "},"ˇ":{"ha":639,"x_min":56,"x_max":583,"o":"m 583 1067 l 583 922 l 319 833 l 56 922 l 56 1067 l 319 978 l 583 1067 z "},"˘":{"ha":700,"x_min":56,"x_max":644,"o":"m 451 1033 l 644 1033 l 522 842 l 178 842 l 56 1033 l 249 1033 l 267 953 l 433 953 l 451 1033 z "},"˜":{"ha":694,"x_min":56,"x_max":639,"o":"m 83 819 l 56 951 l 194 1040 l 478 974 l 611 1042 l 639 910 l 500 821 l 217 888 l 83 819 z "},"¨":{"ha":667,"x_min":56,"x_max":611,"o":"m 56 850 l 56 1003 l 272 1003 l 272 850 l 56 850 m 394 850 l 394 1003 l 611 1003 l 611 850 l 394 850 z "},"˙":{"ha":344,"x_min":56,"x_max":289,"o":"m 56 850 l 56 1003 l 289 1003 l 289 850 l 56 850 z "},"˚":{"ha":486,"x_min":56,"x_max":431,"o":"m 56 890 l 56 1026 l 153 1106 l 333 1106 l 431 1026 l 431 890 l 333 811 l 153 811 l 56 890 m 172 914 l 314 914 l 314 1003 l 172 1003 l 172 914 z "},"¯":{"ha":583,"x_min":56,"x_max":528,"o":"m 56 864 l 56 1014 l 528 1014 l 528 864 l 56 864 z "},"˝":{"ha":601,"x_min":56,"x_max":546,"o":"m 56 831 l 111 1014 l 300 1014 l 197 831 l 56 831 m 274 831 l 357 1014 l 546 1014 l 418 831 l 274 831 z "},"¸":{"ha":390,"x_min":56,"x_max":335,"o":"m 56 -278 l 122 -75 l 335 -75 l 221 -278 l 56 -278 z "},"˛":{"ha":379,"x_min":56,"x_max":324,"o":"m 324 -67 l 268 -278 l 56 -278 l 158 -67 l 324 -67 z "},"ʹ":{"ha":311,"x_min":56,"x_max":269,"o":"m 56 622 l 56 972 l 269 972 l 214 622 l 56 622 z "},"ʺ":{"ha":578,"x_min":56,"x_max":536,"o":"m 56 622 l 56 972 l 269 972 l 214 622 l 56 622 m 322 622 l 322 972 l 536 972 l 481 622 l 322 622 z "},"ʻ":{"ha":372,"x_min":61,"x_max":346,"o":"m 281 778 l 281 556 l 61 556 l 61 778 l 201 972 l 346 972 l 206 778 l 281 778 z "},"ʼ":{"ha":372,"x_min":26,"x_max":311,"o":"m 92 750 l 92 972 l 311 972 l 311 750 l 171 556 l 26 556 l 167 750 l 92 750 z "},"̀":{"ha":0,"x_min":-264,"x_max":181,"o":"m 181 856 l -264 856 l -264 1011 l 181 972 l 181 856 z "},"́":{"ha":0,"x_min":-181,"x_max":264,"o":"m -181 856 l -181 972 l 264 1011 l 264 856 l -181 856 z "},"̂":{"ha":0,"x_min":-264,"x_max":264,"o":"m -264 833 l -264 978 l 0 1067 l 264 978 l 264 833 l 0 922 l -264 833 z "},"̌":{"ha":0,"x_min":-264,"x_max":264,"o":"m 264 1067 l 264 922 l 0 833 l -264 922 l -264 1067 l 0 978 l 264 1067 z "},"̑":{"ha":0,"x_min":-294,"x_max":294,"o":"m -101 832 l -294 832 l -172 1024 l 172 1024 l 294 832 l 101 832 l 83 913 l -83 913 l -101 832 z "},"̆":{"ha":0,"x_min":-294,"x_max":294,"o":"m 101 1033 l 294 1033 l 172 842 l -172 842 l -294 1033 l -101 1033 l -83 953 l 83 953 l 101 1033 z "},"̃":{"ha":0,"x_min":-292,"x_max":292,"o":"m -264 819 l -292 951 l -153 1040 l 131 974 l 264 1042 l 292 910 l 153 821 l -131 888 l -264 819 z "},"̈":{"ha":0,"x_min":-278,"x_max":278,"o":"m -278 850 l -278 1003 l -61 1003 l -61 850 l -278 850 m 61 850 l 61 1003 l 278 1003 l 278 850 l 61 850 z "},"̇":{"ha":0,"x_min":-117,"x_max":117,"o":"m -117 850 l -117 1003 l 117 1003 l 117 850 l -117 850 z "},"̊":{"ha":0,"x_min":-187,"x_max":188,"o":"m -187 890 l -187 1026 l -90 1106 l 90 1106 l 188 1026 l 188 890 l 90 811 l -90 811 l -187 890 m -71 914 l 71 914 l 71 1003 l -71 1003 l -71 914 z "},"̋":{"ha":0,"x_min":-196,"x_max":294,"o":"m -196 831 l -140 1014 l 49 1014 l -54 831 l -196 831 m 22 831 l 106 1014 l 294 1014 l 167 831 l 22 831 z "},"̏":{"ha":0,"x_min":-294,"x_max":196,"o":"m 140 1014 l 196 831 l 54 831 l -49 1014 l 140 1014 m -106 1014 l -22 831 l -167 831 l -294 1014 l -106 1014 z "},"̄":{"ha":0,"x_min":-236,"x_max":236,"o":"m -236 864 l -236 1014 l 236 1014 l 236 864 l -236 864 z "},"̒":{"ha":0,"x_min":-132,"x_max":147,"o":"m 147 1047 l 81 844 l -132 844 l -18 1047 l 147 1047 z "},"̉":{"ha":0,"x_min":-133,"x_max":144,"o":"m -133 922 l -133 1014 l 144 1014 l 144 922 l 47 819 l -92 819 l 6 922 l -133 922 z "},"̛":{"ha":0,"x_min":-243,"x_max":61,"o":"m -114 972 l -114 1083 l 61 1083 l 61 922 l -67 794 l -243 794 l -243 972 l -114 972 z "},"̕":{"ha":86,"x_min":0,"x_max":86,"o":"m 0 650 l 0 972 l 86 972 l 86 650 l 0 650 z "},"̦":{"ha":0,"x_min":-150,"x_max":129,"o":"m -150 -278 l -83 -75 l 129 -75 l 15 -278 l -150 -278 z "},"̧":{"ha":0,"x_min":-150,"x_max":129,"o":"m -150 -278 l -83 -75 l 129 -75 l 15 -278 l -150 -278 z "},"̨":{"ha":0,"x_min":-161,"x_max":107,"o":"m 107 -67 l 51 -278 l -161 -278 l -58 -67 l 107 -67 z "},"̣":{"ha":0,"x_min":-117,"x_max":117,"o":"m -117 -247 l -117 -94 l 117 -94 l 117 -247 l -117 -247 z "},"̩":{"ha":0,"x_min":-92,"x_max":92,"o":"m -92 -306 l -92 -69 l 92 -69 l 92 -306 l -92 -306 z "},"̱":{"ha":0,"x_min":-236,"x_max":236,"o":"m -236 -236 l -236 -86 l 236 -86 l 236 -236 l -236 -236 z "},"←":{"ha":1167,"x_min":28,"x_max":1139,"o":"m 28 376 l 28 401 l 350 778 l 608 778 l 346 490 l 1139 490 l 1139 288 l 346 288 l 608 0 l 350 0 l 28 376 z "},"↑":{"ha":833,"x_min":28,"x_max":806,"o":"m 404 1042 l 429 1042 l 806 719 l 806 461 l 518 724 l 518 -69 l 315 -69 l 315 724 l 28 461 l 28 719 l 404 1042 z "},"→":{"ha":1167,"x_min":28,"x_max":1139,"o":"m 1139 401 l 1139 376 l 817 0 l 558 0 l 821 288 l 28 288 l 28 490 l 821 490 l 558 778 l 817 778 l 1139 401 z "},"↓":{"ha":833,"x_min":28,"x_max":806,"o":"m 404 -69 l 429 -69 l 806 253 l 806 511 l 518 249 l 518 1042 l 315 1042 l 315 249 l 28 511 l 28 253 l 404 -69 z "},"↔":{"ha":1528,"x_min":28,"x_max":1500,"o":"m 28 401 l 28 376 l 350 0 l 608 0 l 346 288 l 1182 288 l 919 0 l 1178 0 l 1500 376 l 1500 401 l 1178 778 l 919 778 l 1182 490 l 346 490 l 608 778 l 350 778 l 28 401 z "},"↕":{"ha":833,"x_min":28,"x_max":806,"o":"m 28 67 l 28 325 l 315 63 l 315 899 l 28 636 l 28 894 l 404 1217 l 429 1217 l 806 894 l 806 636 l 518 899 l 518 63 l 806 325 l 806 67 l 429 -256 l 404 -256 l 28 67 z "},"↖":{"ha":1026,"x_min":64,"x_max":968,"o":"m 103 781 l 119 799 l 614 838 l 796 654 l 407 636 l 968 75 l 825 -67 l 264 494 l 246 104 l 64 288 l 103 781 z "},"↗":{"ha":1026,"x_min":58,"x_max":963,"o":"m 906 799 l 924 781 l 963 288 l 781 104 l 763 494 l 201 -67 l 58 75 l 618 636 l 231 654 l 413 838 l 906 799 z "},"↘":{"ha":1026,"x_min":58,"x_max":963,"o":"m 906 -4 l 924 14 l 963 508 l 781 690 l 763 301 l 201 863 l 58 719 l 618 158 l 231 140 l 413 -42 l 906 -4 z "},"↙":{"ha":1026,"x_min":64,"x_max":968,"o":"m 103 14 l 119 -4 l 614 -42 l 796 140 l 407 158 l 968 719 l 825 863 l 264 301 l 246 690 l 64 508 l 103 14 z "},"ﬁ":{"ha":969,"x_min":67,"x_max":903,"o":"m 67 0 l 67 814 l 225 972 l 575 972 l 575 769 l 300 769 l 300 597 l 575 597 l 575 403 l 300 403 l 300 0 l 67 0 m 669 0 l 669 778 l 903 778 l 903 0 l 669 0 m 669 850 l 669 1003 l 903 1003 l 903 850 l 669 850 z "},"ﬂ":{"ha":969,"x_min":67,"x_max":903,"o":"m 67 0 l 67 814 l 225 972 l 575 972 l 575 769 l 300 769 l 300 597 l 575 597 l 575 403 l 300 403 l 300 0 l 67 0 m 669 0 l 669 972 l 903 972 l 903 0 l 669 0 z "},"ﬀ":{"ha":1206,"x_min":67,"x_max":1178,"o":"m 67 0 l 67 814 l 225 972 l 575 972 l 575 769 l 300 769 l 300 597 l 575 597 l 575 403 l 300 403 l 300 0 l 67 0 m 669 0 l 669 814 l 828 972 l 1178 972 l 1178 769 l 903 769 l 903 597 l 1178 597 l 1178 403 l 903 403 l 903 0 l 669 0 z "},"ﬃ":{"ha":1572,"x_min":67,"x_max":1506,"o":"m 67 0 l 67 814 l 225 972 l 575 972 l 575 769 l 300 769 l 300 597 l 575 597 l 575 403 l 300 403 l 300 0 l 67 0 m 669 0 l 669 814 l 828 972 l 1178 972 l 1178 769 l 903 769 l 903 597 l 1178 597 l 1178 403 l 903 403 l 903 0 l 669 0 m 1272 0 l 1272 778 l 1506 778 l 1506 0 l 1272 0 m 1272 850 l 1272 1003 l 1506 1003 l 1506 850 l 1272 850 z "},"ﬄ":{"ha":1572,"x_min":67,"x_max":1506,"o":"m 67 0 l 67 814 l 225 972 l 575 972 l 575 769 l 300 769 l 300 597 l 575 597 l 575 403 l 300 403 l 300 0 l 67 0 m 669 0 l 669 814 l 828 972 l 1178 972 l 1178 769 l 903 769 l 903 597 l 1178 597 l 1178 403 l 903 403 l 903 0 l 669 0 m 1272 0 l 1272 972 l 1506 972 l 1506 0 l 1272 0 z "},"Α":{"ha":911,"x_min":15,"x_max":896,"o":"m 15 0 l 229 972 l 682 972 l 896 0 l 649 0 l 608 208 l 303 208 l 263 0 l 15 0 m 332 376 l 579 376 l 499 788 l 413 788 l 332 376 z "},"Β":{"ha":906,"x_min":67,"x_max":867,"o":"m 300 579 l 601 579 l 601 786 l 300 786 l 300 579 m 300 186 l 625 186 l 625 418 l 300 418 l 300 186 m 839 811 l 839 582 l 757 514 l 867 422 l 867 161 l 706 0 l 67 0 l 67 972 l 678 972 l 839 811 z "},"Γ":{"ha":708,"x_min":67,"x_max":694,"o":"m 67 0 l 67 972 l 694 972 l 694 761 l 300 761 l 300 0 l 67 0 z "},"Δ":{"ha":961,"x_min":13,"x_max":949,"o":"m 706 972 l 949 0 l 694 0 l 524 778 l 438 778 l 267 0 l 13 0 l 256 972 l 706 972 m 89 0 l 89 194 l 883 194 l 883 0 l 89 0 z "},"Ε":{"ha":806,"x_min":67,"x_max":764,"o":"m 67 0 l 67 972 l 750 972 l 750 778 l 300 778 l 300 589 l 681 589 l 681 403 l 300 403 l 300 194 l 764 194 l 764 0 l 67 0 z "},"Ζ":{"ha":782,"x_min":44,"x_max":738,"o":"m 44 0 l 44 172 l 471 778 l 49 778 l 49 972 l 733 972 l 733 800 l 307 194 l 738 194 l 738 0 l 44 0 z "},"Η":{"ha":914,"x_min":67,"x_max":847,"o":"m 67 0 l 67 972 l 300 972 l 300 606 l 614 606 l 614 972 l 847 972 l 847 0 l 614 0 l 614 394 l 300 394 l 300 0 l 67 0 z "},"Θ":{"ha":903,"x_min":63,"x_max":840,"o":"m 63 169 l 63 803 l 232 972 l 671 972 l 840 803 l 840 169 l 671 0 l 232 0 l 63 169 m 296 778 l 296 567 l 607 567 l 607 778 l 296 778 m 296 194 l 607 194 l 607 406 l 296 406 l 296 194 z "},"Ι":{"ha":597,"x_min":63,"x_max":535,"o":"m 63 -6 l 63 176 l 182 183 l 182 789 l 63 796 l 63 978 l 299 967 l 535 978 l 535 796 l 415 789 l 415 183 l 535 176 l 535 -6 l 299 6 l 63 -6 z "},"Κ":{"ha":908,"x_min":67,"x_max":906,"o":"m 67 0 l 67 972 l 300 972 l 300 594 l 439 594 l 626 972 l 885 972 l 643 514 l 906 0 l 644 0 l 450 392 l 300 392 l 300 0 l 67 0 z "},"Λ":{"ha":894,"x_min":15,"x_max":879,"o":"m 674 972 l 879 0 l 629 0 l 490 761 l 404 761 l 265 0 l 15 0 l 221 972 l 674 972 z "},"Μ":{"ha":1083,"x_min":67,"x_max":1017,"o":"m 67 0 l 67 972 l 347 972 l 542 558 l 736 972 l 1017 972 l 1017 0 l 788 0 l 788 675 l 592 272 l 492 272 l 296 675 l 296 0 l 67 0 z "},"Ν":{"ha":944,"x_min":67,"x_max":878,"o":"m 67 0 l 67 972 l 288 972 l 661 354 l 661 972 l 878 972 l 878 0 l 657 0 l 283 618 l 283 0 l 67 0 z "},"Ξ":{"ha":917,"x_min":42,"x_max":875,"o":"m 42 0 l 42 194 l 343 194 l 343 403 l 125 403 l 125 589 l 343 589 l 343 778 l 56 778 l 56 972 l 861 972 l 861 778 l 574 778 l 574 589 l 792 589 l 792 403 l 574 403 l 574 194 l 875 194 l 875 0 l 42 0 z "},"Ο":{"ha":944,"x_min":63,"x_max":882,"o":"m 63 169 l 63 803 l 232 972 l 713 972 l 882 803 l 882 169 l 713 0 l 232 0 l 63 169 m 304 769 l 304 203 l 640 203 l 640 769 l 304 769 z "},"Π":{"ha":903,"x_min":67,"x_max":836,"o":"m 67 0 l 67 972 l 836 972 l 836 0 l 603 0 l 603 769 l 300 769 l 300 0 l 67 0 z "},"Ρ":{"ha":869,"x_min":67,"x_max":831,"o":"m 300 394 l 597 394 l 597 786 l 300 786 l 300 394 m 831 803 l 831 378 l 661 208 l 300 208 l 300 0 l 67 0 l 67 972 l 661 972 l 831 803 z "},"Σ":{"ha":782,"x_min":44,"x_max":738,"o":"m 44 0 l 44 172 l 360 486 l 51 800 l 51 972 l 731 972 l 731 778 l 342 778 l 615 486 l 322 194 l 738 194 l 738 0 l 44 0 z "},"Τ":{"ha":794,"x_min":28,"x_max":767,"o":"m 281 0 l 281 769 l 28 769 l 28 972 l 767 972 l 767 769 l 514 769 l 514 0 l 281 0 z "},"Υ":{"ha":889,"x_min":18,"x_max":871,"o":"m 328 0 l 328 292 l 210 292 l 18 972 l 267 972 l 385 493 l 504 493 l 622 972 l 871 972 l 679 292 l 561 292 l 561 0 l 328 0 z "},"Φ":{"ha":1169,"x_min":63,"x_max":1107,"o":"m 63 250 l 63 722 l 224 883 l 946 883 l 1107 722 l 1107 250 l 946 89 l 224 89 l 63 250 m 288 697 l 288 275 l 882 275 l 882 697 l 288 697 m 693 0 l 476 0 l 476 972 l 693 972 l 693 0 z "},"Χ":{"ha":917,"x_min":11,"x_max":906,"o":"m 11 0 l 228 514 l 32 972 l 282 972 l 418 606 l 499 606 l 635 972 l 885 972 l 689 514 l 906 0 l 653 0 l 508 394 l 408 394 l 264 0 l 11 0 z "},"Ψ":{"ha":1169,"x_min":63,"x_max":1107,"o":"m 232 233 l 63 403 l 63 972 l 288 972 l 288 419 l 476 419 l 476 972 l 693 972 l 693 419 l 882 419 l 882 972 l 1107 972 l 1107 403 l 938 233 l 693 233 l 693 0 l 476 0 l 476 233 l 232 233 z "},"Ω":{"ha":919,"x_min":25,"x_max":894,"o":"m 25 0 l 25 211 l 179 211 l 54 336 l 54 803 l 224 972 l 696 972 l 865 803 l 865 336 l 740 211 l 894 211 l 894 0 l 525 0 l 525 211 l 624 310 l 624 761 l 296 761 l 296 310 l 394 211 l 394 0 l 25 0 z "},"Ω":{"ha":919,"x_min":25,"x_max":894,"o":"m 25 0 l 25 211 l 179 211 l 54 336 l 54 803 l 224 972 l 696 972 l 865 803 l 865 336 l 740 211 l 894 211 l 894 0 l 525 0 l 525 211 l 624 310 l 624 761 l 296 761 l 296 310 l 394 211 l 394 0 l 25 0 z "},"Ά":{"ha":1222,"x_min":56,"x_max":1093,"o":"m 56 622 l 56 972 l 269 972 l 214 622 l 56 622 m 213 0 l 426 972 l 879 972 l 1093 0 l 846 0 l 806 208 l 500 208 l 460 0 l 213 0 m 529 376 l 776 376 l 696 788 l 610 788 l 529 376 z "},"Έ":{"ha":1117,"x_min":56,"x_max":1075,"o":"m 56 622 l 56 972 l 269 972 l 214 622 l 56 622 m 378 0 l 378 972 l 1061 972 l 1061 778 l 611 778 l 611 589 l 992 589 l 992 403 l 611 403 l 611 194 l 1075 194 l 1075 0 l 378 0 z "},"Ή":{"ha":1225,"x_min":56,"x_max":1158,"o":"m 56 622 l 56 972 l 269 972 l 214 622 l 56 622 m 378 0 l 378 972 l 611 972 l 611 606 l 925 606 l 925 972 l 1158 972 l 1158 0 l 925 0 l 925 394 l 611 394 l 611 0 l 378 0 z "},"Ί":{"ha":908,"x_min":56,"x_max":846,"o":"m 56 622 l 56 972 l 269 972 l 214 622 l 56 622 m 374 -6 l 374 176 l 493 183 l 493 789 l 374 796 l 374 978 l 610 967 l 846 978 l 846 796 l 726 789 l 726 183 l 846 176 l 846 -6 l 610 6 l 374 -6 z "},"Ϊ":{"ha":597,"x_min":21,"x_max":576,"o":"m 63 -6 l 63 176 l 182 183 l 182 789 l 63 796 l 63 978 l 299 967 l 535 978 l 535 796 l 415 789 l 415 183 l 535 176 l 535 -6 l 299 6 l 63 -6 m 21 1044 l 21 1197 l 238 1197 l 238 1044 l 21 1044 m 360 1044 l 360 1197 l 576 1197 l 576 1044 l 360 1044 z "},"Ό":{"ha":1256,"x_min":56,"x_max":1151,"o":"m 56 622 l 56 972 l 269 972 l 214 622 l 56 622 m 332 169 l 332 803 l 501 972 l 982 972 l 1151 803 l 1151 169 l 982 0 l 501 0 l 332 169 m 574 769 l 574 203 l 910 203 l 910 769 l 574 769 z "},"Ύ":{"ha":1200,"x_min":56,"x_max":1182,"o":"m 56 622 l 56 972 l 269 972 l 214 622 l 56 622 m 639 0 l 639 292 l 521 292 l 329 972 l 578 972 l 696 493 l 815 493 l 933 972 l 1182 972 l 990 292 l 872 292 l 872 0 l 639 0 z "},"Ϋ":{"ha":889,"x_min":18,"x_max":871,"o":"m 328 0 l 328 292 l 210 292 l 18 972 l 267 972 l 385 493 l 504 493 l 622 972 l 871 972 l 679 292 l 561 292 l 561 0 l 328 0 m 167 1044 l 167 1197 l 383 1197 l 383 1044 l 167 1044 m 506 1044 l 506 1197 l 722 1197 l 722 1044 l 506 1044 z "},"Ώ":{"ha":1231,"x_min":56,"x_max":1164,"o":"m 56 622 l 56 972 l 269 972 l 214 622 l 56 622 m 294 0 l 294 211 l 449 211 l 324 336 l 324 803 l 493 972 l 965 972 l 1135 803 l 1135 336 l 1010 211 l 1164 211 l 1164 0 l 794 0 l 794 211 l 893 310 l 893 761 l 565 761 l 565 310 l 664 211 l 664 0 l 294 0 z "},"α":{"ha":858,"x_min":58,"x_max":810,"o":"m 194 0 l 58 136 l 58 642 l 194 778 l 469 778 l 560 656 l 572 778 l 810 778 l 761 389 l 810 0 l 572 0 l 560 122 l 469 0 l 194 0 m 292 190 l 560 190 l 560 588 l 292 588 l 292 190 z "},"β":{"ha":875,"x_min":67,"x_max":836,"o":"m 806 797 l 806 601 l 713 519 l 836 419 l 836 158 l 678 0 l 242 0 l 242 186 l 603 186 l 603 424 l 389 424 l 389 585 l 576 585 l 576 786 l 300 786 l 300 -139 l 67 -139 l 67 797 l 242 972 l 631 972 l 806 797 z "},"γ":{"ha":806,"x_min":10,"x_max":796,"o":"m 278 -22 l 10 778 l 249 778 l 390 228 l 418 228 l 561 778 l 796 778 l 528 -22 l 528 -194 l 278 -194 l 278 -22 z "},"δ":{"ha":867,"x_min":58,"x_max":808,"o":"m 225 0 l 58 167 l 58 625 l 358 744 l 482 660 l 292 557 l 292 194 l 575 194 l 575 565 l 135 806 l 135 972 l 767 972 l 767 806 l 401 806 l 808 639 l 808 167 l 642 0 l 225 0 z "},"ε":{"ha":811,"x_min":44,"x_max":764,"o":"m 181 0 l 44 136 l 44 317 l 160 408 l 72 476 l 72 650 l 200 778 l 750 778 l 750 600 l 315 600 l 315 468 l 703 468 l 703 315 l 288 315 l 288 178 l 764 178 l 764 0 l 181 0 z "},"ζ":{"ha":725,"x_min":56,"x_max":700,"o":"m 208 0 l 56 153 l 56 544 l 426 789 l 56 789 l 56 972 l 678 972 l 678 794 l 289 497 l 289 210 l 700 210 l 700 -189 l 497 -189 l 497 0 l 208 0 z "},"η":{"ha":861,"x_min":67,"x_max":794,"o":"m 67 0 l 67 778 l 628 778 l 794 611 l 794 0 l 561 0 l 561 575 l 300 575 l 300 0 l 67 0 z "},"θ":{"ha":869,"x_min":63,"x_max":807,"o":"m 63 169 l 63 803 l 232 972 l 638 972 l 807 803 l 807 169 l 638 0 l 232 0 l 63 169 m 288 786 l 288 567 l 582 567 l 582 786 l 288 786 m 288 186 l 582 186 l 582 406 l 288 406 l 288 186 z "},"ι":{"ha":456,"x_min":72,"x_max":428,"o":"m 72 778 l 306 778 l 306 204 l 428 204 l 428 0 l 208 0 l 72 136 l 72 778 z "},"κ":{"ha":867,"x_min":72,"x_max":861,"o":"m 72 0 l 72 778 l 306 778 l 306 501 l 446 501 l 590 778 l 851 778 l 642 418 l 861 0 l 597 0 l 457 307 l 306 307 l 306 0 l 72 0 z "},"λ":{"ha":833,"x_min":10,"x_max":824,"o":"m 169 972 l 568 972 l 824 0 l 586 0 l 474 489 l 365 489 l 249 0 l 10 0 l 192 667 l 435 667 l 399 794 l 169 794 l 169 972 z "},"μ":{"ha":944,"x_min":72,"x_max":917,"o":"m 72 -222 l 72 778 l 297 778 l 297 203 l 561 203 l 561 778 l 794 778 l 794 204 l 917 204 l 917 0 l 689 0 l 600 89 l 511 0 l 297 0 l 297 -222 l 72 -222 z "},"ν":{"ha":806,"x_min":10,"x_max":796,"o":"m 200 0 l 10 778 l 249 778 l 371 194 l 439 194 l 561 778 l 796 778 l 606 0 l 200 0 z "},"ξ":{"ha":750,"x_min":44,"x_max":708,"o":"m 172 0 l 44 128 l 44 418 l 160 510 l 72 578 l 72 844 l 200 972 l 701 972 l 701 779 l 297 779 l 297 582 l 686 582 l 686 397 l 274 397 l 274 193 l 708 193 l 708 -189 l 492 -189 l 492 0 l 172 0 z "},"ο":{"ha":839,"x_min":58,"x_max":781,"o":"m 58 158 l 58 619 l 217 778 l 622 778 l 781 619 l 781 158 l 622 0 l 217 0 l 58 158 m 292 186 l 547 186 l 547 592 l 292 592 l 292 186 z "},"π":{"ha":867,"x_min":69,"x_max":797,"o":"m 69 0 l 69 778 l 797 778 l 797 0 l 564 0 l 564 575 l 303 575 l 303 0 l 69 0 z "},"ρ":{"ha":869,"x_min":72,"x_max":811,"o":"m 72 -194 l 72 603 l 247 778 l 636 778 l 811 603 l 811 175 l 636 0 l 306 0 l 306 -194 l 72 -194 m 578 583 l 306 583 l 306 194 l 578 194 l 578 583 z "},"ς":{"ha":739,"x_min":58,"x_max":706,"o":"m 217 0 l 58 158 l 58 619 l 217 778 l 706 778 l 706 567 l 292 567 l 292 211 l 706 211 l 706 -189 l 489 -189 l 489 0 l 217 0 z "},"σ":{"ha":847,"x_min":58,"x_max":817,"o":"m 58 158 l 58 619 l 217 778 l 817 778 l 817 594 l 650 594 l 781 500 l 781 158 l 622 0 l 217 0 l 58 158 m 292 186 l 547 186 l 547 592 l 292 592 l 292 186 z "},"τ":{"ha":722,"x_min":28,"x_max":689,"o":"m 167 144 l 167 583 l 28 583 l 28 728 l 78 778 l 689 778 l 689 583 l 400 583 l 400 194 l 689 194 l 689 0 l 311 0 l 167 144 z "},"υ":{"ha":872,"x_min":72,"x_max":800,"o":"m 800 778 l 800 167 l 633 0 l 239 0 l 72 167 l 72 778 l 306 778 l 306 203 l 567 203 l 567 778 l 800 778 z "},"φ":{"ha":1128,"x_min":58,"x_max":1069,"o":"m 663 186 l 844 186 l 844 592 l 663 592 l 663 186 m 217 0 l 58 158 l 58 619 l 217 778 l 451 778 l 283 583 l 283 186 l 465 186 l 465 596 l 621 778 l 911 778 l 1069 619 l 1069 158 l 911 0 l 663 0 l 663 -194 l 465 -194 l 465 0 l 217 0 z "},"χ":{"ha":875,"x_min":22,"x_max":853,"o":"m 22 0 l 211 410 l 36 778 l 296 778 l 400 493 l 475 493 l 579 778 l 839 778 l 664 410 l 853 0 l 590 0 l 485 299 l 390 299 l 285 0 l 22 0 z "},"ψ":{"ha":1167,"x_min":67,"x_max":1100,"o":"m 228 0 l 67 161 l 67 778 l 292 778 l 292 186 l 475 186 l 475 861 l 692 861 l 692 186 l 875 186 l 875 778 l 1100 778 l 1100 161 l 939 0 l 692 0 l 692 -194 l 475 -194 l 475 0 l 228 0 z "},"ω":{"ha":1297,"x_min":65,"x_max":1232,"o":"m 765 689 l 765 203 l 999 203 l 999 778 l 1232 778 l 1232 167 l 1065 0 l 732 0 l 649 101 l 565 0 l 232 0 l 65 167 l 65 778 l 299 778 l 299 203 l 532 203 l 532 689 l 765 689 z "},"ά":{"ha":858,"x_min":58,"x_max":810,"o":"m 194 0 l 58 136 l 58 642 l 194 778 l 469 778 l 560 656 l 572 778 l 810 778 l 761 389 l 810 0 l 572 0 l 560 122 l 469 0 l 194 0 m 292 190 l 560 190 l 560 588 l 292 588 l 292 190 m 343 831 l 343 1014 l 557 1014 l 501 831 l 343 831 z "},"έ":{"ha":811,"x_min":44,"x_max":764,"o":"m 181 0 l 44 136 l 44 317 l 160 408 l 72 476 l 72 650 l 200 778 l 750 778 l 750 600 l 315 600 l 315 468 l 703 468 l 703 315 l 288 315 l 288 178 l 764 178 l 764 0 l 181 0 m 376 831 l 376 1014 l 590 1014 l 535 831 l 376 831 z "},"ή":{"ha":861,"x_min":67,"x_max":794,"o":"m 67 0 l 67 778 l 628 778 l 794 611 l 794 0 l 561 0 l 561 575 l 300 575 l 300 0 l 67 0 m 344 831 l 344 1014 l 558 1014 l 503 831 l 344 831 z "},"ί":{"ha":456,"x_min":72,"x_max":428,"o":"m 72 778 l 306 778 l 306 204 l 428 204 l 428 0 l 208 0 l 72 136 l 72 778 m 103 831 l 103 1014 l 317 1014 l 261 831 l 103 831 z "},"ϊ":{"ha":456,"x_min":-89,"x_max":467,"o":"m 72 778 l 306 778 l 306 204 l 428 204 l 428 0 l 208 0 l 72 136 l 72 778 m -89 850 l -89 1003 l 128 1003 l 128 850 l -89 850 m 250 850 l 250 1003 l 467 1003 l 467 850 l 250 850 z "},"ΐ":{"ha":456,"x_min":-89,"x_max":467,"o":"m 72 778 l 306 778 l 306 204 l 428 204 l 428 0 l 208 0 l 72 136 l 72 778 m -89 850 l -89 1003 l 128 1003 l 128 850 l -89 850 m 250 850 l 250 1003 l 467 1003 l 467 850 l 250 850 m 103 1056 l 103 1239 l 317 1239 l 261 1056 l 103 1056 z "},"ό":{"ha":839,"x_min":58,"x_max":781,"o":"m 58 158 l 58 619 l 217 778 l 622 778 l 781 619 l 781 158 l 622 0 l 217 0 l 58 158 m 292 186 l 547 186 l 547 592 l 292 592 l 292 186 m 333 831 l 333 1014 l 547 1014 l 492 831 l 333 831 z "},"ύ":{"ha":872,"x_min":72,"x_max":800,"o":"m 800 778 l 800 167 l 633 0 l 239 0 l 72 167 l 72 778 l 306 778 l 306 203 l 567 203 l 567 778 l 800 778 m 350 831 l 350 1014 l 564 1014 l 508 831 l 350 831 z "},"ϋ":{"ha":872,"x_min":72,"x_max":800,"o":"m 800 778 l 800 167 l 633 0 l 239 0 l 72 167 l 72 778 l 306 778 l 306 203 l 567 203 l 567 778 l 800 778 m 158 850 l 158 1003 l 375 1003 l 375 850 l 158 850 m 497 850 l 497 1003 l 714 1003 l 714 850 l 497 850 z "},"ΰ":{"ha":872,"x_min":72,"x_max":800,"o":"m 800 778 l 800 167 l 633 0 l 239 0 l 72 167 l 72 778 l 306 778 l 306 203 l 567 203 l 567 778 l 800 778 m 158 850 l 158 1003 l 375 1003 l 375 850 l 158 850 m 497 850 l 497 1003 l 714 1003 l 714 850 l 497 850 m 350 1056 l 350 1239 l 564 1239 l 508 1056 l 350 1056 z "},"ώ":{"ha":1297,"x_min":65,"x_max":1232,"o":"m 765 689 l 765 203 l 999 203 l 999 778 l 1232 778 l 1232 167 l 1065 0 l 732 0 l 649 101 l 565 0 l 232 0 l 65 167 l 65 778 l 299 778 l 299 203 l 532 203 l 532 689 l 765 689 m 563 831 l 563 1014 l 776 1014 l 721 831 l 563 831 z "},"Ϗ":{"ha":908,"x_min":67,"x_max":906,"o":"m 67 0 l 67 972 l 300 972 l 300 594 l 439 594 l 626 972 l 885 972 l 643 514 l 906 0 l 644 0 l 450 392 l 300 392 l 300 0 l 67 0 m 842 -67 l 786 -278 l 574 -278 l 676 -67 l 842 -67 z "},"ϗ":{"ha":867,"x_min":72,"x_max":861,"o":"m 72 0 l 72 778 l 306 778 l 306 501 l 446 501 l 590 778 l 851 778 l 642 418 l 861 0 l 597 0 l 457 307 l 306 307 l 306 0 l 72 0 m 813 -67 l 757 -278 l 544 -278 l 647 -67 l 813 -67 z "},"ϕ":{"ha":1128,"x_min":58,"x_max":1069,"o":"m 58 161 l 58 617 l 219 778 l 908 778 l 1069 617 l 1069 161 l 908 0 l 219 0 l 58 161 m 283 586 l 283 192 l 844 192 l 844 586 l 283 586 m 664 -194 l 464 -194 l 464 972 l 664 972 l 664 -194 z "},"ʹ":{"ha":311,"x_min":56,"x_max":269,"o":"m 56 622 l 56 972 l 269 972 l 214 622 l 56 622 z "},"͵":{"ha":311,"x_min":42,"x_max":256,"o":"m 256 139 l 256 -211 l 42 -211 l 97 139 l 256 139 z "},";":{"ha":372,"x_min":10,"x_max":294,"o":"m 75 0 l 75 222 l 294 222 l 294 0 l 154 -194 l 10 -194 l 150 0 l 75 0 m 61 500 l 61 722 l 278 722 l 278 500 l 61 500 z "},"·":{"ha":372,"x_min":78,"x_max":294,"o":"m 78 500 l 78 722 l 294 722 l 294 500 l 78 500 z "},"΄":{"ha":311,"x_min":56,"x_max":269,"o":"m 56 622 l 56 972 l 269 972 l 214 622 l 56 622 z "},"΅":{"ha":667,"x_min":56,"x_max":611,"o":"m 56 850 l 56 1003 l 272 1003 l 272 850 l 56 850 m 394 850 l 394 1003 l 611 1003 l 611 850 l 394 850 m 226 831 l 226 1014 l 440 1014 l 385 831 l 226 831 z "},"А":{"ha":911,"x_min":15,"x_max":896,"o":"m 15 0 l 229 972 l 682 972 l 896 0 l 649 0 l 608 208 l 303 208 l 263 0 l 15 0 m 332 376 l 579 376 l 499 788 l 413 788 l 332 376 z "},"Б":{"ha":897,"x_min":67,"x_max":858,"o":"m 67 0 l 67 972 l 786 972 l 786 786 l 300 786 l 300 600 l 697 600 l 858 439 l 858 161 l 697 0 l 67 0 m 300 186 l 617 186 l 617 422 l 300 422 l 300 186 z "},"В":{"ha":906,"x_min":67,"x_max":867,"o":"m 300 579 l 601 579 l 601 786 l 300 786 l 300 579 m 300 186 l 625 186 l 625 418 l 300 418 l 300 186 m 839 811 l 839 582 l 757 514 l 867 422 l 867 161 l 706 0 l 67 0 l 67 972 l 678 972 l 839 811 z "},"Г":{"ha":708,"x_min":67,"x_max":694,"o":"m 67 0 l 67 972 l 694 972 l 694 761 l 300 761 l 300 0 l 67 0 z "},"Д":{"ha":1000,"x_min":21,"x_max":979,"o":"m 21 -194 l 21 203 l 110 203 l 290 972 l 896 972 l 896 203 l 979 203 l 979 -194 l 796 -194 l 796 0 l 204 0 l 204 -194 l 21 -194 m 347 186 l 663 186 l 663 786 l 468 786 l 347 186 z "},"Е":{"ha":806,"x_min":67,"x_max":764,"o":"m 67 0 l 67 972 l 750 972 l 750 778 l 300 778 l 300 589 l 681 589 l 681 403 l 300 403 l 300 194 l 764 194 l 764 0 l 67 0 z "},"Ж":{"ha":1301,"x_min":3,"x_max":1297,"o":"m 767 0 l 533 0 l 533 392 l 415 392 l 268 0 l 3 0 l 217 514 l 24 972 l 286 972 l 426 594 l 533 594 l 533 972 l 767 972 l 767 594 l 874 594 l 1015 972 l 1276 972 l 1083 514 l 1297 0 l 1033 0 l 886 392 l 767 392 l 767 0 z "},"З":{"ha":864,"x_min":39,"x_max":825,"o":"m 664 0 l 39 0 l 39 194 l 583 194 l 583 403 l 164 403 l 164 589 l 556 589 l 556 778 l 56 778 l 56 972 l 636 972 l 797 811 l 797 576 l 710 508 l 825 417 l 825 161 l 664 0 z "},"И":{"ha":944,"x_min":67,"x_max":878,"o":"m 878 0 l 649 0 l 649 642 l 288 0 l 67 0 l 67 972 l 296 972 l 296 331 l 657 972 l 878 972 l 878 0 z "},"Й":{"ha":944,"x_min":67,"x_max":878,"o":"m 878 0 l 649 0 l 649 642 l 288 0 l 67 0 l 67 972 l 296 972 l 296 331 l 657 972 l 878 972 l 878 0 m 546 1228 l 767 1228 l 669 1036 l 275 1036 l 178 1228 l 399 1228 l 406 1131 l 539 1131 l 546 1228 z "},"К":{"ha":908,"x_min":67,"x_max":906,"o":"m 67 0 l 67 972 l 300 972 l 300 594 l 439 594 l 626 972 l 885 972 l 643 514 l 906 0 l 644 0 l 450 392 l 300 392 l 300 0 l 67 0 z "},"Л":{"ha":935,"x_min":15,"x_max":868,"o":"m 868 972 l 868 0 l 635 0 l 635 767 l 413 767 l 263 0 l 15 0 l 221 972 l 868 972 z "},"М":{"ha":1083,"x_min":67,"x_max":1017,"o":"m 67 0 l 67 972 l 347 972 l 542 558 l 736 972 l 1017 972 l 1017 0 l 788 0 l 788 675 l 592 272 l 492 272 l 296 675 l 296 0 l 67 0 z "},"Н":{"ha":914,"x_min":67,"x_max":847,"o":"m 67 0 l 67 972 l 300 972 l 300 606 l 614 606 l 614 972 l 847 972 l 847 0 l 614 0 l 614 394 l 300 394 l 300 0 l 67 0 z "},"О":{"ha":944,"x_min":63,"x_max":882,"o":"m 63 169 l 63 803 l 232 972 l 713 972 l 882 803 l 882 169 l 713 0 l 232 0 l 63 169 m 304 769 l 304 203 l 640 203 l 640 769 l 304 769 z "},"П":{"ha":903,"x_min":67,"x_max":836,"o":"m 67 0 l 67 972 l 836 972 l 836 0 l 603 0 l 603 769 l 300 769 l 300 0 l 67 0 z "},"Р":{"ha":869,"x_min":67,"x_max":831,"o":"m 300 394 l 597 394 l 597 786 l 300 786 l 300 394 m 831 803 l 831 378 l 661 208 l 300 208 l 300 0 l 67 0 l 67 972 l 661 972 l 831 803 z "},"С":{"ha":772,"x_min":63,"x_max":735,"o":"m 63 169 l 63 803 l 232 972 l 721 972 l 721 760 l 304 760 l 304 213 l 735 213 l 735 0 l 232 0 l 63 169 z "},"Т":{"ha":794,"x_min":28,"x_max":767,"o":"m 281 0 l 281 769 l 28 769 l 28 972 l 767 972 l 767 769 l 514 769 l 514 0 l 281 0 z "},"У":{"ha":833,"x_min":10,"x_max":824,"o":"m 56 0 l 56 194 l 403 194 l 432 306 l 192 306 l 10 972 l 249 972 l 365 492 l 474 492 l 586 972 l 824 972 l 568 0 l 56 0 z "},"Ф":{"ha":1169,"x_min":63,"x_max":1107,"o":"m 63 250 l 63 722 l 224 883 l 946 883 l 1107 722 l 1107 250 l 946 89 l 224 89 l 63 250 m 288 697 l 288 275 l 882 275 l 882 697 l 288 697 m 693 0 l 476 0 l 476 972 l 693 972 l 693 0 z "},"Х":{"ha":917,"x_min":11,"x_max":906,"o":"m 11 0 l 228 514 l 32 972 l 282 972 l 418 606 l 499 606 l 635 972 l 885 972 l 689 514 l 906 0 l 653 0 l 508 394 l 408 394 l 264 0 l 11 0 z "},"Ц":{"ha":951,"x_min":67,"x_max":938,"o":"m 836 972 l 836 203 l 938 203 l 938 -194 l 754 -194 l 754 0 l 67 0 l 67 972 l 300 972 l 300 203 l 603 203 l 603 972 l 836 972 z "},"Ч":{"ha":889,"x_min":67,"x_max":822,"o":"m 822 972 l 822 0 l 589 0 l 589 194 l 233 194 l 67 361 l 67 972 l 300 972 l 300 389 l 589 389 l 589 972 l 822 972 z "},"Ш":{"ha":1333,"x_min":67,"x_max":1267,"o":"m 783 972 l 783 203 l 1033 203 l 1033 972 l 1267 972 l 1267 0 l 67 0 l 67 972 l 300 972 l 300 203 l 550 203 l 550 972 l 783 972 z "},"Щ":{"ha":1382,"x_min":67,"x_max":1368,"o":"m 783 972 l 783 203 l 1033 203 l 1033 972 l 1267 972 l 1267 203 l 1368 203 l 1368 -194 l 1185 -194 l 1185 0 l 67 0 l 67 972 l 300 972 l 300 203 l 550 203 l 550 972 l 783 972 z "},"Ъ":{"ha":1000,"x_min":28,"x_max":961,"o":"m 728 578 l 411 578 l 411 186 l 728 186 l 728 578 m 961 594 l 961 169 l 792 0 l 178 0 l 178 719 l 228 769 l 28 769 l 28 972 l 411 972 l 411 764 l 792 764 l 961 594 z "},"Ы":{"ha":1256,"x_min":67,"x_max":1189,"o":"m 617 578 l 300 578 l 300 186 l 617 186 l 617 578 m 850 594 l 850 169 l 681 0 l 67 0 l 67 972 l 300 972 l 300 764 l 681 764 l 850 594 m 956 0 l 956 972 l 1189 972 l 1189 0 l 956 0 z "},"Ь":{"ha":889,"x_min":67,"x_max":850,"o":"m 617 578 l 300 578 l 300 186 l 617 186 l 617 578 m 850 594 l 850 169 l 681 0 l 67 0 l 67 972 l 300 972 l 300 764 l 681 764 l 850 594 z "},"Э":{"ha":842,"x_min":38,"x_max":779,"o":"m 779 175 l 604 0 l 38 0 l 38 200 l 542 200 l 542 772 l 51 772 l 51 972 l 604 972 l 779 797 l 779 175 m 682 393 l 182 393 l 182 579 l 682 579 l 682 393 z "},"Ю":{"ha":1336,"x_min":67,"x_max":1274,"o":"m 67 0 l 67 972 l 300 972 l 300 588 l 499 588 l 499 803 l 668 972 l 1104 972 l 1274 803 l 1274 169 l 1104 0 l 668 0 l 499 169 l 499 385 l 300 385 l 300 0 l 67 0 m 729 761 l 729 211 l 1040 211 l 1040 761 l 729 761 z "},"Я":{"ha":911,"x_min":3,"x_max":844,"o":"m 611 461 l 611 786 l 292 786 l 292 461 l 611 461 m 58 803 l 228 972 l 844 972 l 844 0 l 611 0 l 611 275 l 388 275 l 264 0 l 3 0 l 171 339 l 58 451 l 58 803 z "},"а":{"ha":833,"x_min":53,"x_max":767,"o":"m 53 167 l 53 444 l 533 458 l 533 583 l 81 583 l 81 778 l 600 778 l 767 611 l 767 0 l 219 0 l 53 167 m 286 317 l 286 186 l 533 186 l 533 344 l 286 317 z "},"б":{"ha":861,"x_min":67,"x_max":806,"o":"m 300 194 l 572 194 l 572 514 l 300 514 l 300 194 m 233 0 l 67 167 l 67 814 l 225 972 l 772 972 l 772 786 l 300 786 l 300 683 l 686 683 l 806 564 l 806 167 l 639 0 l 233 0 z "},"в":{"ha":847,"x_min":67,"x_max":803,"o":"m 67 778 l 67 0 l 683 0 l 803 119 l 803 321 l 697 408 l 775 471 l 775 658 l 656 778 l 67 778 m 296 468 l 296 608 l 550 608 l 550 468 l 296 468 m 296 169 l 296 315 l 569 315 l 569 169 l 296 169 z "},"г":{"ha":653,"x_min":67,"x_max":625,"o":"m 67 0 l 67 778 l 625 778 l 625 567 l 300 567 l 300 0 l 67 0 z "},"д":{"ha":847,"x_min":56,"x_max":781,"o":"m 100 -194 l 100 0 l 547 0 l 547 111 l 214 111 l 56 269 l 56 619 l 219 778 l 781 778 l 781 -6 l 592 -194 l 100 -194 m 289 583 l 289 297 l 547 297 l 547 583 l 289 583 z "},"е":{"ha":819,"x_min":56,"x_max":764,"o":"m 56 158 l 56 619 l 214 778 l 764 778 l 764 339 l 289 339 l 289 194 l 736 194 l 736 0 l 214 0 l 56 158 m 289 453 l 567 467 l 567 600 l 289 600 l 289 453 z "},"ж":{"ha":1311,"x_min":6,"x_max":1306,"o":"m 772 0 l 539 0 l 539 307 l 410 307 l 269 0 l 6 0 l 225 418 l 19 778 l 281 778 l 417 501 l 539 501 l 539 778 l 772 778 l 772 501 l 894 501 l 1031 778 l 1292 778 l 1086 418 l 1306 0 l 1042 0 l 901 307 l 772 307 l 772 0 z "},"з":{"ha":811,"x_min":44,"x_max":764,"o":"m 764 128 l 636 0 l 44 0 l 44 186 l 521 186 l 521 315 l 106 315 l 106 468 l 493 468 l 493 592 l 58 592 l 58 778 l 608 778 l 736 650 l 736 476 l 649 408 l 764 317 l 764 128 z "},"и":{"ha":911,"x_min":67,"x_max":844,"o":"m 844 0 l 615 0 l 615 489 l 299 0 l 67 0 l 67 778 l 296 778 l 296 281 l 613 778 l 844 778 l 844 0 z "},"й":{"ha":911,"x_min":67,"x_max":844,"o":"m 844 0 l 615 0 l 615 489 l 299 0 l 67 0 l 67 778 l 296 778 l 296 281 l 613 778 l 844 778 l 844 0 m 557 1033 l 750 1033 l 628 842 l 283 842 l 161 1033 l 354 1033 l 372 953 l 539 953 l 557 1033 z "},"к":{"ha":861,"x_min":67,"x_max":856,"o":"m 67 0 l 67 778 l 300 778 l 300 501 l 440 501 l 585 778 l 846 778 l 636 418 l 856 0 l 592 0 l 451 307 l 300 307 l 300 0 l 67 0 z "},"л":{"ha":861,"x_min":21,"x_max":794,"o":"m 794 778 l 794 0 l 561 0 l 561 589 l 390 589 l 299 0 l 21 0 l 21 204 l 103 204 l 193 778 l 794 778 z "},"м":{"ha":990,"x_min":67,"x_max":924,"o":"m 67 0 l 67 778 l 325 778 l 494 440 l 665 778 l 924 778 l 924 0 l 708 0 l 708 518 l 544 175 l 444 175 l 282 518 l 282 0 l 67 0 z "},"н":{"ha":869,"x_min":67,"x_max":803,"o":"m 67 0 l 67 778 l 300 778 l 300 492 l 569 492 l 569 778 l 803 778 l 803 0 l 569 0 l 569 290 l 300 290 l 300 0 l 67 0 z "},"о":{"ha":833,"x_min":56,"x_max":778,"o":"m 56 158 l 56 619 l 214 778 l 619 778 l 778 619 l 778 158 l 619 0 l 214 0 l 56 158 m 289 186 l 544 186 l 544 592 l 289 592 l 289 186 z "},"п":{"ha":867,"x_min":69,"x_max":797,"o":"m 69 0 l 69 778 l 797 778 l 797 0 l 564 0 l 564 575 l 303 575 l 303 0 l 69 0 z "},"р":{"ha":861,"x_min":67,"x_max":806,"o":"m 67 -194 l 67 778 l 631 778 l 806 603 l 806 175 l 631 0 l 300 0 l 300 -194 l 67 -194 m 572 583 l 300 583 l 300 194 l 572 194 l 572 583 z "},"с":{"ha":736,"x_min":56,"x_max":703,"o":"m 56 158 l 56 619 l 214 778 l 703 778 l 703 567 l 289 567 l 289 211 l 703 211 l 703 0 l 214 0 l 56 158 z "},"т":{"ha":778,"x_min":28,"x_max":750,"o":"m 506 0 l 506 575 l 750 575 l 750 778 l 28 778 l 28 575 l 272 575 l 272 0 l 506 0 z "},"у":{"ha":833,"x_min":10,"x_max":824,"o":"m 56 -194 l 56 0 l 403 0 l 432 111 l 192 111 l 10 778 l 249 778 l 365 297 l 474 297 l 586 778 l 824 778 l 568 -194 l 56 -194 z "},"ф":{"ha":1128,"x_min":58,"x_max":1069,"o":"m 58 161 l 58 617 l 219 778 l 908 778 l 1069 617 l 1069 161 l 908 0 l 219 0 l 58 161 m 283 586 l 283 192 l 844 192 l 844 586 l 283 586 m 664 -194 l 464 -194 l 464 972 l 664 972 l 664 -194 z "},"х":{"ha":875,"x_min":22,"x_max":853,"o":"m 22 0 l 211 410 l 36 778 l 296 778 l 400 493 l 475 493 l 579 778 l 839 778 l 664 410 l 853 0 l 590 0 l 485 299 l 390 299 l 285 0 l 22 0 z "},"ц":{"ha":913,"x_min":67,"x_max":899,"o":"m 794 778 l 794 203 l 899 203 l 899 -194 l 715 -194 l 715 0 l 67 0 l 67 778 l 300 778 l 300 203 l 561 203 l 561 778 l 794 778 z "},"ч":{"ha":850,"x_min":56,"x_max":783,"o":"m 783 778 l 783 0 l 550 0 l 550 178 l 222 178 l 56 344 l 56 778 l 289 778 l 289 372 l 550 372 l 550 778 l 783 778 z "},"ш":{"ha":1278,"x_min":67,"x_max":1211,"o":"m 756 778 l 756 203 l 978 203 l 978 778 l 1211 778 l 1211 0 l 67 0 l 67 778 l 300 778 l 300 203 l 522 203 l 522 778 l 756 778 z "},"щ":{"ha":1326,"x_min":67,"x_max":1313,"o":"m 756 778 l 756 203 l 978 203 l 978 778 l 1211 778 l 1211 203 l 1313 203 l 1313 -194 l 1129 -194 l 1129 0 l 67 0 l 67 778 l 300 778 l 300 203 l 522 203 l 522 778 l 756 778 z "},"ъ":{"ha":939,"x_min":14,"x_max":883,"o":"m 144 0 l 144 517 l 211 583 l 14 583 l 14 778 l 378 778 l 378 600 l 725 600 l 883 442 l 883 158 l 725 0 l 144 0 m 378 186 l 650 186 l 650 414 l 378 414 l 378 186 z "},"ы":{"ha":1228,"x_min":67,"x_max":1161,"o":"m 67 0 l 67 778 l 300 778 l 300 600 l 647 600 l 806 442 l 806 158 l 647 0 l 67 0 m 300 186 l 572 186 l 572 414 l 300 414 l 300 186 m 928 0 l 928 778 l 1161 778 l 1161 0 l 928 0 z "},"ь":{"ha":847,"x_min":67,"x_max":806,"o":"m 67 0 l 67 778 l 300 778 l 300 600 l 647 600 l 806 442 l 806 158 l 647 0 l 67 0 m 300 186 l 572 186 l 572 414 l 300 414 l 300 186 z "},"э":{"ha":786,"x_min":44,"x_max":731,"o":"m 572 0 l 44 0 l 44 186 l 497 186 l 497 326 l 81 326 l 81 463 l 497 463 l 497 592 l 44 592 l 44 778 l 572 778 l 731 619 l 731 158 l 572 0 z "},"ю":{"ha":1200,"x_min":67,"x_max":1144,"o":"m 67 0 l 67 778 l 300 778 l 300 482 l 422 482 l 422 619 l 581 778 l 986 778 l 1144 619 l 1144 158 l 986 0 l 581 0 l 422 158 l 422 296 l 300 296 l 300 0 l 67 0 m 656 186 l 911 186 l 911 592 l 656 592 l 656 186 z "},"я":{"ha":858,"x_min":17,"x_max":792,"o":"m 303 386 l 558 386 l 558 592 l 303 592 l 303 386 m 69 339 l 69 633 l 214 778 l 792 778 l 792 0 l 558 0 l 558 208 l 371 208 l 278 0 l 17 0 l 163 246 l 69 339 z "},"Ӑ":{"ha":911,"x_min":15,"x_max":896,"o":"m 15 0 l 229 972 l 682 972 l 896 0 l 649 0 l 608 208 l 303 208 l 263 0 l 15 0 m 332 376 l 579 376 l 499 788 l 413 788 l 332 376 m 529 1228 l 750 1228 l 653 1036 l 258 1036 l 161 1228 l 382 1228 l 389 1131 l 522 1131 l 529 1228 z "},"ӑ":{"ha":833,"x_min":53,"x_max":767,"o":"m 53 167 l 53 444 l 533 458 l 533 583 l 81 583 l 81 778 l 600 778 l 767 611 l 767 0 l 219 0 l 53 167 m 286 317 l 286 186 l 533 186 l 533 344 l 286 317 m 465 1033 l 686 1033 l 589 842 l 194 842 l 97 1033 l 318 1033 l 325 936 l 458 936 l 465 1033 z "},"Ӓ":{"ha":911,"x_min":15,"x_max":896,"o":"m 15 0 l 229 972 l 682 972 l 896 0 l 649 0 l 608 208 l 303 208 l 263 0 l 15 0 m 332 376 l 579 376 l 499 788 l 413 788 l 332 376 m 178 1044 l 178 1197 l 394 1197 l 394 1044 l 178 1044 m 517 1044 l 517 1197 l 733 1197 l 733 1044 l 517 1044 z "},"ӓ":{"ha":833,"x_min":53,"x_max":767,"o":"m 53 167 l 53 444 l 533 458 l 533 583 l 81 583 l 81 778 l 600 778 l 767 611 l 767 0 l 219 0 l 53 167 m 286 317 l 286 186 l 533 186 l 533 344 l 286 317 m 114 850 l 114 1003 l 331 1003 l 331 850 l 114 850 m 453 850 l 453 1003 l 669 1003 l 669 850 l 453 850 z "},"Ә":{"ha":903,"x_min":63,"x_max":840,"o":"m 840 811 l 840 161 l 679 0 l 224 0 l 63 161 l 63 594 l 607 594 l 607 778 l 90 778 l 90 972 l 679 972 l 840 811 m 607 447 l 296 433 l 296 194 l 607 194 l 607 447 z "},"ә":{"ha":819,"x_min":56,"x_max":764,"o":"m 764 617 l 764 161 l 603 0 l 217 0 l 56 161 l 56 439 l 531 439 l 531 583 l 83 583 l 83 778 l 603 778 l 764 617 m 531 325 l 264 311 l 264 178 l 531 178 l 531 325 z "},"Ӕ":{"ha":1226,"x_min":15,"x_max":1185,"o":"m 15 0 l 247 972 l 1171 972 l 1171 778 l 782 778 l 782 589 l 1101 589 l 1101 403 l 782 403 l 782 194 l 1185 194 l 1185 0 l 557 0 l 557 208 l 307 208 l 263 0 l 15 0 m 336 376 l 558 376 l 558 788 l 425 788 l 336 376 z "},"ӕ":{"ha":1264,"x_min":53,"x_max":1208,"o":"m 53 167 l 53 444 l 517 458 l 517 583 l 81 583 l 81 778 l 528 778 l 633 672 l 739 778 l 1208 778 l 1208 339 l 750 339 l 750 186 l 1181 186 l 1181 0 l 219 0 l 53 167 m 750 453 l 1008 467 l 1008 600 l 750 600 l 750 453 m 286 317 l 286 178 l 517 178 l 517 344 l 286 317 z "},"Ѓ":{"ha":708,"x_min":67,"x_max":694,"o":"m 67 0 l 67 972 l 694 972 l 694 761 l 300 761 l 300 0 l 67 0 m 174 1050 l 174 1167 l 618 1206 l 618 1050 l 174 1050 z "},"ѓ":{"ha":653,"x_min":67,"x_max":625,"o":"m 67 0 l 67 778 l 625 778 l 625 567 l 300 567 l 300 0 l 67 0 m 172 856 l 172 972 l 617 1011 l 617 856 l 172 856 z "},"Ґ":{"ha":708,"x_min":67,"x_max":694,"o":"m 67 0 l 67 972 l 478 972 l 478 1136 l 694 1136 l 694 761 l 300 761 l 300 0 l 67 0 z "},"ґ":{"ha":653,"x_min":67,"x_max":625,"o":"m 67 0 l 67 778 l 414 778 l 414 953 l 625 953 l 625 567 l 300 567 l 300 0 l 67 0 z "},"Ғ":{"ha":708,"x_min":67,"x_max":694,"o":"m 111 353 l 111 519 l 544 519 l 544 353 l 111 353 m 67 0 l 67 972 l 694 972 l 694 761 l 300 761 l 300 0 l 67 0 z "},"ғ":{"ha":653,"x_min":10,"x_max":625,"o":"m 10 242 l 10 408 l 471 408 l 471 242 l 10 242 m 67 0 l 67 778 l 625 778 l 625 567 l 300 567 l 300 0 l 67 0 z "},"Ҕ":{"ha":883,"x_min":67,"x_max":828,"o":"m 67 0 l 67 972 l 803 972 l 803 778 l 308 778 l 308 558 l 694 558 l 828 425 l 828 -61 l 694 -194 l 403 -194 l 403 0 l 594 0 l 594 364 l 308 364 l 308 0 l 67 0 z "},"ҕ":{"ha":842,"x_min":67,"x_max":786,"o":"m 67 0 l 67 778 l 778 778 l 778 583 l 308 583 l 308 450 l 653 450 l 786 317 l 786 -61 l 653 -194 l 392 -194 l 392 0 l 569 0 l 569 272 l 308 272 l 308 0 l 67 0 z "},"Ӷ":{"ha":708,"x_min":67,"x_max":694,"o":"m 67 0 l 67 972 l 694 972 l 694 761 l 300 761 l 300 203 l 410 203 l 410 -194 l 226 -194 l 226 0 l 67 0 z "},"ӷ":{"ha":653,"x_min":67,"x_max":625,"o":"m 67 0 l 67 778 l 625 778 l 625 567 l 300 567 l 300 203 l 410 203 l 410 -194 l 226 -194 l 226 0 l 67 0 z "},"Ђ":{"ha":1039,"x_min":28,"x_max":983,"o":"m 256 0 l 256 778 l 28 778 l 28 972 l 844 972 l 844 778 l 489 778 l 489 600 l 825 600 l 983 442 l 983 158 l 825 0 l 622 0 l 622 186 l 750 186 l 750 414 l 489 414 l 489 0 l 256 0 z "},"ђ":{"ha":861,"x_min":67,"x_max":794,"o":"m 67 0 l 67 972 l 300 972 l 300 878 l 607 878 l 607 775 l 300 775 l 300 692 l 628 692 l 794 525 l 794 -72 l 644 -222 l 464 -222 l 464 -53 l 561 -53 l 561 497 l 300 497 l 300 0 l 67 0 z "},"Ҙ":{"ha":864,"x_min":42,"x_max":825,"o":"m 664 0 l 489 0 l 489 -194 l 306 -194 l 306 0 l 42 0 l 42 194 l 588 194 l 588 403 l 125 403 l 125 589 l 560 589 l 560 778 l 56 778 l 56 972 l 636 972 l 797 811 l 797 576 l 710 508 l 825 417 l 825 161 l 664 0 z "},"ҙ":{"ha":811,"x_min":44,"x_max":764,"o":"m 764 128 l 636 0 l 496 0 l 496 -194 l 313 -194 l 313 0 l 44 0 l 44 186 l 521 186 l 521 315 l 106 315 l 106 468 l 493 468 l 493 592 l 58 592 l 58 778 l 608 778 l 736 650 l 736 476 l 649 408 l 764 317 l 764 128 z "},"Ѐ":{"ha":806,"x_min":67,"x_max":764,"o":"m 67 0 l 67 972 l 750 972 l 750 778 l 300 778 l 300 589 l 681 589 l 681 403 l 300 403 l 300 194 l 764 194 l 764 0 l 67 0 m 596 1050 l 151 1050 l 151 1206 l 596 1167 l 596 1050 z "},"ѐ":{"ha":819,"x_min":56,"x_max":764,"o":"m 56 158 l 56 619 l 214 778 l 764 778 l 764 339 l 289 339 l 289 194 l 736 194 l 736 0 l 214 0 l 56 158 m 289 453 l 567 467 l 567 600 l 289 600 l 289 453 m 611 856 l 167 856 l 167 1011 l 611 972 l 611 856 z "},"Ӗ":{"ha":806,"x_min":67,"x_max":764,"o":"m 67 0 l 67 972 l 750 972 l 750 778 l 300 778 l 300 589 l 681 589 l 681 403 l 300 403 l 300 194 l 764 194 l 764 0 l 67 0 m 489 1228 l 710 1228 l 613 1036 l 218 1036 l 121 1228 l 342 1228 l 349 1131 l 482 1131 l 489 1228 z "},"ӗ":{"ha":819,"x_min":56,"x_max":764,"o":"m 56 158 l 56 619 l 214 778 l 764 778 l 764 339 l 289 339 l 289 194 l 736 194 l 736 0 l 214 0 l 56 158 m 289 453 l 567 467 l 567 600 l 289 600 l 289 453 m 504 1033 l 725 1033 l 628 842 l 233 842 l 136 1033 l 357 1033 l 364 936 l 497 936 l 504 1033 z "},"Ё":{"ha":806,"x_min":67,"x_max":764,"o":"m 67 0 l 67 972 l 750 972 l 750 778 l 300 778 l 300 589 l 681 589 l 681 403 l 300 403 l 300 194 l 764 194 l 764 0 l 67 0 m 138 1044 l 138 1197 l 354 1197 l 354 1044 l 138 1044 m 476 1044 l 476 1197 l 693 1197 l 693 1044 l 476 1044 z "},"ё":{"ha":819,"x_min":56,"x_max":764,"o":"m 56 158 l 56 619 l 214 778 l 764 778 l 764 339 l 289 339 l 289 194 l 736 194 l 736 0 l 214 0 l 56 158 m 289 453 l 567 467 l 567 600 l 289 600 l 289 453 m 153 850 l 153 1003 l 369 1003 l 369 850 l 153 850 m 492 850 l 492 1003 l 708 1003 l 708 850 l 492 850 z "},"Є":{"ha":842,"x_min":63,"x_max":804,"o":"m 63 175 l 63 797 l 238 972 l 790 972 l 790 772 l 300 772 l 300 200 l 804 200 l 804 0 l 238 0 l 63 175 m 160 393 l 160 579 l 660 579 l 660 393 l 160 393 z "},"є":{"ha":786,"x_min":56,"x_max":742,"o":"m 214 0 l 56 158 l 56 619 l 214 778 l 742 778 l 742 592 l 289 592 l 289 463 l 706 463 l 706 326 l 289 326 l 289 186 l 742 186 l 742 0 l 214 0 z "},"Ӂ":{"ha":1301,"x_min":3,"x_max":1297,"o":"m 767 0 l 533 0 l 533 392 l 415 392 l 268 0 l 3 0 l 217 514 l 24 972 l 286 972 l 426 594 l 533 594 l 533 972 l 767 972 l 767 594 l 874 594 l 1015 972 l 1276 972 l 1083 514 l 1297 0 l 1033 0 l 886 392 l 767 392 l 767 0 m 724 1228 l 944 1228 l 847 1036 l 453 1036 l 356 1228 l 576 1228 l 583 1131 l 717 1131 l 724 1228 z "},"ӂ":{"ha":1311,"x_min":6,"x_max":1306,"o":"m 772 0 l 539 0 l 539 307 l 410 307 l 269 0 l 6 0 l 225 418 l 19 778 l 281 778 l 417 501 l 539 501 l 539 778 l 772 778 l 772 501 l 894 501 l 1031 778 l 1292 778 l 1086 418 l 1306 0 l 1042 0 l 901 307 l 772 307 l 772 0 m 729 1033 l 950 1033 l 853 842 l 458 842 l 361 1033 l 582 1033 l 589 936 l 722 936 l 729 1033 z "},"Ӝ":{"ha":1301,"x_min":3,"x_max":1297,"o":"m 767 0 l 533 0 l 533 392 l 415 392 l 268 0 l 3 0 l 217 514 l 24 972 l 286 972 l 426 594 l 533 594 l 533 972 l 767 972 l 767 594 l 874 594 l 1015 972 l 1276 972 l 1083 514 l 1297 0 l 1033 0 l 886 392 l 767 392 l 767 0 m 372 1044 l 372 1197 l 589 1197 l 589 1044 l 372 1044 m 711 1044 l 711 1197 l 928 1197 l 928 1044 l 711 1044 z "},"ӝ":{"ha":1311,"x_min":6,"x_max":1306,"o":"m 772 0 l 539 0 l 539 307 l 410 307 l 269 0 l 6 0 l 225 418 l 19 778 l 281 778 l 417 501 l 539 501 l 539 778 l 772 778 l 772 501 l 894 501 l 1031 778 l 1292 778 l 1086 418 l 1306 0 l 1042 0 l 901 307 l 772 307 l 772 0 m 378 850 l 378 1003 l 594 1003 l 594 850 l 378 850 m 717 850 l 717 1003 l 933 1003 l 933 850 l 717 850 z "},"Җ":{"ha":1343,"x_min":0,"x_max":1329,"o":"m 764 0 l 531 0 l 531 392 l 413 392 l 264 0 l 0 0 l 214 514 l 21 972 l 282 972 l 424 594 l 531 594 l 531 972 l 764 972 l 764 594 l 871 594 l 1013 972 l 1274 972 l 1081 514 l 1215 203 l 1329 203 l 1329 -194 l 1146 -194 l 1146 0 l 1031 0 l 882 392 l 764 392 l 764 0 z "},"җ":{"ha":1360,"x_min":6,"x_max":1346,"o":"m 772 0 l 539 0 l 539 307 l 410 307 l 269 0 l 6 0 l 225 418 l 19 778 l 281 778 l 417 501 l 539 501 l 539 778 l 772 778 l 772 501 l 894 501 l 1031 778 l 1292 778 l 1086 418 l 1206 203 l 1346 203 l 1346 -194 l 1163 -194 l 1163 0 l 1042 0 l 901 307 l 772 307 l 772 0 z "},"Ӟ":{"ha":864,"x_min":39,"x_max":825,"o":"m 664 0 l 39 0 l 39 194 l 583 194 l 583 403 l 164 403 l 164 589 l 556 589 l 556 778 l 56 778 l 56 972 l 636 972 l 797 811 l 797 576 l 710 508 l 825 417 l 825 161 l 664 0 m 90 1044 l 90 1197 l 307 1197 l 307 1044 l 90 1044 m 429 1044 l 429 1197 l 646 1197 l 646 1044 l 429 1044 z "},"ӟ":{"ha":811,"x_min":44,"x_max":764,"o":"m 764 128 l 636 0 l 44 0 l 44 186 l 521 186 l 521 315 l 106 315 l 106 468 l 493 468 l 493 592 l 58 592 l 58 778 l 608 778 l 736 650 l 736 476 l 649 408 l 764 317 l 764 128 m 68 850 l 68 1003 l 285 1003 l 285 850 l 68 850 m 407 850 l 407 1003 l 624 1003 l 624 850 l 407 850 z "},"Ѕ":{"ha":889,"x_min":63,"x_max":826,"o":"m 76 0 l 76 203 l 593 203 l 593 385 l 63 431 l 63 811 l 224 972 l 813 972 l 813 769 l 296 769 l 296 601 l 826 556 l 826 161 l 665 0 l 76 0 z "},"ѕ":{"ha":817,"x_min":56,"x_max":761,"o":"m 56 0 l 56 186 l 528 186 l 528 328 l 56 328 l 56 619 l 214 778 l 761 778 l 761 592 l 289 592 l 289 456 l 761 456 l 761 154 l 607 0 l 56 0 z "},"Ѝ":{"ha":944,"x_min":67,"x_max":878,"o":"m 878 0 l 649 0 l 649 642 l 288 0 l 67 0 l 67 972 l 296 972 l 296 331 l 657 972 l 878 972 l 878 0 m 653 1050 l 208 1050 l 208 1206 l 653 1167 l 653 1050 z "},"ѝ":{"ha":911,"x_min":67,"x_max":844,"o":"m 844 0 l 615 0 l 615 489 l 299 0 l 67 0 l 67 778 l 296 778 l 296 281 l 613 778 l 844 778 l 844 0 m 636 856 l 192 856 l 192 1011 l 636 972 l 636 856 z "},"Ӥ":{"ha":944,"x_min":67,"x_max":878,"o":"m 878 0 l 649 0 l 649 642 l 288 0 l 67 0 l 67 972 l 296 972 l 296 331 l 657 972 l 878 972 l 878 0 m 194 1044 l 194 1197 l 411 1197 l 411 1044 l 194 1044 m 533 1044 l 533 1197 l 750 1197 l 750 1044 l 533 1044 z "},"ӥ":{"ha":911,"x_min":67,"x_max":844,"o":"m 844 0 l 615 0 l 615 489 l 299 0 l 67 0 l 67 778 l 296 778 l 296 281 l 613 778 l 844 778 l 844 0 m 178 850 l 178 1003 l 394 1003 l 394 850 l 178 850 m 517 850 l 517 1003 l 733 1003 l 733 850 l 517 850 z "},"Ӣ":{"ha":944,"x_min":67,"x_max":878,"o":"m 878 0 l 649 0 l 649 642 l 288 0 l 67 0 l 67 972 l 296 972 l 296 331 l 657 972 l 878 972 l 878 0 m 236 1058 l 236 1208 l 708 1208 l 708 1058 l 236 1058 z "},"ӣ":{"ha":911,"x_min":67,"x_max":844,"o":"m 844 0 l 615 0 l 615 489 l 299 0 l 67 0 l 67 778 l 296 778 l 296 281 l 613 778 l 844 778 l 844 0 m 219 864 l 219 1014 l 692 1014 l 692 864 l 219 864 z "},"І":{"ha":597,"x_min":63,"x_max":535,"o":"m 63 -6 l 63 176 l 182 183 l 182 789 l 63 796 l 63 978 l 299 967 l 535 978 l 535 796 l 415 789 l 415 183 l 535 176 l 535 -6 l 299 6 l 63 -6 z "},"і":{"ha":367,"x_min":67,"x_max":300,"o":"m 67 0 l 67 778 l 300 778 l 300 0 l 67 0 m 67 850 l 67 1003 l 300 1003 l 300 850 l 67 850 z "},"Ї":{"ha":597,"x_min":63,"x_max":535,"o":"m 63 -6 l 63 176 l 182 183 l 182 789 l 63 796 l 63 978 l 299 967 l 535 978 l 535 796 l 415 789 l 415 183 l 535 176 l 535 -6 l 299 6 l 63 -6 m 96 1044 l 96 1197 l 263 1197 l 263 1044 l 96 1044 m 335 1044 l 335 1197 l 501 1197 l 501 1044 l 335 1044 z "},"ї":{"ha":367,"x_min":-19,"x_max":386,"o":"m 67 0 l 67 778 l 300 778 l 300 0 l 67 0 m -19 850 l -19 1003 l 147 1003 l 147 850 l -19 850 m 219 850 l 219 1003 l 386 1003 l 386 850 l 219 850 z "},"Ј":{"ha":833,"x_min":35,"x_max":771,"o":"m 35 175 l 35 458 l 268 458 l 268 211 l 538 211 l 538 769 l 79 769 l 79 972 l 771 972 l 771 175 l 596 0 l 210 0 l 35 175 z "},"ј":{"ha":367,"x_min":67,"x_max":300,"o":"m 67 -194 l 67 778 l 300 778 l 300 -194 l 67 -194 m 67 850 l 67 1003 l 300 1003 l 300 850 l 67 850 z "},"Ќ":{"ha":908,"x_min":67,"x_max":906,"o":"m 67 0 l 67 972 l 300 972 l 300 594 l 439 594 l 626 972 l 885 972 l 643 514 l 906 0 l 644 0 l 450 392 l 300 392 l 300 0 l 67 0 m 265 1050 l 265 1167 l 710 1206 l 710 1050 l 265 1050 z "},"ќ":{"ha":861,"x_min":67,"x_max":856,"o":"m 67 0 l 67 778 l 300 778 l 300 501 l 440 501 l 585 778 l 846 778 l 636 418 l 856 0 l 592 0 l 451 307 l 300 307 l 300 0 l 67 0 m 225 856 l 225 972 l 669 1011 l 669 856 l 225 856 z "},"Қ":{"ha":951,"x_min":67,"x_max":938,"o":"m 67 0 l 67 972 l 300 972 l 300 594 l 463 594 l 621 972 l 882 972 l 672 514 l 815 203 l 938 203 l 938 -194 l 754 -194 l 754 0 l 639 0 l 474 392 l 300 392 l 300 0 l 67 0 z "},"қ":{"ha":910,"x_min":67,"x_max":896,"o":"m 67 0 l 67 778 l 300 778 l 300 501 l 440 501 l 585 778 l 846 778 l 636 418 l 756 203 l 896 203 l 896 -194 l 713 -194 l 713 0 l 592 0 l 451 307 l 300 307 l 300 0 l 67 0 z "},"Ҡ":{"ha":1054,"x_min":14,"x_max":1054,"o":"m 14 779 l 14 972 l 451 972 l 451 594 l 614 594 l 772 972 l 1033 972 l 824 514 l 1054 0 l 790 0 l 625 392 l 451 392 l 451 0 l 218 0 l 218 779 l 14 779 z "},"ҡ":{"ha":1018,"x_min":14,"x_max":1013,"o":"m 14 585 l 14 778 l 457 778 l 457 501 l 597 501 l 742 778 l 1003 778 l 793 418 l 1013 0 l 749 0 l 608 307 l 457 307 l 457 0 l 224 0 l 224 585 l 14 585 z "},"Ҝ":{"ha":939,"x_min":67,"x_max":936,"o":"m 67 0 l 67 972 l 300 972 l 300 594 l 529 594 l 658 972 l 915 972 l 731 514 l 936 0 l 676 0 l 540 392 l 300 392 l 300 0 l 67 0 m 490 167 l 385 167 l 385 819 l 490 819 l 490 167 z "},"ҝ":{"ha":903,"x_min":67,"x_max":897,"o":"m 67 0 l 67 778 l 300 778 l 300 501 l 507 501 l 628 778 l 883 778 l 704 418 l 897 0 l 633 0 l 511 307 l 300 307 l 300 0 l 67 0 m 481 126 l 378 126 l 378 682 l 481 682 l 481 126 z "},"Ԛ":{"ha":944,"x_min":63,"x_max":913,"o":"m 63 169 l 63 803 l 232 972 l 713 972 l 882 803 l 882 206 l 640 44 l 640 769 l 304 769 l 304 190 l 913 82 l 913 -133 l 232 0 l 63 169 z "},"ԛ":{"ha":861,"x_min":56,"x_max":794,"o":"m 794 778 l 794 -194 l 561 -194 l 561 0 l 231 0 l 56 175 l 56 603 l 231 778 l 794 778 m 561 583 l 289 583 l 289 194 l 561 194 l 561 583 z "},"Љ":{"ha":1394,"x_min":15,"x_max":1356,"o":"m 864 972 l 864 764 l 1186 764 l 1356 594 l 1356 169 l 1186 0 l 635 0 l 635 767 l 413 767 l 263 0 l 15 0 l 221 972 l 864 972 m 1122 578 l 864 578 l 864 186 l 1122 186 l 1122 578 z "},"љ":{"ha":1303,"x_min":21,"x_max":1261,"o":"m 21 0 l 21 204 l 103 204 l 193 778 l 794 778 l 794 600 l 1103 600 l 1261 442 l 1261 158 l 1103 0 l 561 0 l 561 589 l 390 589 l 299 0 l 21 0 m 794 186 l 1028 186 l 1028 414 l 794 414 l 794 186 z "},"Ң":{"ha":951,"x_min":67,"x_max":938,"o":"m 67 0 l 67 972 l 300 972 l 300 606 l 603 606 l 603 972 l 836 972 l 836 203 l 938 203 l 938 -194 l 754 -194 l 754 0 l 603 0 l 603 394 l 300 394 l 300 0 l 67 0 z "},"ң":{"ha":910,"x_min":67,"x_max":896,"o":"m 67 0 l 67 778 l 300 778 l 300 503 l 561 503 l 561 778 l 794 778 l 794 203 l 896 203 l 896 -194 l 713 -194 l 713 0 l 561 0 l 561 292 l 300 292 l 300 0 l 67 0 z "},"Ҥ":{"ha":1054,"x_min":67,"x_max":1040,"o":"m 67 0 l 67 972 l 300 972 l 300 606 l 603 606 l 603 972 l 1040 972 l 1040 779 l 836 779 l 836 0 l 603 0 l 603 394 l 300 394 l 300 0 l 67 0 z "},"ҥ":{"ha":1013,"x_min":67,"x_max":999,"o":"m 67 0 l 67 778 l 300 778 l 300 503 l 561 503 l 561 778 l 999 778 l 999 585 l 794 585 l 794 0 l 561 0 l 561 292 l 300 292 l 300 0 l 67 0 z "},"Њ":{"ha":1367,"x_min":67,"x_max":1328,"o":"m 67 0 l 67 972 l 300 972 l 300 606 l 601 606 l 601 972 l 836 972 l 836 764 l 1158 764 l 1328 594 l 1328 169 l 1158 0 l 601 0 l 601 394 l 300 394 l 300 0 l 67 0 m 1094 578 l 836 578 l 836 186 l 1094 186 l 1094 578 z "},"њ":{"ha":1303,"x_min":67,"x_max":1261,"o":"m 561 0 l 561 292 l 300 292 l 300 0 l 67 0 l 67 778 l 300 778 l 300 503 l 561 503 l 561 778 l 794 778 l 794 600 l 1103 600 l 1261 442 l 1261 158 l 1103 0 l 561 0 m 794 186 l 1028 186 l 1028 414 l 794 414 l 794 186 z "},"Ӧ":{"ha":944,"x_min":63,"x_max":882,"o":"m 63 169 l 63 803 l 232 972 l 713 972 l 882 803 l 882 169 l 713 0 l 232 0 l 63 169 m 304 769 l 304 203 l 640 203 l 640 769 l 304 769 m 194 1044 l 194 1197 l 411 1197 l 411 1044 l 194 1044 m 533 1044 l 533 1197 l 750 1197 l 750 1044 l 533 1044 z "},"ӧ":{"ha":833,"x_min":56,"x_max":778,"o":"m 56 158 l 56 619 l 214 778 l 619 778 l 778 619 l 778 158 l 619 0 l 214 0 l 56 158 m 289 186 l 544 186 l 544 592 l 289 592 l 289 186 m 139 850 l 139 1003 l 356 1003 l 356 850 l 139 850 m 478 850 l 478 1003 l 694 1003 l 694 850 l 478 850 z "},"Ө":{"ha":903,"x_min":63,"x_max":840,"o":"m 63 169 l 63 803 l 232 972 l 671 972 l 840 803 l 840 169 l 671 0 l 232 0 l 63 169 m 296 778 l 296 567 l 607 567 l 607 778 l 296 778 m 296 194 l 607 194 l 607 406 l 296 406 l 296 194 z "},"ө":{"ha":828,"x_min":56,"x_max":772,"o":"m 56 153 l 56 625 l 208 778 l 619 778 l 772 625 l 772 153 l 619 0 l 208 0 l 56 153 m 285 617 l 285 457 l 543 457 l 543 617 l 285 617 m 285 169 l 543 169 l 543 340 l 285 340 l 285 169 z "},"Ҫ":{"ha":764,"x_min":63,"x_max":735,"o":"m 63 169 l 63 803 l 232 972 l 721 972 l 721 756 l 313 756 l 313 217 l 735 217 l 735 0 l 576 0 l 576 -194 l 393 -194 l 393 0 l 232 0 l 63 169 z "},"ҫ":{"ha":736,"x_min":56,"x_max":703,"o":"m 56 158 l 56 619 l 214 778 l 703 778 l 703 567 l 289 567 l 289 211 l 703 211 l 703 0 l 554 0 l 554 -194 l 371 -194 l 371 0 l 214 0 l 56 158 z "},"Ћ":{"ha":1050,"x_min":28,"x_max":983,"o":"m 256 0 l 256 778 l 28 778 l 28 972 l 844 972 l 844 778 l 489 778 l 489 600 l 817 600 l 983 433 l 983 0 l 750 0 l 750 406 l 489 406 l 489 0 l 256 0 z "},"ћ":{"ha":861,"x_min":67,"x_max":794,"o":"m 67 0 l 67 972 l 300 972 l 300 692 l 628 692 l 794 525 l 794 0 l 561 0 l 561 497 l 300 497 l 300 0 l 67 0 m 79 775 l 79 878 l 607 878 l 607 775 l 79 775 z "},"Ў":{"ha":833,"x_min":10,"x_max":824,"o":"m 56 0 l 56 194 l 403 194 l 432 306 l 192 306 l 10 972 l 249 972 l 365 492 l 474 492 l 586 972 l 824 972 l 568 0 l 56 0 m 490 1228 l 711 1228 l 614 1036 l 219 1036 l 122 1228 l 343 1228 l 350 1131 l 483 1131 l 490 1228 z "}}}
